<?xml version="1.0" encoding="utf-8"?>
<!-- Generator: Adobe Illustrator 20.1.0, SVG Export Plug-In . SVG Version: 6.00 Build 0)  -->
<svg version="1.0" id="Layer_1" xmlns="http://www.w3.org/2000/svg" xmlns:xlink="http://www.w3.org/1999/xlink" x="0px" y="0px"
	 viewBox="0 0 115 115" style="enable-background:new 0 0 115 115;" xml:space="preserve">
<style type="text/css">
	.st0{fill:#3A3A3A;}
	.st1{fill:none;stroke:#3A3A3A;stroke-width:3;stroke-linecap:round;stroke-linejoin:round;stroke-miterlimit:10;}
	.st2{fill:none;stroke:#3A3A3A;stroke-width:2;stroke-linecap:round;stroke-linejoin:round;stroke-miterlimit:10;}
	.st3{fill:none;stroke:#3A3A3A;stroke-linecap:round;stroke-linejoin:round;stroke-miterlimit:10;}
	.st4{fill:none;stroke:#FFFFFF;stroke-width:3;stroke-linecap:round;stroke-linejoin:round;stroke-miterlimit:10;}
	.st5{fill:none;stroke:#FFFFFF;stroke-width:2;stroke-linecap:round;stroke-linejoin:round;stroke-miterlimit:10;}
	.st6{fill:none;stroke:#FFFFFF;stroke-width:2;stroke-miterlimit:10;}
	.st7{fill:none;stroke:#FFFFFF;stroke-linecap:round;stroke-linejoin:round;stroke-miterlimit:10;}
	.st8{fill:#FFFFFF;}
</style>
<g>
	<path class="st2" d="M85.4,63.8c9.5,19.9-4.5,43.2-26.5,43.7c-0.4,0-0.8,0-1.3,0c-0.4,0-0.8,0-1.3,0c-22-0.7-35.8-24.2-26.3-44
		L56.4,8.2c0.5-1,2-1,2.5,0L85.4,63.8z"/>
	<g>
		<path class="st2" d="M64.3,37.2c0.5,1,0.8,2.2,0.8,3.4c0,4.4-3.6,8.1-8.1,8.1s-8.1-3.6-8.1-8.1c0-1.2,0.3-2.4,0.8-3.4L64.3,37.2z"
			/>
		<g>
			<line class="st2" x1="53" y1="31" x2="53" y2="36"/>
			<line class="st2" x1="61" y1="31" x2="61" y2="36"/>
		</g>
		<rect x="43.5" y="72.9" class="st2" width="28.4" height="4"/>
		<polygon class="st2" points="63.8,97.4 50.6,97.4 44.7,76.9 70.7,76.9 		"/>
		<line class="st2" x1="57" y1="49" x2="57" y2="72"/>
		<path class="st2" d="M63.6,58.5L63.6,58.5c2.7,0.5,5.3-1.2,5.8-3.9l1-5.3l-5.3,1c-2.7,0.5-4.4,3.1-3.9,5.8l0,0
			C61.5,57.3,62.4,58.3,63.6,58.5z"/>
		<line class="st2" x1="57.2" y1="62.1" x2="61.6" y2="57.8"/>
	</g>
</g>
</svg>
