<?xml version="1.0" encoding="utf-8"?>
<!-- Generator: Adobe Illustrator 20.1.0, SVG Export Plug-In . SVG Version: 6.00 Build 0)  -->
<svg version="1.0" id="Layer_1" xmlns="http://www.w3.org/2000/svg" xmlns:xlink="http://www.w3.org/1999/xlink" x="0px" y="0px"
	 viewBox="0 0 115 115" style="enable-background:new 0 0 115 115;" xml:space="preserve">
<style type="text/css">
	.st0{fill:#3A3A3A;}
	.st1{fill:none;stroke:#3A3A3A;stroke-width:3;stroke-linecap:round;stroke-linejoin:round;stroke-miterlimit:10;}
	.st2{fill:none;stroke:#3A3A3A;stroke-width:2;stroke-linecap:round;stroke-linejoin:round;stroke-miterlimit:10;}
	.st3{fill:none;stroke:#3A3A3A;stroke-linecap:round;stroke-linejoin:round;stroke-miterlimit:10;}
	.st4{fill:none;stroke:#FFFFFF;stroke-width:3;stroke-linecap:round;stroke-linejoin:round;stroke-miterlimit:10;}
	.st5{fill:none;stroke:#FFFFFF;stroke-width:2;stroke-linecap:round;stroke-linejoin:round;stroke-miterlimit:10;}
	.st6{fill:none;stroke:#FFFFFF;stroke-width:2;stroke-miterlimit:10;}
	.st7{fill:none;stroke:#FFFFFF;stroke-linecap:round;stroke-linejoin:round;stroke-miterlimit:10;}
	.st8{fill:#FFFFFF;}
</style>
<g>
	<circle class="st1" cx="57.2" cy="43.7" r="7.9"/>
	<line class="st1" x1="57.5" y1="52" x2="57.5" y2="104"/>
	<line class="st1" x1="47.3" y1="104.7" x2="67.7" y2="104.7"/>
	<path class="st2" d="M79.9,36.4c0,0,3.5,6.9,0,14.5"/>
	<path class="st2" d="M86.6,27.9c0,0,7.5,15,0,31.5"/>
	<path class="st2" d="M93.5,21.5c0,0,10.5,21.1,0,44.3"/>
	<path class="st2" d="M35.1,36.4c0,0-3.5,6.9,0,14.5"/>
	<path class="st2" d="M28.4,27.9c0,0-7.5,15,0,31.5"/>
	<path class="st2" d="M21.5,21.5c0,0-10.5,21.1,0,44.3"/>
</g>
</svg>
