<?xml version="1.0" encoding="utf-8"?>
<!-- Generator: Adobe Illustrator 20.1.0, SVG Export Plug-In . SVG Version: 6.00 Build 0)  -->
<svg version="1.0" id="Layer_1" xmlns="http://www.w3.org/2000/svg" xmlns:xlink="http://www.w3.org/1999/xlink" x="0px" y="0px"
	 viewBox="0 0 115 115" style="enable-background:new 0 0 115 115;" xml:space="preserve">
<style type="text/css">
	.st0{fill:#3A3A3A;}
	.st1{fill:none;stroke:#3A3A3A;stroke-width:3;stroke-linecap:round;stroke-linejoin:round;stroke-miterlimit:10;}
	.st2{fill:none;stroke:#3A3A3A;stroke-width:2;stroke-linecap:round;stroke-linejoin:round;stroke-miterlimit:10;}
	.st3{fill:none;stroke:#3A3A3A;stroke-linecap:round;stroke-linejoin:round;stroke-miterlimit:10;}
	.st4{fill:none;stroke:#FFFFFF;stroke-width:3;stroke-linecap:round;stroke-linejoin:round;stroke-miterlimit:10;}
	.st5{fill:none;stroke:#FFFFFF;stroke-width:2;stroke-linecap:round;stroke-linejoin:round;stroke-miterlimit:10;}
	.st6{fill:none;stroke:#FFFFFF;stroke-width:2;stroke-miterlimit:10;}
	.st7{fill:none;stroke:#FFFFFF;stroke-linecap:round;stroke-linejoin:round;stroke-miterlimit:10;}
	.st8{fill:#FFFFFF;}
</style>
<g>
	<polyline class="st2" points="80,61 83,61 83,66 80,66 	"/>
	<g>
		<path class="st2" d="M40.2,30.8V50h32.4c3.9,0,7,3.1,7,7v10.6"/>
		<polyline class="st2" points="58.2,48.6 51.1,30 18,30 18,50 		"/>
		<path class="st2" d="M57.2,59v8.7H41.5l-8.1,0c0.2-22.2-28.5-20.5-28.5,0.1"/>
		<circle class="st1" cx="19.5" cy="65.4" r="10"/>
		<circle class="st2" cx="68.2" cy="67.2" r="7.9"/>
		<polyline class="st2" points="46,50 46,45.2 50.3,42.7 		"/>
		<polygon class="st2" points="83,49.2 83,67.7 110,67.8 100,63.1 96.3,58.1 		"/>
	</g>
</g>
</svg>
