<?xml version="1.0" encoding="utf-8"?>
<!-- Generator: Adobe Illustrator 20.1.0, SVG Export Plug-In . SVG Version: 6.00 Build 0)  -->
<svg version="1.1" xmlns="http://www.w3.org/2000/svg" xmlns:xlink="http://www.w3.org/1999/xlink" x="0px" y="0px"
	 viewBox="0 0 416 402" style="enable-background:new 0 0 416 402;" xml:space="preserve">
<style type="text/css">
	.st0{opacity:0.72;}
	.st1{fill:#808285;}
	.st2{fill:#FFFFFF;}
	.st3{fill:url(#SVGID_1_);}
</style>
<g id="Background">
</g>
<g id="Objects">
	<g>
		<g class="st0">
			<path class="st1" d="M212.5,8.6c-103.8,0-188,84.2-188,188c0,35,0.7,51,17.4,79l-17.4,109L127,364.1
				c27.3,15.5,51.9,20.6,85.5,20.6c103.8,0,188-84.2,188-188S316.3,8.6,212.5,8.6z"/>
		</g>
		<g>
			<g>
				
					<image style="overflow:visible;opacity:0.75;" width="1692" height="1692" xlink:href="4E3A918ADF55DEE5.png"  transform="matrix(0.24 0 0 0.24 9.472 -6.365)">
				</image>
				<g>
					<g>
						<path class="st2" d="M212.5,8.6c-103.8,0-188,84.2-188,188c0,35,0.7,51,17.4,79l-17.4,109L127,364.1
							c27.3,15.5,51.9,20.6,85.5,20.6c103.8,0,188-84.2,188-188S316.3,8.6,212.5,8.6z"/>
						<linearGradient id="SVGID_1_" gradientUnits="userSpaceOnUse" x1="269.8303" y1="53.7705" x2="138.858" y2="380.221">
							<stop  offset="0" style="stop-color:#4BC25A"/>
							<stop  offset="1" style="stop-color:#368C41"/>
						</linearGradient>
						<path class="st3" d="M212.5,47.8c-82.2,0-148.9,66.6-148.9,148.9c0,27.7,7.6,53.6,20.7,75.8l-11.3,63.5l66.2-9.7
							c21.6,12.2,46.6,19.2,73.2,19.2c82.2,0,148.9-66.6,148.9-148.9S294.7,47.8,212.5,47.8z"/>
					</g>
				</g>
			</g>
			<path class="st2" d="M129.1,264.4c-2.5-6-3.8-11.7-3.8-17.2c0-1.2,0.1-2.2,0.3-2.7c0.3-0.9,2.5-2.6,6.5-5c4-2.4,9.1-5.2,15.1-8.4
				l9-4.9c0.6-0.3,1.7-1.1,3.2-2.2c1.6-1.1,3-2,4.3-2.6c1.3-0.6,2.4-0.8,3.6-0.8c2,0,4.7,1.8,8,5.5c3.3,3.7,6.5,7.4,9.7,11.1
				c3.2,3.7,5.7,5.6,7.5,5.6c0.8,0,1.7-0.2,2.8-0.6c1.1-0.4,2-0.8,2.6-1.1c0.7-0.3,1.6-0.9,2.9-1.6c1.3-0.7,2-1.2,2.4-1.4
				c11.2-6.2,20.9-13.4,29-21.5c8.1-8.1,15.3-17.8,21.5-29c0.2-0.3,0.7-1.1,1.4-2.4c0.7-1.2,1.3-2.2,1.6-2.9
				c0.3-0.7,0.7-1.6,1.1-2.6c0.4-1.1,0.6-2,0.6-2.8c0-1.5-1.2-3.4-3.5-5.7c-2.3-2.3-4.9-4.5-7.7-6.5c-2.8-2-5.3-4.3-7.7-6.7
				c-2.3-2.4-3.5-4.5-3.5-6.2c0-1.1,0.3-2.3,0.9-3.6c0.6-1.2,1.4-2.7,2.5-4.3c1.1-1.6,1.9-2.7,2.2-3.2c0.3-0.7,1.2-2.3,2.5-4.8
				c1.4-2.6,2.8-5.1,4.3-7.7c1.5-2.6,3-5.3,4.5-8.1c1.5-2.8,2.9-5.1,4.3-6.9c1.3-1.8,2.2-2.8,2.8-3.1c0.6-0.2,1.5-0.3,2.7-0.3
				c5.4,0,11.2,1.3,17.2,3.8c5.2,2.4,9.8,7.7,13.6,16.1c3.9,8.3,5.8,15.7,5.8,22.2c0,1.8-0.1,3.7-0.4,5.8c-0.3,2-0.6,3.8-0.8,5.2
				c-0.3,1.4-0.8,3.3-1.5,5.6c-0.7,2.3-1.3,4-1.7,5c-0.4,1-1.1,2.9-2.1,5.6c-1,2.7-1.6,4.4-1.9,5.1c-6.8,18.6-19.1,36.8-36.9,54.5
				c-17.8,17.7-35.9,30-54.5,36.8c-0.7,0.2-2.4,0.8-5.1,1.9c-2.7,1-4.6,1.7-5.6,2.1c-1,0.4-2.7,1-5,1.7c-2.3,0.7-4.2,1.2-5.6,1.5
				c-1.4,0.3-3.1,0.6-5.2,0.8c-2,0.3-4,0.4-5.8,0.4c-6.5,0-13.9-1.9-22.2-5.8C136.9,274.2,131.5,269.6,129.1,264.4L129.1,264.4z"/>
		</g>
	</g>
</g>
</svg>
