<?xml version="1.0" encoding="utf-8"?>
<!-- Generator: Adobe Illustrator 20.1.0, SVG Export Plug-In . SVG Version: 6.00 Build 0)  -->
<svg version="1.1" id="Layer_1" xmlns="http://www.w3.org/2000/svg" xmlns:xlink="http://www.w3.org/1999/xlink" x="0px" y="0px"
	 viewBox="0 0 58.5 57.7" style="enable-background:new 0 0 58.5 57.7;" xml:space="preserve">
<style type="text/css">
	.st0{fill:#8CC1DD;}
</style>
<g id="group-56" transform="translate(2232 -2023.326)">
	<g id="circular-clock-with-on-clock-hand" transform="translate(340.826 511.326)">
		<path id="path" class="st0" d="M-2543.7,1514.3c-14.6,0-26.5,11.9-26.5,26.5s11.9,26.5,26.5,26.5s26.5-11.9,26.5-26.5
			C-2517.3,1526.2-2529.1,1514.4-2543.7,1514.3z M-2543.7,1565c-13.3,0-24.1-10.8-24.1-24.1s10.8-24.1,24.1-24.1
			s24.1,10.8,24.1,24.1c0,0,0,0,0,0C-2519.6,1554.2-2530.4,1565-2543.7,1565z"/>
		<path id="path-2" class="st0" d="M-2543.7,1524.2c-0.7,0-1.2,0.5-1.2,1.2c0,0,0,0,0,0v15.5c0,0.7,0.5,1.2,1.2,1.2s1.2-0.5,1.2-1.2
			v-15.5C-2542.6,1524.7-2543.1,1524.2-2543.7,1524.2C-2543.7,1524.2-2543.7,1524.2-2543.7,1524.2z"/>
	</g>
</g>
</svg>
