<?xml version="1.0" encoding="utf-8"?>
<!-- Generator: Adobe Illustrator 20.1.0, SVG Export Plug-In . SVG Version: 6.00 Build 0)  -->
<svg version="1.1" id="Layer_1" xmlns="http://www.w3.org/2000/svg" xmlns:xlink="http://www.w3.org/1999/xlink" x="0px" y="0px"
	 viewBox="0 0 68 60.8" style="enable-background:new 0 0 68 60.8;" xml:space="preserve">
<style type="text/css">
	.st0{fill:#8CC1DD;}
</style>
<g id="calendar" transform="translate(54.505 507.5)">
	<path id="path" class="st0" d="M-1.4-495.2c-1.5-0.8-10.7-5.8-15.8-9c-1.8-1.9-4.8-2-6.7-0.2c-0.1,0.1-0.2,0.2-0.2,0.2
		c-5.1,3.2-14.3,8.2-15.8,9h-9.3v46.6h57v-46.6H-1.4z M-18.5-502.8C-18.5-502.8-18.5-502.8-18.5-502.8c0.3,0.3,0.5,0.7,0.6,1.2
		c0,0,0,0.1,0,0.1c0,0.2,0.1,0.4,0.1,0.6c-0.1,1.6-1.4,2.8-3,2.7c-1.5-0.1-2.7-1.3-2.7-2.7c0-0.2,0-0.4,0.1-0.6c0,0,0-0.1,0-0.1
		c0.1-0.4,0.3-0.8,0.6-1.2c0,0,0,0,0,0c1-1.2,2.8-1.3,4-0.3C-18.7-503-18.6-502.9-18.5-502.8L-18.5-502.8z M-25.4-501.1
		c0,0.1,0,0.2,0,0.2c0,2.6,2.1,4.8,4.8,4.8s4.8-2.1,4.8-4.8c0-0.1,0-0.2,0-0.2c3.4,2,7.6,4.4,10.5,5.9h-30.5
		C-33-496.8-28.8-499.1-25.4-501.1z M-39.7-493.3H6v4.8h-53.2v-4.8H-39.7z M-47.3-450.5v-36.1H6v36.1H-47.3z"/>
	<circle id="ellipse" class="st0" cx="-27.3" cy="-479" r="1"/>
	<circle id="ellipse-2" class="st0" cx="-20.7" cy="-479" r="1"/>
	<circle id="ellipse-3" class="st0" cx="-14" cy="-479" r="1"/>
	<circle id="ellipse-4" class="st0" cx="-7.3" cy="-479" r="1"/>
	<circle id="ellipse-5" class="st0" cx="-0.7" cy="-479" r="1"/>
	<circle id="ellipse-6" class="st0" cx="-40.6" cy="-471.4" r="1"/>
	<circle id="ellipse-7" class="st0" cx="-34" cy="-471.4" r="1"/>
	<circle id="ellipse-8" class="st0" cx="-27.3" cy="-471.4" r="1"/>
	<circle id="ellipse-9" class="st0" cx="-20.7" cy="-471.4" r="1"/>
	<circle id="ellipse-10" class="st0" cx="-14" cy="-471.4" r="1"/>
	<circle id="ellipse-11" class="st0" cx="-7.3" cy="-471.4" r="1"/>
	<circle id="ellipse-12" class="st0" cx="-0.7" cy="-471.4" r="1"/>
	<circle id="ellipse-13" class="st0" cx="-40.6" cy="-464.8" r="1"/>
	<circle id="ellipse-14" class="st0" cx="-34" cy="-464.8" r="1"/>
	<circle id="ellipse-15" class="st0" cx="-27.3" cy="-464.8" r="1"/>
	<circle id="ellipse-16" class="st0" cx="-20.7" cy="-464.8" r="1"/>
	<circle id="ellipse-17" class="st0" cx="-14" cy="-464.8" r="1"/>
	<circle id="ellipse-18" class="st0" cx="-7.3" cy="-464.8" r="1"/>
	<circle id="ellipse-19" class="st0" cx="-0.7" cy="-464.8" r="1"/>
	<circle id="ellipse-20" class="st0" cx="-40.6" cy="-457.2" r="1"/>
	<circle id="ellipse-21" class="st0" cx="-34" cy="-457.2" r="1"/>
	<circle id="ellipse-22" class="st0" cx="-27.3" cy="-457.2" r="1"/>
	<circle id="ellipse-23" class="st0" cx="-20.7" cy="-457.2" r="1"/>
	<circle id="ellipse-24" class="st0" cx="-14" cy="-457.2" r="1"/>
</g>
</svg>
