<?xml version="1.0" encoding="utf-8"?>
<!-- Generator: Adobe Illustrator 20.1.0, SVG Export Plug-In . SVG Version: 6.00 Build 0)  -->
<svg version="1.0" id="Layer_1" xmlns="http://www.w3.org/2000/svg" xmlns:xlink="http://www.w3.org/1999/xlink" x="0px" y="0px"
	 viewBox="0 0 226.8 226.8" style="enable-background:new 0 0 226.8 226.8;" xml:space="preserve">
<style type="text/css">
	.st0{opacity:0.71;}
	.st1{fill:#6BCE91;}
	.st2{fill-rule:evenodd;clip-rule:evenodd;fill:#6BCE91;}
	.st3{fill:#2C3E50;}
	.st4{fill:#183044;}
	.st5{fill:#41C470;}
	.st6{fill:#454C53;}
	.st7{fill:#85C9D4;}
	.st8{fill:#009192;}
	.st9{fill:#E5BC00;}
	.st10{fill:#FFFFFF;}
	.st11{fill:#2C3E50;stroke:#ECF0F1;stroke-width:0.5;stroke-miterlimit:10;}
	.st12{fill:#2C3E50;stroke:#6BCE91;stroke-miterlimit:10;}
	.st13{fill:#6BCE91;stroke:#6BCE91;stroke-miterlimit:10;}
	.st14{fill:none;stroke:#6BCE91;stroke-miterlimit:10;}
	.st15{fill:#9B9B9B;stroke:#333333;stroke-width:0.5;stroke-miterlimit:10;}
	.st16{fill:#333333;}
	.st17{fill:#FFFFFF;stroke:#333333;stroke-width:0.5;stroke-miterlimit:10;}
	.st18{fill:#CC4B4C;stroke:#333333;stroke-width:0.5;stroke-miterlimit:10;}
	.st19{fill:none;stroke:#727272;stroke-width:0.5;stroke-miterlimit:10;}
	.st20{fill:#E9E9E0;}
	.st21{fill:#D9D7CA;}
	.st22{fill:#CC4B4C;}
	.st23{fill:#4D4D4D;}
	.st24{fill:#8CC63F;}
	.st25{fill:#666666;}
	.st26{fill:#FF1D23;}
	.st27{fill:none;stroke:#2C3E50;stroke-width:0.5;stroke-miterlimit:10;}
	.st28{fill:#ECF0F1;}
	.st29{fill:#70C1B3;}
	.st30{fill:#2980B9;}
	.st31{fill:#6A6A6A;}
	.st32{fill:#FFB857;}
	.st33{fill:#E74C3C;}
</style>
<g class="st0">
	<g>
		<g>
			<path class="st1" d="M206.2,104.4l-39.7-6.2c-0.1,0-0.2-0.1-0.3-0.2c-0.1-0.1-0.1-0.2-0.1-0.3l10.4-60.1c0-0.2,0.2-0.3,0.4-0.4
				c0.2,0,0.4,0.1,0.5,0.3l29.3,66.3c0.1,0.2,0,0.3-0.1,0.5C206.5,104.4,206.4,104.4,206.2,104.4
				C206.2,104.4,206.2,104.4,206.2,104.4z M167.1,97.4l38.4,6l-28.4-64.1L167.1,97.4z"/>
		</g>
		<g>
			<path class="st1" d="M166.2,98.1L141,66.6c-0.2-0.2-0.1-0.5,0.1-0.6l35.6-28.6c0.1-0.1,0.4-0.1,0.5,0c0.2,0.1,0.2,0.3,0.2,0.5
				L167,97.8c0,0.2-0.2,0.3-0.3,0.4c0,0-0.1,0-0.1,0C166.4,98.2,166.3,98.2,166.2,98.1z M142,66.4l24.3,30.3l10-57.9L142,66.4z"/>
		</g>
		<g>
			<path class="st1" d="M133.9,119.7c-0.2-0.1-0.2-0.3-0.2-0.4l7.1-53c0-0.2,0.2-0.3,0.3-0.4c0.2,0,0.4,0,0.5,0.2l25.2,31.4
				c0.1,0.1,0.1,0.2,0.1,0.4c0,0.1-0.1,0.2-0.2,0.3l-32.4,21.6c-0.1,0.1-0.2,0.1-0.3,0.1C134.1,119.8,134,119.8,133.9,119.7z
				 M141.6,67.4l-6.8,51l31.1-20.8L141.6,67.4z"/>
		</g>
		<g>
			<path class="st1" d="M143.9,131.4l-10.1-11.7c-0.1-0.1-0.1-0.2-0.1-0.4c0-0.1,0.1-0.2,0.2-0.3l32.4-21.6c0.2-0.1,0.4-0.1,0.6,0.1
				c0.2,0.2,0.2,0.4,0.1,0.6l-22.3,33.3c-0.1,0.1-0.2,0.2-0.4,0.2c0,0,0,0,0,0C144.1,131.5,144,131.5,143.9,131.4z M134.9,119.4
				l9.3,10.9l20.7-30.9L134.9,119.4z"/>
		</g>
		<g>
			<path class="st1" d="M44.9,73.1c-0.2-0.1-0.3-0.3-0.2-0.5l4.2-41.3c0-0.2,0.1-0.3,0.3-0.4c0.2-0.1,0.3,0,0.5,0.1l21.8,17.2
				c0.1,0.1,0.2,0.2,0.2,0.3c0,0.1,0,0.3-0.1,0.4L45.4,73c-0.1,0.1-0.2,0.1-0.3,0.1C45,73.1,44.9,73.1,44.9,73.1z M49.7,32.2
				l-4,39.3l24.8-23L49.7,32.2z"/>
		</g>
		<g>
			<path class="st1" d="M107.6,65.6l-16-15.9c-0.1-0.1-0.2-0.3-0.1-0.4c0-0.2,0.1-0.3,0.3-0.3l30.5-10.8c0.2-0.1,0.4,0,0.5,0.1
				c0.1,0.1,0.1,0.3,0.1,0.5l-14.5,26.7c-0.1,0.1-0.2,0.2-0.3,0.2c0,0,0,0-0.1,0C107.8,65.7,107.7,65.7,107.6,65.6z M92.7,49.6
				l15.1,15l13.7-25.1L92.7,49.6z"/>
		</g>
		<g>
			<path class="st1" d="M176.6,38c-0.1-0.1-0.1-0.3,0-0.5l2.8-4.6c0.1-0.1,0.2-0.2,0.3-0.2c0.1,0,0.3,0,0.4,0.1
				c1.4,1.1,2.7,2.3,3.9,3.6c0.1,0.1,0.1,0.3,0.1,0.5c-0.1,0.2-0.2,0.3-0.4,0.3l-6.7,1.1c0,0-0.1,0-0.1,0
				C176.8,38.2,176.7,38.1,176.6,38z M179.9,33.7l-2,3.4l4.9-0.8C181.8,35.4,180.9,34.5,179.9,33.7z"/>
		</g>
		<g>
			<path class="st1" d="M45,73.1l-31.7-3.5c-0.2,0-0.3-0.1-0.4-0.3c-0.1-0.2,0-0.3,0.1-0.5c0.8-0.8,1.7-1.5,2.7-2
				c0-1.3,0.1-2.5,0.4-3.7c0.1-0.6,0.3-1.3,0.5-1.9c0-0.1,0.1-0.1,0.1-0.2L49,31c0.1-0.1,0.3-0.2,0.5-0.1c0.2,0.1,0.3,0.3,0.2,0.5
				l-4.2,41.3c0,0.1-0.1,0.2-0.2,0.3C45.3,73.1,45.2,73.1,45,73.1C45.1,73.1,45,73.1,45,73.1z M17.5,61.5c-0.2,0.6-0.4,1.2-0.5,1.7
				c-0.3,1.2-0.4,2.5-0.4,3.8c0,0.2-0.1,0.3-0.2,0.4c-0.7,0.4-1.4,0.8-2,1.3l30.2,3.3l4.1-39.7L17.5,61.5z"/>
		</g>
		<g>
			<path class="st1" d="M144,151.8c-0.1-0.1-0.1-0.2-0.1-0.3l-0.1-20.4c0-0.2,0.1-0.3,0.2-0.4c0.1-0.1,0.3-0.1,0.5,0l18.4,10.2
				c0.2,0.1,0.3,0.4,0.2,0.6c-1.5,3.7-3.6,7.1-6.1,10.1c-0.1,0.1-0.2,0.2-0.3,0.2l-12.2,0.3c0,0,0,0,0,0
				C144.2,151.9,144.1,151.9,144,151.8z M162,141.4l-17.3-9.6l0.1,19.2l11.5-0.3C158.7,148,160.6,144.8,162,141.4z"/>
		</g>
		<g>
			<path class="st1" d="M141.2,66.8c-0.1,0-0.2-0.1-0.3-0.2l-7.4-12c-0.1-0.1-0.1-0.3,0-0.4c0-0.1,0.1-0.2,0.3-0.3l43.1-16.6
				c0.2-0.1,0.4,0,0.6,0.2c0.1,0.2,0.1,0.4-0.1,0.6l-35.6,28.6C141.5,66.7,141.4,66.8,141.2,66.8C141.3,66.8,141.3,66.8,141.2,66.8z
				 M134.6,54.6l6.9,11.1l33-26.5L134.6,54.6z"/>
		</g>
		<g>
			<path class="st1" d="M141.3,66.8l-33.4-1.1c-0.2,0-0.4-0.2-0.4-0.4c0-0.2,0.1-0.4,0.3-0.5l26-10.9c0.2-0.1,0.4,0,0.6,0.2l7.4,12
				c0.1,0.1,0.1,0.3,0,0.5C141.6,66.7,141.5,66.8,141.3,66.8C141.3,66.8,141.3,66.8,141.3,66.8z M110,64.9l30.5,1l-6.8-10.9
				L110,64.9z"/>
		</g>
		<g>
			<path class="st1" d="M133.5,54.6l-11.5-15.8c-0.1-0.1-0.1-0.2-0.1-0.4c0-0.1,0.1-0.2,0.2-0.3l10.4-5.5c0.1-0.1,0.3-0.1,0.4,0
				c0.1,0.1,0.2,0.2,0.2,0.4l1.1,21.2c0,0.2-0.1,0.4-0.3,0.5c-0.1,0-0.1,0-0.2,0C133.8,54.8,133.6,54.7,133.5,54.6z M123.1,38.7
				l10.3,14.1l-0.9-19L123.1,38.7z"/>
		</g>
		<g>
			<path class="st1" d="M107.6,65.6c-0.1-0.1-0.2-0.4-0.1-0.5L122,38.4c0.1-0.1,0.2-0.2,0.4-0.2c0.2,0,0.3,0.1,0.4,0.2l11.5,15.8
				c0.1,0.1,0.1,0.3,0.1,0.4c0,0.1-0.1,0.2-0.3,0.3l-26,10.9c-0.1,0-0.1,0-0.2,0C107.8,65.7,107.7,65.7,107.6,65.6z M122.5,39.4
				l-13.6,24.9l24.3-10.2L122.5,39.4z"/>
		</g>
		<g>
			<path class="st1" d="M133,163.9l-4.1-9c-0.1-0.1-0.1-0.3,0-0.4c0.1-0.1,0.2-0.2,0.3-0.2l15.1-3.3c0.2,0,0.4,0,0.5,0.2
				c0.1,0.2,0.1,0.4,0,0.5l-8.8,11.9c-0.1,0.1-0.2,0.2-0.3,0.2c-0.7,0.1-1.4,0.3-2.2,0.3c0,0,0,0-0.1,0
				C133.2,164.2,133,164.1,133,163.9z M143.2,152.2l-13.4,2.9l3.8,8.2c0.5-0.1,1.1-0.2,1.6-0.3L143.2,152.2z"/>
		</g>
		<g>
			<path class="st1" d="M9.7,82.5c-0.1-0.1-0.2-0.2-0.2-0.3L9.3,79c0-0.1,0-0.2,0.1-0.3c-0.1-1.2,0-2.5,0.2-3.7
				c0.5-2.3,1.7-4.5,3.4-6.1c0.1-0.1,0.2-0.1,0.4-0.1l31.7,3.5c0.2,0,0.4,0.2,0.4,0.4c0,0.2-0.1,0.4-0.3,0.5L10,82.6
				c0,0-0.1,0-0.1,0C9.8,82.6,9.7,82.5,9.7,82.5z M13.6,69.7c-1.5,1.5-2.5,3.5-3,5.5c-0.3,1.2-0.3,2.4-0.2,3.6c0,0.1,0,0.2-0.1,0.3
				l0.1,2.4l32.3-8.7L13.6,69.7z"/>
		</g>
		<g>
			<path class="st1" d="M6.9,84.8c-0.2-0.1-0.3-0.3-0.2-0.5l0.5-3.8c0-0.1,0.1-0.2,0.1-0.3C8,79.6,8.7,79,9.5,78.6
				c0.1-0.1,0.3-0.1,0.4,0c0.1,0.1,0.2,0.2,0.2,0.4l0.2,3.1c0,0.1-0.1,0.3-0.2,0.4l-2.8,2.3c-0.1,0.1-0.2,0.1-0.3,0.1
				C7.1,84.8,7,84.8,6.9,84.8z M9.3,79.8c-0.4,0.3-0.9,0.6-1.3,1l-0.3,2.6l1.7-1.4L9.3,79.8z"/>
		</g>
		<g>
			<path class="st1" d="M206.3,137.5c-0.2-0.1-0.3-0.2-0.3-0.4l-0.2-33.1c0-0.1,0.1-0.3,0.2-0.4c0.1-0.1,0.3-0.1,0.4-0.1l17.6,5.1
				c0.2,0.1,0.3,0.2,0.3,0.4c0.3,3.5,0.1,7-0.7,10.5c0,0.2-0.1,0.3-0.1,0.5l-0.1,0.3c0,0.1-0.1,0.2-0.1,0.2l-16.6,16.9
				c-0.1,0.1-0.2,0.1-0.3,0.1C206.4,137.5,206.3,137.5,206.3,137.5z M222.6,119.8c0-0.2,0.1-0.3,0.1-0.5c0.7-3.2,1-6.6,0.7-9.9
				l-16.7-4.8l0.2,31.4l15.7-16L222.6,119.8z"/>
		</g>
		<g>
			<path class="st1" d="M6.9,84.8l-1.7-1.2C5,83.4,4.9,83.2,5,83c0.6-1,1.4-1.9,2.3-2.8c0.1-0.1,0.3-0.2,0.5-0.1
				c0.2,0.1,0.3,0.3,0.2,0.5l-0.5,3.8c0,0.2-0.1,0.3-0.3,0.4c-0.1,0-0.1,0-0.2,0C7,84.8,7,84.8,6.9,84.8z M6.1,83.1l0.7,0.5L7,81.8
				C6.7,82.2,6.3,82.6,6.1,83.1z"/>
		</g>
		<g>
			<path class="st1" d="M133.6,54.7c-0.1-0.1-0.2-0.3-0.1-0.5l12.6-29.7c0-0.1,0.1-0.2,0.2-0.2c0.1,0,0.2,0,0.3,0l30.5,13.1
				c0.2,0.1,0.3,0.2,0.3,0.4c0,0.2-0.1,0.4-0.3,0.4l-43.1,16.6c-0.1,0-0.1,0-0.2,0C133.8,54.8,133.7,54.7,133.6,54.7z M146.7,25.2
				l-12,28.3l41-15.8L146.7,25.2z"/>
		</g>
		<g>
			<path class="st1" d="M133.8,54.8c-0.2,0-0.4-0.2-0.4-0.4l-1.1-21.2c0-0.2,0.1-0.3,0.2-0.4l13.7-8.5c0.2-0.1,0.4-0.1,0.5,0
				c0.1,0.1,0.2,0.3,0.1,0.5l-12.6,29.7C134.2,54.7,134.1,54.8,133.8,54.8C133.9,54.8,133.8,54.8,133.8,54.8z M133.3,33.4l0.9,19
				l11.3-26.5L133.3,33.4z"/>
		</g>
		<g>
			<path class="st1" d="M144.2,151.9l-20.9-6.9c-0.2-0.1-0.3-0.2-0.3-0.4c0-0.2,0.1-0.3,0.2-0.4l20.8-13.5c0.1-0.1,0.3-0.1,0.5,0
				c0.1,0.1,0.2,0.2,0.2,0.4l0.1,20.4c0,0.1-0.1,0.3-0.2,0.4c-0.1,0.1-0.2,0.1-0.3,0.1C144.3,151.9,144.2,151.9,144.2,151.9z
				 M124.5,144.4l19.4,6.4l-0.1-19L124.5,144.4z"/>
		</g>
		<g>
			<path class="st1" d="M128.8,155l-5.8-10.2c-0.1-0.2-0.1-0.4,0-0.5c0.1-0.1,0.3-0.2,0.5-0.1l20.9,6.9c0.2,0.1,0.3,0.3,0.3,0.5
				c0,0.2-0.2,0.4-0.4,0.4l-15.1,3.3c0,0-0.1,0-0.1,0C129.1,155.2,128.9,155.1,128.8,155z M124.4,145.4l5,8.9l13.1-2.9L124.4,145.4z
				"/>
		</g>
		<g>
			<path class="st1" d="M123.2,144.9c-0.2-0.1-0.2-0.3-0.1-0.5l10.7-25.2c0.1-0.1,0.2-0.2,0.4-0.3c0.2,0,0.3,0,0.4,0.2l10.1,11.7
				c0.1,0.1,0.1,0.2,0.1,0.4c0,0.1-0.1,0.2-0.2,0.3L123.7,145c-0.1,0.1-0.2,0.1-0.3,0.1C123.3,145,123.2,145,123.2,144.9z
				 M134.3,120.2l-9.9,23.2l19.1-12.4L134.3,120.2z"/>
		</g>
		<g>
			<path class="st1" d="M123.3,145l-40.3-8.9c-0.2,0-0.3-0.2-0.4-0.4c0-0.2,0.1-0.4,0.3-0.5l51-16.3c0.2-0.1,0.4,0,0.5,0.1
				c0.1,0.1,0.2,0.3,0.1,0.5l-10.7,25.2C123.8,144.9,123.6,145,123.3,145C123.4,145,123.4,145,123.3,145z M84.9,135.6l38.3,8.5
				l10.2-24L84.9,135.6z"/>
		</g>
		<g>
			<path class="st1" d="M205.9,104.1l-29.3-66.3c-0.1-0.2,0-0.4,0.1-0.5c0.1-0.1,0.4-0.2,0.5-0.1l24.4,14.1c0.1,0,0.1,0.1,0.1,0.1
				c3.5,4.5,5.8,9.9,6.7,15.5c8,7.1,12.4,17.6,11.7,28.2c0.6,1.1,1.1,2.2,1.6,3.4c0.1,0.1,0,0.2,0,0.4c-0.1,0.1-0.1,0.2-0.3,0.2
				l-15.1,5.2c-0.1,0-0.1,0-0.2,0C206.1,104.4,205.9,104.3,205.9,104.1z M219.3,95.5c0-0.1-0.1-0.2-0.1-0.2
				c0.7-10.4-3.6-20.8-11.5-27.7c-0.1-0.1-0.1-0.2-0.1-0.3c-0.9-5.5-3.1-10.7-6.5-15.1l-23.1-13.4l28.6,64.6l14.2-4.9
				C220.3,97.4,219.8,96.5,219.3,95.5z"/>
		</g>
		<g>
			<path class="st1" d="M223.7,109.5l-17.6-5.1c-0.2-0.1-0.3-0.2-0.3-0.4c0-0.2,0.1-0.4,0.3-0.4l15.1-5.2c0.2-0.1,0.5,0,0.6,0.3
				c1.4,3.3,2.3,6.8,2.6,10.4c0,0.1,0,0.3-0.2,0.4c-0.1,0.1-0.2,0.1-0.3,0.1C223.8,109.5,223.8,109.5,223.7,109.5z M207.8,103.9
				l15.6,4.5c-0.3-3.1-1.1-6.2-2.3-9.1L207.8,103.9z"/>
		</g>
		<g>
			<path class="st1" d="M43.1,170.6c-0.2-0.1-0.3-0.4-0.2-0.6l18.9-38.9c0.1-0.2,0.3-0.3,0.5-0.2l12.8,3.4c0.2,0,0.3,0.2,0.3,0.3
				c0,0.2,0,0.3-0.1,0.4l-31.7,35.5c-0.1,0.1-0.2,0.2-0.3,0.2C43.2,170.7,43.2,170.7,43.1,170.6z M62.5,131.9l-17.3,35.6l29-32.5
				L62.5,131.9z"/>
		</g>
		<g>
			<path class="st1" d="M43.2,170.7c-0.2-0.1-0.3-0.3-0.3-0.5l4.5-36.1c0-0.2,0.2-0.4,0.4-0.4l14.4-2.9c0.2,0,0.3,0,0.4,0.2
				c0.1,0.1,0.1,0.3,0.1,0.5l-18.9,38.9c-0.1,0.2-0.2,0.3-0.4,0.3C43.3,170.7,43.2,170.7,43.2,170.7z M48.3,134.6l-4.1,33L61.5,132
				L48.3,134.6z"/>
		</g>
		<g>
			<path class="st1" d="M132.7,33.6c-0.1,0-0.2-0.1-0.3-0.2L121,12.9c-0.1-0.1-0.1-0.3,0-0.4c0.1-0.1,0.2-0.2,0.3-0.3
				c2.9-0.6,5.9-0.6,8.8,0c0.2,0,0.3,0.1,0.5,0.1l0.2,0.1c0.1,0,0.1,0,0.2,0.1l15.7,11.8c0.1,0.1,0.2,0.2,0.2,0.4
				c0,0.1-0.1,0.3-0.2,0.4l-13.7,8.5c-0.1,0-0.2,0.1-0.2,0.1C132.8,33.6,132.8,33.6,132.7,33.6z M130.6,13.3l-0.1,0
				c-0.2,0-0.3-0.1-0.5-0.1c-2.6-0.6-5.2-0.6-7.8-0.1L133,32.5l12.7-7.9L130.6,13.3z"/>
		</g>
		<g>
			<path class="st1" d="M120.6,163.6c-0.2,0-0.4-0.1-0.6-0.1l-0.2-0.1c-0.2,0-0.3-0.2-0.3-0.3c0-0.2,0-0.3,0.1-0.4l9.3-8.2
				c0.1-0.1,0.3-0.1,0.4-0.1c0.1,0,0.3,0.1,0.3,0.3l4.1,9c0.1,0.1,0.1,0.3,0,0.4c-0.1,0.1-0.2,0.2-0.3,0.2c-1.8,0.2-3.7,0.3-5.5,0.3
				l0,0C125.5,164.4,123,164.2,120.6,163.6z M129.1,155.5l-8.2,7.2c3.9,0.9,7.9,1.1,11.8,0.6L129.1,155.5z"/>
		</g>
		<g>
			<path class="st1" d="M119.8,163.4c-3-0.7-5.9-1.8-8.5-3.2c-0.1-0.1-0.2-0.2-0.2-0.3c0-0.1,0-0.3,0.1-0.4l11.9-15.2
				c0.1-0.1,0.2-0.2,0.4-0.2c0.2,0,0.3,0.1,0.4,0.2l5.8,10.2c0.1,0.2,0.1,0.4-0.1,0.6l-9.3,8.2C120.1,163.4,120,163.4,119.8,163.4
				C119.9,163.4,119.9,163.4,119.8,163.4z M123.4,145.4l-11.2,14.3c2.4,1.2,5,2.2,7.6,2.8l8.9-7.8L123.4,145.4z"/>
		</g>
		<g>
			<path class="st1" d="M83.3,160.8c-0.1-0.1-0.2-0.2-0.2-0.4l-0.4-24.8c0-0.1,0.1-0.3,0.2-0.4c0.1-0.1,0.2-0.1,0.4-0.1l40.3,8.9
				c0.2,0,0.3,0.1,0.3,0.3c0.1,0.1,0,0.3-0.1,0.4l-11.9,15.2c-0.1,0.2-0.4,0.2-0.6,0.1c-5-2.7-9.4-6.5-12.8-11.1
				c-3,5.8-8.4,10.1-14.8,11.8c0,0-0.1,0-0.1,0C83.5,160.9,83.4,160.9,83.3,160.8z M98.8,147.9c3.2,4.7,7.6,8.6,12.6,11.3l11.3-14.4
				l-39-8.6l0.4,23.6c6.1-1.8,11.2-6.1,14-11.8c0.1-0.1,0.2-0.2,0.4-0.3c0,0,0,0,0,0C98.6,147.7,98.7,147.8,98.8,147.9z"/>
		</g>
		<g>
			<path class="st1" d="M79.4,164.2c-0.2,0-0.3-0.2-0.4-0.4l-4.5-29c0-0.1,0-0.3,0.1-0.4c0.1-0.1,0.2-0.1,0.4-0.1l8.1,0.9
				c0.2,0,0.4,0.2,0.4,0.4l0.5,24.8c0,0.2-0.1,0.4-0.3,0.4c-0.8,0.2-1.6,0.4-2.4,0.5c-0.4,0.8-0.8,1.7-1.4,2.6
				C79.8,164.1,79.6,164.2,79.4,164.2C79.5,164.2,79.4,164.2,79.4,164.2z M82.7,136.1l-7.1-0.8l4.2,27.1c0.3-0.5,0.6-1.1,0.8-1.6
				c0.1-0.1,0.2-0.2,0.4-0.3c0.7-0.1,1.5-0.3,2.2-0.4L82.7,136.1z"/>
		</g>
		<g>
			<path class="st1" d="M49.7,80.3l-5-7.4c-0.1-0.2-0.1-0.4,0.1-0.6l26-24.1c0.2-0.2,0.4-0.2,0.6,0c0.2,0.1,0.2,0.4,0.1,0.6
				L50.4,80.3c-0.1,0.1-0.2,0.2-0.4,0.2c0,0,0,0,0,0C49.9,80.5,49.7,80.4,49.7,80.3z M45.7,72.7l4.4,6.5l18.5-27.8L45.7,72.7z"/>
		</g>
		<g>
			<path class="st1" d="M28.4,170.4c-2.3-1.1-4.3-2.5-6.2-4.3c-0.2-0.2-0.2-0.4,0-0.6l25.4-31.6c0.1-0.2,0.3-0.2,0.5-0.1
				c0.2,0.1,0.3,0.3,0.3,0.5l-4.5,36.1c0,0.2-0.2,0.4-0.5,0.4l-14.8-0.3l0,0C28.5,170.5,28.4,170.4,28.4,170.4z M47.2,135.7
				l-24.1,30.1c1.7,1.5,3.5,2.8,5.5,3.8l14.3,0.3L47.2,135.7z"/>
		</g>
		<g>
			<path class="st1" d="M22.2,166.2c-0.5-0.5-1-1-1.5-1.6c-0.1-0.1-0.1-0.3-0.1-0.4L33,125.1c0-0.1,0.1-0.2,0.3-0.3
				c0.1,0,0.3,0,0.4,0l14.4,8.9c0.1,0.1,0.2,0.2,0.2,0.3c0,0.1,0,0.3-0.1,0.4l-25.4,31.6c-0.1,0.1-0.2,0.2-0.3,0.2c0,0,0,0,0,0
				C22.4,166.3,22.3,166.2,22.2,166.2z M33.7,126l-12.2,38.2c0.3,0.3,0.6,0.6,0.9,1l24.7-30.9L33.7,126z"/>
		</g>
		<g>
			<path class="st1" d="M20.7,164.6c-3.9-4.5-5.9-10.1-5.8-16c-0.2-0.1-0.3-0.2-0.5-0.3c-0.4-0.3-0.8-0.6-1.3-0.8
				c-0.1-0.1-0.1-0.2-0.2-0.3l-5.9-22.9c0-0.1,0-0.3,0.1-0.4c0.1-0.1,0.2-0.2,0.4-0.2l25.9,1.1c0.1,0,0.3,0.1,0.4,0.2
				c0.1,0.1,0.1,0.3,0.1,0.4l-12.4,39.1c0,0.2-0.2,0.3-0.3,0.3c0,0-0.1,0-0.1,0C20.9,164.8,20.8,164.7,20.7,164.6z M8.1,124.6
				l5.7,22.2c0.3,0.2,0.7,0.5,1.1,0.7c0.2,0.1,0.4,0.2,0.6,0.3l0.1,0.1c0.1,0.1,0.2,0.2,0.2,0.4c-0.2,5.5,1.6,10.8,5,15l12-37.7
				L8.1,124.6z"/>
		</g>
		<g>
			<path class="st1" d="M13.2,147.4c-5-3.6-8.3-8.8-9.4-14.9c0-0.1,0-0.2,0-0.3l3.4-8.4c0.1-0.2,0.2-0.3,0.5-0.3
				c0.2,0,0.4,0.2,0.4,0.3l5.9,22.9c0,0.2,0,0.4-0.2,0.5c-0.1,0.1-0.2,0.1-0.3,0.1C13.3,147.5,13.2,147.5,13.2,147.4z M4.7,132.5
				c1,5.3,3.8,10,8,13.4l-5.2-20.3L4.7,132.5z"/>
		</g>
		<g>
			<path class="st1" d="M133.8,119.6l-22.2-38.8c-0.1-0.1-0.1-0.2,0-0.4c0-0.1,0.1-0.2,0.2-0.3l29.3-14.2c0.2-0.1,0.3-0.1,0.5,0
				c0.1,0.1,0.2,0.3,0.2,0.4l-7.1,53c0,0.2-0.2,0.3-0.4,0.4c0,0-0.1,0-0.1,0C134,119.8,133.9,119.7,133.8,119.6z M112.7,80.7
				l21.3,37.2l6.8-50.9L112.7,80.7z"/>
		</g>
		<g>
			<path class="st1" d="M111.8,81c-0.1-0.1-0.2-0.2-0.2-0.3l-4.1-15.3c0-0.1,0-0.3,0.1-0.4c0.1-0.1,0.2-0.2,0.4-0.2l33.4,1.1
				c0.2,0,0.4,0.2,0.4,0.4c0,0.2-0.1,0.4-0.2,0.5L112.2,81c-0.1,0-0.1,0-0.2,0C111.9,81,111.9,81,111.8,81z M108.5,65.7l3.8,14.2
				l27.1-13.2L108.5,65.7z"/>
		</g>
		<g>
			<path class="st1" d="M134,119.8L80.3,90.7c-0.2-0.1-0.3-0.3-0.2-0.4c0-0.2,0.1-0.3,0.3-0.4l31.5-9.7c0.2-0.1,0.4,0,0.5,0.2
				l22.2,38.8c0.1,0.2,0.1,0.4-0.1,0.5c-0.1,0.1-0.2,0.1-0.3,0.1C134.1,119.8,134,119.8,134,119.8z M81.7,90.4l51.3,27.8l-21.2-37.1
				L81.7,90.4z"/>
		</g>
		<g>
			<path class="st1" d="M82.9,136c-0.1-0.1-0.2-0.2-0.2-0.3l-2.6-45.4c0-0.2,0.1-0.3,0.2-0.4c0.1-0.1,0.3-0.1,0.5,0l53.6,29.1
				c0.2,0.1,0.3,0.3,0.2,0.4c0,0.2-0.1,0.3-0.3,0.4l-51,16.3c0,0-0.1,0-0.1,0C83.1,136.1,83,136.1,82.9,136z M81.1,91l2.5,44
				l49.4-15.8L81.1,91z"/>
		</g>
		<g>
			<path class="st1" d="M80.2,90.5c-0.1-0.2-0.1-0.4,0.1-0.6l27.4-25c0.1-0.1,0.3-0.1,0.4-0.1c0.2,0,0.3,0.2,0.3,0.3l4.1,15.3
				c0.1,0.2-0.1,0.5-0.3,0.6l-31.5,9.7c0,0-0.1,0-0.1,0C80.4,90.7,80.2,90.6,80.2,90.5z M107.7,66.1L82.4,89.2l29.1-9L107.7,66.1z"
				/>
		</g>
		<g>
			<path class="st1" d="M80.3,90.6c-0.2-0.1-0.3-0.3-0.2-0.5l11.3-40.9c0-0.2,0.2-0.3,0.3-0.3c0.2,0,0.3,0,0.4,0.1l16,15.9
				c0.1,0.1,0.1,0.2,0.1,0.3c0,0.1-0.1,0.2-0.1,0.3l-27.4,25c-0.1,0.1-0.2,0.1-0.3,0.1C80.5,90.7,80.4,90.7,80.3,90.6z M92.1,50.2
				L81.4,88.9l25.8-23.6L92.1,50.2z"/>
		</g>
		<g>
			<path class="st1" d="M83.1,136.1l-8.1-0.9c-0.1,0-0.2-0.1-0.3-0.2c-0.1-0.1-0.1-0.2-0.1-0.3l5.5-44.5c0-0.2,0.2-0.4,0.5-0.4
				c0,0,0,0,0,0c0.2,0,0.4,0.2,0.4,0.4l2.6,45.4c0,0.1,0,0.3-0.1,0.4C83.4,136.1,83.3,136.1,83.1,136.1
				C83.1,136.1,83.1,136.1,83.1,136.1z M75.5,134.3l7.1,0.8l-2.3-39.9L75.5,134.3z"/>
		</g>
		<g>
			<path class="st1" d="M74.9,135.2l-12.8-3.4c-0.1,0-0.2-0.1-0.3-0.2c-0.1-0.1-0.1-0.3,0-0.4l18.3-41.1c0.1-0.2,0.3-0.3,0.5-0.3
				c0.2,0.1,0.4,0.3,0.3,0.5l-5.5,44.5c0,0.1-0.1,0.2-0.2,0.3c-0.1,0.1-0.2,0.1-0.3,0.1C75,135.2,75,135.2,74.9,135.2z M62.9,131
				l11.7,3.1l5.1-40.9L62.9,131z"/>
		</g>
		<g>
			<path class="st1" d="M80.1,90.4l-9.5-41.8c0-0.1,0-0.3,0.1-0.4c0.1-0.1,0.2-0.2,0.4-0.2l20.8,0.9c0.1,0,0.3,0.1,0.3,0.2
				c0.1,0.1,0.1,0.3,0.1,0.4L81,90.4c-0.1,0.2-0.2,0.3-0.4,0.3C80.3,90.7,80.2,90.6,80.1,90.4z M71.7,49l8.9,39.4l10.7-38.6L71.7,49
				z"/>
		</g>
		<g>
			<path class="st1" d="M80.4,90.7L49.9,80.5c-0.1,0-0.2-0.2-0.3-0.3c0-0.1,0-0.3,0.1-0.4l21.1-31.6c0.1-0.2,0.3-0.2,0.5-0.2
				c0.2,0,0.3,0.2,0.4,0.3L81,90.2c0,0.2,0,0.3-0.1,0.4c-0.1,0.1-0.2,0.1-0.3,0.1C80.5,90.7,80.5,90.7,80.4,90.7z M50.8,79.8
				l29.2,9.7l-9-39.9L50.8,79.8z"/>
		</g>
		<g>
			<path class="st1" d="M176.6,38l-7-10c-0.1-0.2-0.1-0.4,0-0.5c0.1-0.2,0.3-0.2,0.5-0.2c3.6,1.2,7,3.1,10,5.4
				c0.2,0.1,0.2,0.4,0.1,0.6l-2.8,4.6c-0.1,0.1-0.2,0.2-0.4,0.2c0,0,0,0,0,0C176.8,38.2,176.7,38.1,176.6,38z M171.1,28.6l5.8,8.3
				l2.3-3.7C176.7,31.3,174,29.7,171.1,28.6z"/>
		</g>
		<g>
			<path class="st1" d="M176.8,38.1l-30.5-13.1c-0.2-0.1-0.3-0.2-0.3-0.4l0-6.8c0-0.1,0.1-0.3,0.2-0.3c0.1-0.1,0.2-0.1,0.4-0.1
				c0.8,0.1,1.6,0.3,2.4,0.4c5.8,1.3,11.1,4.1,15.5,8.1c0.7,0.1,1.3,0.2,2,0.4c1.2,0.3,2.4,0.6,3.6,1c0.1,0,0.2,0.1,0.2,0.2l7,10
				c0.1,0.2,0.1,0.4,0,0.5c-0.1,0.1-0.2,0.2-0.4,0.2C176.9,38.2,176.8,38.1,176.8,38.1z M166.2,27.1c-0.7-0.2-1.4-0.3-2-0.4
				c-0.1,0-0.2-0.1-0.2-0.1c-4.3-3.9-9.5-6.7-15.2-7.9c-0.6-0.1-1.2-0.3-1.9-0.4l0,6l28.7,12.3l-6-8.6
				C168.5,27.7,167.3,27.4,166.2,27.1z"/>
		</g>
		<g>
			<path class="st1" d="M146.2,25l-15.7-11.8c-0.2-0.1-0.2-0.4-0.1-0.6c0.1-0.2,0.3-0.3,0.5-0.2c3.2,0.8,6.2,2.4,8.7,4.7
				c2.3-0.1,4.7-0.1,7,0.3c0.2,0,0.4,0.2,0.4,0.4l0,6.8c0,0.2-0.1,0.3-0.3,0.4c-0.1,0-0.1,0-0.2,0C146.4,25.1,146.3,25.1,146.2,25z
				 M139.4,18c-0.1,0-0.2,0-0.3-0.1c-1.7-1.6-3.6-2.8-5.8-3.7l12.7,9.5l0-5.5C143.8,17.9,141.6,17.8,139.4,18z"/>
		</g>
		<g>
			<path class="st1" d="M190.3,146.7l-7.3-1.5c-0.2,0-0.3-0.2-0.4-0.4c0-0.2,0.1-0.4,0.3-0.5l23.3-7.8c0.2-0.1,0.5,0,0.6,0.3l1.5,4
				c0.1,0.2,0,0.4-0.2,0.5c-5.3,3.4-11.5,5.2-17.7,5.3C190.4,146.8,190.4,146.8,190.3,146.7C190.4,146.8,190.4,146.7,190.3,146.7z
				 M206.2,137.6l-21.2,7.1l5.6,1.1c6-0.1,11.8-1.9,16.9-5L206.2,137.6z"/>
		</g>
		<g>
			<path class="st1" d="M189,146.8L189,146.8c0.5,0,1,0,1.4,0c0.2,0,0.4-0.2,0.4-0.4c0-0.2-0.1-0.4-0.4-0.5l-7.3-1.5
				c-0.2,0-0.3,0-0.4,0.1c-0.1,0.1-0.1,0.3-0.1,0.4l0.2,0.9c0,0.2,0.2,0.3,0.4,0.3C185.2,146.5,187.1,146.7,189,146.8z"/>
		</g>
		<g>
			<path class="st1" d="M182.8,145.1c-0.1-0.1-0.1-0.3,0-0.5l23.1-40.9c0.1-0.2,0.3-0.3,0.5-0.2c0.2,0.1,0.3,0.2,0.3,0.4l0.2,33.1
				c0,0.2-0.1,0.4-0.3,0.4l-23.3,7.8c-0.1,0-0.1,0-0.2,0C183,145.3,182.9,145.2,182.8,145.1z M205.8,105.7L184.1,144l21.8-7.3
				L205.8,105.7z"/>
		</g>
		<g>
			<path class="st1" d="M183.1,145.3c-0.2,0-0.3-0.1-0.4-0.3l-16.6-47.1c-0.1-0.2,0-0.3,0.1-0.4c0.1-0.1,0.3-0.2,0.4-0.2l39.7,6.2
				c0.1,0,0.3,0.1,0.3,0.3c0.1,0.1,0.1,0.3,0,0.4l-23.1,40.9C183.5,145.2,183.3,145.3,183.1,145.3
				C183.1,145.3,183.1,145.3,183.1,145.3z M167.2,98.3l16,45.4l22.3-39.4L167.2,98.3z"/>
		</g>
		<g>
			<path class="st1" d="M183.3,146.2c0.1,0,0.3,0,0.4-0.1c0.1-0.1,0.2-0.3,0.2-0.4l-0.2-0.9c0-0.2-0.2-0.3-0.4-0.3
				c-0.2,0-0.4,0.1-0.5,0.2l-0.5,0.7c-0.1,0.1-0.1,0.3,0,0.4c0.1,0.1,0.2,0.2,0.3,0.3L183.3,146.2
				C183.2,146.1,183.3,146.2,183.3,146.2z"/>
		</g>
		<g>
			<path class="st1" d="M162.4,141.6L144,131.5c-0.2-0.1-0.3-0.4-0.2-0.6c0.1-0.2,0.3-0.3,0.6-0.2l19.5,6.9c0.2,0.1,0.4,0.3,0.3,0.6
				c-0.3,1.1-0.7,2.2-1.2,3.3c0,0.1-0.1,0.2-0.3,0.3c-0.1,0-0.1,0-0.2,0C162.5,141.7,162.5,141.7,162.4,141.6z M149.2,133.3
				l13.1,7.3c0.3-0.8,0.6-1.5,0.8-2.3L149.2,133.3z"/>
		</g>
		<g>
			<path class="st1" d="M182.6,146l-0.5-0.1c-4.4-1-8.5-2.8-12.2-5.3c-0.2-0.1-0.3-0.4-0.1-0.6c0.1-0.2,0.3-0.3,0.6-0.2l13,4.6
				c0.1,0,0.2,0.1,0.3,0.3c0,0.1,0,0.3,0,0.4l-0.5,0.7C183,146,182.9,146,182.6,146C182.7,146,182.6,146,182.6,146z M182.4,145.1
				l0.1,0l-8.1-2.9C176.9,143.5,179.6,144.4,182.4,145.1z"/>
		</g>
		<g>
			<path class="st1" d="M183,145.3l-13-4.6c0,0-0.1,0-0.1-0.1c-1.9-1.3-3.6-2.8-5.2-4.4c-0.1,0.6-0.3,1.2-0.5,1.9
				c0,0.1-0.1,0.2-0.2,0.3c-0.1,0.1-0.2,0.1-0.4,0l-19.5-6.9c-0.1,0-0.2-0.2-0.3-0.3c0-0.1,0-0.3,0.1-0.4l22.3-33.3
				c0.1-0.1,0.3-0.2,0.4-0.2c0.2,0,0.3,0.1,0.4,0.3l16.6,47.1c0.1,0.2,0,0.3-0.1,0.5c-0.1,0.1-0.2,0.1-0.3,0.1
				C183.1,145.3,183.1,145.3,183,145.3z M144.9,130.8l18.5,6.6c0.2-0.8,0.4-1.5,0.6-2.2c0-0.2,0.2-0.3,0.3-0.3c0.2,0,0.3,0,0.5,0.1
				c1.7,1.8,3.6,3.4,5.6,4.9l12,4.3l-16-45.3L144.9,130.8z"/>
		</g>
		<g>
			<path class="st1" d="M122.3,39c-0.1-0.1-0.2-0.2-0.3-0.3l-8.2-27.2c0-0.2,0-0.3,0.1-0.5c0.1-0.1,0.3-0.2,0.5-0.1
				c1.6,0.5,3,1.2,4.4,2c0,0,0,0,0,0l0.1,0c0.2-0.1,0.4,0,0.5,0.2l13.7,19.8c0.1,0.1,0.1,0.2,0.1,0.4c0,0.1-0.1,0.2-0.2,0.3
				L122.7,39c-0.1,0-0.1,0.1-0.2,0.1C122.4,39,122.3,39,122.3,39z M119,13.8C118.9,13.8,118.9,13.9,119,13.8c-0.2,0.1-0.3,0-0.4,0
				c-1.1-0.7-2.3-1.3-3.6-1.7l7.8,25.8l9.5-5L119,13.8z"/>
		</g>
		<g>
			<path class="st1" d="M132.5,33.4l-13.7-19.8c-0.1-0.1-0.1-0.3-0.1-0.4c0-0.1,0.2-0.2,0.3-0.3c0.8-0.3,1.6-0.5,2.3-0.7
				c0.2,0,0.4,0,0.5,0.2l11.4,20.5c0.1,0.2,0.1,0.5-0.2,0.6c-0.1,0-0.2,0.1-0.2,0.1C132.7,33.6,132.6,33.5,132.5,33.4z M119.9,13.6
				l8,11.6l-6.7-11.9C120.8,13.3,120.3,13.4,119.9,13.6z"/>
		</g>
		<g>
			<path class="st1" d="M39.1,34.6c-0.1-0.1-0.1-0.3,0-0.5c1.9-3.3,5-5.8,8.7-6.8c0.2-0.1,0.5,0.1,0.5,0.3l1.5,3.6
				c0,0.1,0,0.3,0,0.4c-0.1,0.1-0.2,0.2-0.3,0.2l-9.9,3c0,0-0.1,0-0.1,0C39.3,34.7,39.1,34.7,39.1,34.6z M47.6,28.3
				c-2.9,0.9-5.4,2.7-7.1,5.2l8.3-2.5L47.6,28.3z"/>
		</g>
		<g>
			<path class="st1" d="M16.9,61.7c-0.2-0.1-0.3-0.3-0.2-0.5c1.6-4.7,5.1-8.5,9.7-10.6c0.1-0.4,0.1-0.9,0.2-1.3
				c1.3-6.1,5.6-10.9,11.4-13c0.3-0.7,0.6-1.5,1-2.2c0.1-0.1,0.2-0.2,0.3-0.2l9.9-2.9c0.2-0.1,0.4,0,0.5,0.2
				c0.1,0.2,0.1,0.4-0.1,0.6l-32.2,30c-0.1,0.1-0.2,0.1-0.3,0.1C17,61.7,17,61.7,16.9,61.7z M39.7,34.7c-0.4,0.7-0.7,1.4-0.9,2
				c0,0.1-0.1,0.2-0.3,0.3c-5.6,2-9.8,6.6-11.1,12.4c-0.1,0.5-0.2,1-0.3,1.5c0,0.2-0.1,0.3-0.3,0.4c-3.8,1.6-6.8,4.6-8.6,8.2
				l29.2-27.2L39.7,34.7z"/>
		</g>
		<g>
			<path class="st1" d="M207.8,141.5c-0.1,0-0.2-0.1-0.3-0.3l-1.5-4c-0.1-0.2,0-0.5,0.2-0.6l11.9-6.2c0.2-0.1,0.4-0.1,0.5,0.1
				c0.1,0.2,0.2,0.4,0,0.6c-2.7,4.1-6.3,7.7-10.5,10.3c-0.1,0-0.2,0.1-0.3,0.1C207.9,141.5,207.8,141.5,207.8,141.5z M207,137.3
				l1.2,3.1c3.4-2.2,6.3-5,8.7-8.2L207,137.3z"/>
		</g>
		<g>
			<path class="st1" d="M206.1,137.3c-0.1-0.2-0.1-0.4,0-0.6l16.6-16.9c0.1-0.1,0.4-0.2,0.5-0.1c0.2,0.1,0.3,0.3,0.2,0.5
				c-1,3.9-2.5,7.5-4.7,10.9c0,0.1-0.1,0.1-0.2,0.2l-11.9,6.2c-0.1,0-0.1,0.1-0.2,0.1C206.3,137.5,206.2,137.4,206.1,137.3z
				 M222.1,121.7l-13.3,13.6l9.3-4.8C219.8,127.8,221.2,124.8,222.1,121.7z"/>
		</g>
		<g>
			<path class="st1" d="M70.8,48.9L49,31.7c-0.1-0.1-0.2-0.3-0.2-0.5c0.1-0.2,0.2-0.3,0.4-0.3l18.1-1.5c0.2,0,0.4,0.1,0.5,0.4
				l3.6,18.6c0,0.2,0,0.4-0.2,0.5c-0.1,0-0.2,0.1-0.2,0.1C71,49,70.9,48.9,70.8,48.9z M50.5,31.7l19.9,15.7l-3.3-17L50.5,31.7z"/>
		</g>
		<g>
			<path class="st1" d="M67.3,30.3l-10.9-5c-0.1-0.1-0.2-0.2-0.2-0.3c0-0.1,0-0.3,0-0.4c2.7-4.9,8-7.8,13.6-7.3l0.1-0.1
				c0.1-0.1,0.4-0.2,0.5-0.1c0.2,0.1,0.3,0.3,0.2,0.5L67.9,30c0,0.1-0.1,0.2-0.2,0.3c-0.1,0-0.1,0-0.2,0
				C67.4,30.3,67.3,30.3,67.3,30.3z M57.2,24.7l9.9,4.6l2.4-11C64.5,17.8,59.8,20.4,57.2,24.7z"/>
		</g>
		<g>
			<path class="st1" d="M48.9,31.5l-1.5-3.6c-0.1-0.1,0-0.3,0-0.4c0.1-0.1,0.2-0.2,0.3-0.2c0.5-0.1,1-0.2,1.4-0.3c0,0,0.1,0,0.1,0
				l18.2,2.4c0.2,0,0.4,0.2,0.4,0.5c0,0.2-0.2,0.4-0.4,0.4l-18.1,1.5c0,0,0,0,0,0C49.1,31.8,49,31.7,48.9,31.5z M49.2,27.9
				c-0.3,0-0.5,0.1-0.7,0.2l1.1,2.8l13.6-1.1L49.2,27.9z"/>
		</g>
		<g>
			<path class="st1" d="M67.4,30.3l-18.2-2.4c-0.2,0-0.4-0.2-0.4-0.4c0-0.2,0.2-0.4,0.4-0.5c1.8-0.3,3.6-0.2,5.3,0.2
				c0.2,0,0.4,0.1,0.6,0.2c0.3-0.9,0.7-1.8,1.1-2.6c0.1-0.2,0.4-0.3,0.6-0.2l10.9,5c0.2,0.1,0.3,0.3,0.2,0.5
				C67.8,30.2,67.7,30.3,67.4,30.3C67.4,30.3,67.4,30.3,67.4,30.3z M55.9,27.9l8.7,1.2l-7.7-3.6C56.4,26.3,56.1,27.1,55.9,27.9z"/>
		</g>
		<g>
			<path class="st1" d="M122.3,39l-42.6-8.8c-0.2,0-0.3-0.2-0.3-0.3c0-0.2,0-0.3,0.1-0.5l20.4-17.7c0.1,0,0.1-0.1,0.2-0.1
				c4-1.7,8.3-2.1,12.5-1.1c0.6,0.1,1.2,0.3,1.8,0.5c0.1,0,0.3,0.2,0.3,0.3l8.2,27.2c0,0.2,0,0.3-0.1,0.4
				C122.7,39,122.6,39,122.3,39C122.4,39,122.4,39,122.3,39z M112.4,11.4c-4-0.9-8.2-0.5-12,1.1l-19.6,17l40.9,8.5l-7.9-26.2
				C113.4,11.6,112.9,11.5,112.4,11.4z"/>
		</g>
		<g>
			<path class="st1" d="M91.5,49.6L79.5,30c-0.1-0.2-0.1-0.4,0-0.5c0.1-0.1,0.3-0.2,0.5-0.2l42.6,8.8c0.2,0,0.3,0.2,0.4,0.4
				c0,0.2-0.1,0.4-0.3,0.5L92,49.8c-0.1,0-0.1,0-0.2,0C91.7,49.8,91.6,49.7,91.5,49.6z M80.8,30.4l11.3,18.4l28.7-10.1L80.8,30.4z"
				/>
		</g>
		<g>
			<path class="st1" d="M79.7,30.2c-0.2-0.1-0.3-0.2-0.3-0.4l0.4-17c0-0.2,0.1-0.4,0.3-0.4c2.6-1,5.3-1.2,8-0.6l0.1,0
				c2.9-1.4,6.2-1.8,9.3-1.1c1,0.2,2,0.6,2.9,1c0.1,0.1,0.2,0.2,0.3,0.3c0,0.2,0,0.3-0.2,0.4L80.1,30.1c-0.1,0.1-0.2,0.1-0.3,0.1
				C79.8,30.2,79.7,30.2,79.7,30.2z M97.3,11.5c-3-0.7-6.1-0.3-8.9,1.1c-0.1,0-0.2,0.1-0.3,0c0,0-0.2-0.1-0.2-0.1
				c-2.4-0.5-4.9-0.4-7.2,0.4l-0.4,15.7l19.1-16.5C98.7,11.9,98,11.7,97.3,11.5z"/>
		</g>
		<g>
			<path class="st1" d="M91.9,49.8L71.1,49c-0.2,0-0.3-0.1-0.4-0.2c-0.1-0.1-0.1-0.3,0-0.4l8.7-18.8c0.1-0.2,0.2-0.3,0.4-0.3
				c0.2,0,0.3,0.1,0.4,0.2l12,19.6c0.1,0.1,0.1,0.3,0,0.5C92.2,49.7,92,49.8,91.9,49.8C91.9,49.8,91.9,49.8,91.9,49.8z M71.8,48.1
				l19.3,0.8L79.9,30.7L71.8,48.1z"/>
		</g>
		<g>
			<path class="st1" d="M71,49c-0.2,0-0.4-0.2-0.4-0.4L67,30c0-0.1,0-0.3,0.1-0.4c0.1-0.1,0.2-0.2,0.3-0.2l12.4-0.1
				c0.2,0,0.3,0.1,0.4,0.2c0.1,0.1,0.1,0.3,0,0.4l-8.7,18.8C71.4,48.9,71.3,49,71,49C71.1,49,71.1,49,71,49z M68,30.3l3.3,16.7
				l7.8-16.8L68,30.3z"/>
		</g>
		<g>
			<path class="st1" d="M67.1,30.2C67,30.1,67,29.9,67,29.8l2.7-12.3c0-0.1,0.1-0.2,0.1-0.2c2.4-2.5,5.5-4.1,8.9-4.4
				c0.4-0.2,0.8-0.4,1.3-0.5c0.1-0.1,0.3,0,0.4,0.1c0.1,0.1,0.2,0.2,0.2,0.4l-0.4,17c0,0.2-0.2,0.4-0.5,0.4l-12.4,0.1c0,0,0,0,0,0
				C67.3,30.3,67.2,30.3,67.1,30.2z M79.8,13.4c-0.2,0.1-0.4,0.2-0.6,0.3c-0.1,0-0.1,0-0.2,0c-3.2,0.3-6.1,1.7-8.4,4L68,29.4
				l11.4-0.1L79.8,13.4z"/>
		</g>
		<g>
			<path class="st1" d="M46.4,179.2c-0.2-0.1-0.3-0.2-0.3-0.4l0-0.5c0-0.1,0-0.2,0.1-0.2l28.4-43.5c0.1-0.2,0.3-0.2,0.5-0.2
				c0.2,0,0.3,0.2,0.4,0.4l4.5,29c0,0.1,0,0.2-0.1,0.3c-2.1,3.4-5,6.2-8.5,8.1 M70.7,171.4c0-0.1,0.1-0.1,0.2-0.1
				c3.3-1.8,6.1-4.5,8.2-7.7L74.8,136l-27.7,42.4l0,0.1"/>
		</g>
		<g>
			<path class="st1" d="M46.2,178.8c0-0.2,0.1-0.3,0.2-0.4c0.1-0.1,0.3-0.1,0.4,0"/>
		</g>
		<g>
			<path class="st1" d="M46.6,178.7c-0.2-0.1-0.5-0.2-0.5-0.5c0,0,0-0.1,0-0.1c0-2.4,0-4.6-0.1-6.8c-0.7,0.2-1.4,0.4-2.2,0.6
				c-0.2,0.1-0.5-0.1-0.5-0.3l-0.5-1.3c-0.1-0.2,0-0.3,0.1-0.5l31.7-35.5c0.2-0.2,0.4-0.2,0.6-0.1c0.2,0.1,0.2,0.4,0.1,0.6L47,178.5
				C46.9,178.7,46.8,178.7,46.6,178.7C46.6,178.7,46.6,178.7,46.6,178.7z M43.9,170.4l0.2,0.6c0.8-0.2,1.5-0.4,2.2-0.7
				c0.1-0.1,0.3,0,0.4,0c0.1,0.1,0.2,0.2,0.2,0.3c0.1,1.9,0.2,3.9,0.2,6l24.3-37.2L43.9,170.4z"/>
		</g>
		<g>
			<path class="st1" d="M33.3,172.1c-1.7-0.4-3.4-0.9-5-1.7c-0.2-0.1-0.3-0.3-0.3-0.5c0-0.2,0.2-0.4,0.5-0.4l14.8,0.3l0,0
				c0.2,0,0.4,0.1,0.4,0.3l0.5,1.3c0,0.1,0,0.3,0,0.4c-0.1,0.1-0.2,0.2-0.3,0.2c-2,0.5-4,0.7-6,0.7l0,0
				C36.3,172.6,34.8,172.4,33.3,172.1z M43,170.7l-12-0.2c0.8,0.3,1.7,0.5,2.5,0.7c1.4,0.3,2.9,0.5,4.4,0.5l0,0
				c1.8,0,3.6-0.1,5.3-0.5L43,170.7z"/>
		</g>
		<g>
			<path class="st1" d="M150.9,156.7l-6.8-4.8c-0.2-0.1-0.2-0.3-0.2-0.5c0.1-0.2,0.2-0.3,0.4-0.3l12.2-0.3c0.2,0,0.3,0.1,0.4,0.3
				c0.1,0.2,0.1,0.4-0.1,0.5c-1.6,1.9-3.5,3.7-5.5,5.2c-0.1,0.1-0.2,0.1-0.3,0.1C151.1,156.8,151,156.8,150.9,156.7z M145.7,151.9
				l5.4,3.9c1.6-1.2,3-2.6,4.4-4.1L145.7,151.9z"/>
		</g>
		<g>
			<path class="st1" d="M135.1,163.6c-0.1-0.2-0.1-0.4,0-0.5l8.8-11.9c0.1-0.2,0.4-0.2,0.6-0.1l6.8,4.8c0.1,0.1,0.2,0.2,0.2,0.4
				c0,0.1-0.1,0.3-0.2,0.4c-4.6,3.6-10.1,6.1-15.8,7.2c0,0-0.1,0-0.1,0C135.3,163.9,135.2,163.8,135.1,163.6z M144.4,152.1
				l-7.8,10.6c5-1.1,9.7-3.3,13.8-6.4L144.4,152.1z"/>
		</g>
		<g>
			<path class="st1" d="M62,131.7l-26.5-27.1c-0.1-0.1-0.2-0.3-0.1-0.4c0-0.2,0.2-0.3,0.3-0.3l44.8-14c0.2-0.1,0.4,0,0.5,0.1
				c0.1,0.1,0.1,0.3,0.1,0.5l-18.3,41.1c-0.1,0.1-0.2,0.2-0.3,0.3c0,0-0.1,0-0.1,0C62.1,131.8,62,131.7,62,131.7z M36.6,104.4
				l25.5,26.1L79.7,91L36.6,104.4z"/>
		</g>
		<g>
			<path class="st1" d="M35.4,104.5c-0.1-0.1-0.1-0.4,0-0.5l14.2-24.2c0.1-0.2,0.3-0.3,0.5-0.2l30.5,10.2c0.2,0.1,0.3,0.2,0.3,0.4
				c0,0.2-0.1,0.4-0.3,0.4l-44.8,14c0,0-0.1,0-0.1,0C35.7,104.7,35.5,104.6,35.4,104.5z M50.2,80.6l-13.5,22.8l42.3-13.2L50.2,80.6z
				"/>
		</g>
		<g>
			<path class="st1" d="M47.4,134.4l-12.1-30c-0.1-0.2,0-0.4,0.2-0.5c0.2-0.1,0.4-0.1,0.6,0.1L62.6,131c0.1,0.1,0.2,0.3,0.1,0.5
				c-0.1,0.2-0.2,0.3-0.3,0.3l-14.4,2.8c0,0-0.1,0-0.1,0C47.7,134.6,47.5,134.5,47.4,134.4z M37.1,106.2l11.1,27.5l13.2-2.6
				L37.1,106.2z"/>
		</g>
		<g>
			<path class="st1" d="M47.6,134.6l-14.4-8.9c-0.1-0.1-0.2-0.3-0.2-0.4l2.3-21c0-0.2,0.2-0.4,0.4-0.4c0.2,0,0.4,0.1,0.5,0.3
				l12.1,30c0.1,0.2,0,0.4-0.1,0.5c-0.1,0.1-0.2,0.1-0.3,0.1C47.8,134.6,47.7,134.6,47.6,134.6z M33.9,125l13,8l-10.9-27L33.9,125z"
				/>
		</g>
		<g>
			<path class="st1" d="M35.6,104.6c-0.2-0.1-0.3-0.3-0.3-0.5l9.3-31.6c0-0.2,0.2-0.3,0.4-0.3c0.2,0,0.3,0,0.4,0.2l5,7.4
				c0.1,0.1,0.1,0.3,0,0.5l-14.2,24.2c-0.1,0.1-0.2,0.2-0.4,0.2C35.7,104.7,35.7,104.7,35.6,104.6z M45.2,73.7l-8,27.1l12.2-20.8
				L45.2,73.7z"/>
		</g>
		<g>
			<path class="st1" d="M35.5,104.6L9.6,82.5c-0.1-0.1-0.2-0.3-0.1-0.4c0-0.2,0.2-0.3,0.3-0.3L45,72.2c0.2,0,0.3,0,0.4,0.1
				c0.1,0.1,0.2,0.3,0.1,0.4l-9.3,31.6c0,0.2-0.2,0.3-0.3,0.3c0,0-0.1,0-0.1,0C35.7,104.7,35.6,104.6,35.5,104.6z M10.9,82.3
				l24.7,21.1l8.8-30.1L10.9,82.3z"/>
		</g>
		<g>
			<path class="st1" d="M33.4,125.7l-25.9-1.1c-0.2,0-0.4-0.1-0.4-0.3c-0.1-0.2,0-0.4,0.2-0.5l28.3-19.9c0.1-0.1,0.3-0.1,0.5,0
				c0.2,0.1,0.2,0.3,0.2,0.4l-2.3,21C33.9,125.5,33.7,125.7,33.4,125.7C33.4,125.7,33.4,125.7,33.4,125.7z M8.9,123.7l24.1,1.1
				l2.2-19.6L8.9,123.7z"/>
		</g>
		<g>
			<path class="st1" d="M7.3,124.5c-0.1-0.1-0.2-0.2-0.3-0.4L7,116c0-0.1,0-0.2,0.1-0.2c0.9-1.5,2-2.8,3.3-4
				c-1.2-0.4-2.2-1.1-3.2-1.8c-0.1-0.1-0.2-0.2-0.2-0.4L6.7,84.4c0-0.2,0.1-0.3,0.2-0.4c0.2-0.1,0.3-0.1,0.5,0l28.7,19.8
				c0.1,0.1,0.2,0.2,0.2,0.4c0,0.1-0.1,0.3-0.2,0.4L7.8,124.5c-0.1,0.1-0.2,0.1-0.3,0.1C7.5,124.6,7.4,124.6,7.3,124.5z M7.6,85.3
				l0.2,24c1.1,0.8,2.2,1.4,3.5,1.8c0.2,0,0.3,0.2,0.3,0.3c0,0.2,0,0.3-0.1,0.4c-1.4,1.2-2.5,2.7-3.6,4.3l0.1,7.2l27-19L7.6,85.3z"
				/>
		</g>
		<g>
			<path class="st1" d="M35.5,104.6L6.9,84.8c-0.1-0.1-0.2-0.2-0.2-0.4c0-0.1,0.1-0.3,0.2-0.4l2.8-2.3c0.2-0.1,0.4-0.1,0.6,0
				l25.9,22.1c0.2,0.2,0.2,0.4,0.1,0.6c-0.1,0.1-0.2,0.2-0.4,0.2C35.7,104.7,35.6,104.6,35.5,104.6z M7.9,84.3l20.8,14.4l-18.8-16
				L7.9,84.3z"/>
		</g>
		<g>
			<path class="st1" d="M7.1,109.9c-3.8-2.9-5.5-7.9-4.5-12.5c0.3-1.3,0.8-2.5,1.4-3.6c-0.8-2.3-1-4.7-0.5-7
				c0.3-1.2,0.7-2.3,1.3-3.4C5,83,5.3,83,5.5,83.1L7.3,84c0.2,0.1,0.3,0.2,0.3,0.4l0.3,25.1c0,0.2-0.1,0.3-0.3,0.4
				c-0.1,0-0.1,0-0.2,0C7.3,110,7.2,109.9,7.1,109.9z M5.5,84.1c-0.5,0.9-0.8,1.8-1,2.8C4,89.1,4.1,91.4,5,93.6C5,93.7,5,93.9,5,94
				c-0.7,1.1-1.2,2.3-1.4,3.6c-0.9,4,0.5,8.2,3.4,11L6.7,84.7L5.5,84.1z"/>
		</g>
		<g>
			<path class="st1" d="M7.1,124.3L5,120.1C5,120,5,119.9,5,119.7c0.5-1.3,1.2-2.6,1.9-3.7l0.2-0.3c0.1-0.2,0.3-0.3,0.5-0.2
				c0.2,0.1,0.3,0.2,0.3,0.4l0.1,8.2c0,0.2-0.1,0.4-0.3,0.4c0,0-0.1,0-0.1,0C7.4,124.6,7.2,124.5,7.1,124.3z M5.9,119.9l1.1,2.3
				l0-4.6C6.6,118.3,6.3,119.1,5.9,119.9z"/>
		</g>
		<g>
			<path class="st1" d="M4.1,133c-0.2,0-0.4-0.2-0.4-0.4c-0.8-4.3-0.4-8.8,1.3-12.9c0.1-0.2,0.2-0.3,0.4-0.3c0.2,0,0.3,0.1,0.4,0.3
				l2.1,4.2c0.1,0.1,0.1,0.3,0,0.4l-3.4,8.4C4.5,132.9,4.4,133,4.1,133C4.2,133,4.2,133,4.1,133z M5.5,121c-1.1,3.1-1.5,6.4-1.1,9.7
				l2.7-6.6L5.5,121z"/>
		</g>
		<g>
			<path class="st1" d="M7.1,84.8c0.2,0,0.3-0.1,0.4-0.2c0.1-0.2,0.1-0.5-0.1-0.6l-1.7-1.2c-0.1-0.1-0.2-0.1-0.4-0.1
				c-0.1,0-0.2,0.1-0.3,0.2C5,83,5,83.1,5,83.1c-0.1,0.1-0.1,0.3-0.1,0.4c0,0.1,0.1,0.3,0.2,0.3l1.8,0.9C7,84.8,7.1,84.8,7.1,84.8z"
				/>
		</g>
		<g>
			<path class="st1" d="M187.6,41.7l-10.8-3.5c-0.2-0.1-0.3-0.3-0.3-0.5c0-0.2,0.2-0.4,0.4-0.4l6.7-1.1c0.2,0,0.3,0,0.4,0.1
				c1.2,1.3,2.3,2.7,3.3,4.1c0.1,0.1,0.3,0.1,0.4,0.2l0.3,0.1c0.2,0.1,0.3,0.4,0.2,0.6c-0.1,0.2-0.2,0.3-0.4,0.3
				C187.7,41.7,187.7,41.7,187.6,41.7z M178.9,37.9l7,2.3c-0.7-1-1.5-2-2.4-3L178.9,37.9z"/>
		</g>
		<g>
			<path class="st1" d="M201.1,52.2l-24.4-14.1c-0.2-0.1-0.3-0.4-0.2-0.6c0.1-0.2,0.3-0.3,0.6-0.2l10.9,3.5
				c5.4,2.3,10.2,6.1,13.7,10.8c0.1,0.2,0.1,0.4,0,0.6c-0.1,0.1-0.2,0.2-0.4,0.2C201.3,52.3,201.2,52.3,201.1,52.2z M199.4,50.2
				c-3.3-3.7-7.3-6.6-11.7-8.5l-6.7-2.2L199.4,50.2z"/>
		</g>
	</g>
	<g>
		
			<ellipse transform="matrix(2.016512e-02 -0.9998 0.9998 2.016512e-02 73.0753 206.2359)" class="st1" cx="141.8" cy="65.8" rx="3.2" ry="3.2"/>
		<path class="st1" d="M137.7,65.8c0-2.3,1.9-4.1,4.2-4c2.3,0,4.1,1.9,4,4.2c0,2.3-1.9,4.1-4.2,4C139.4,69.9,137.6,68,137.7,65.8z
			 M139.5,65.8c0,1.3,1,2.3,2.2,2.3c1.3,0,2.3-1,2.3-2.2c0-1.3-1-2.3-2.2-2.3C140.5,63.5,139.5,64.5,139.5,65.8z"/>
	</g>
	<g>
		
			<ellipse transform="matrix(2.004278e-02 -0.9998 0.9998 2.004278e-02 81.407 160.2265)" class="st1" cx="122.4" cy="38.6" rx="3.2" ry="3.2"/>
		<path class="st1" d="M118.3,38.5c0-2.3,1.9-4.1,4.2-4c2.3,0,4.1,1.9,4,4.2c0,2.3-1.9,4.1-4.2,4C120.1,42.6,118.3,40.8,118.3,38.5z
			 M120.2,38.5c0,1.3,1,2.3,2.2,2.3c1.3,0,2.3-1,2.3-2.2c0-1.3-1-2.3-2.2-2.3C121.2,36.3,120.2,37.3,120.2,38.5z"/>
	</g>
	<g>
		
			<ellipse transform="matrix(2.012035e-02 -0.9998 0.9998 2.012035e-02 96.2487 165.3248)" class="st1" cx="132.5" cy="33.6" rx="2" ry="2"/>
		<path class="st1" d="M129.5,33.5c0-1.6,1.4-2.9,3-2.9c1.6,0,2.9,1.4,2.9,3c0,1.6-1.4,2.9-3,2.9C130.8,36.5,129.5,35.1,129.5,33.5z
			 M131.3,33.5c0,0.6,0.5,1.1,1.1,1.2c0.6,0,1.1-0.5,1.2-1.1c0-0.6-0.5-1.1-1.1-1.2C131.9,32.4,131.3,32.9,131.3,33.5z"/>
	</g>
	<g>
		
			<ellipse transform="matrix(2.005619e-02 -0.9998 0.9998 2.005619e-02 36.429 96.6731)" class="st1" cx="67.5" cy="29.8" rx="2.5" ry="2.5"/>
		<path class="st1" d="M64.1,29.7c0-1.9,1.6-3.4,3.5-3.3c1.9,0,3.4,1.6,3.3,3.5c0,1.9-1.6,3.4-3.5,3.3
			C65.6,33.1,64.1,31.6,64.1,29.7z M65.9,29.7c0,0.9,0.7,1.6,1.6,1.6c0.9,0,1.6-0.7,1.6-1.6c0-0.9-0.7-1.6-1.6-1.6
			C66.7,28.1,66,28.8,65.9,29.7z"/>
	</g>
	<g>
		
			<ellipse transform="matrix(2.018133e-02 -0.9998 0.9998 2.018133e-02 48.4939 108.9758)" class="st1" cx="79.8" cy="29.7" rx="3.2" ry="3.2"/>
		<path class="st1" d="M75.8,29.7c0-2.3,1.9-4.1,4.2-4c2.3,0,4.1,1.9,4,4.2c0,2.3-1.9,4.1-4.2,4C77.5,33.8,75.7,31.9,75.8,29.7z
			 M77.6,29.7c0,1.3,1,2.3,2.2,2.3c1.3,0,2.3-1,2.3-2.2c0-1.3-1-2.3-2.2-2.3C78.6,27.4,77.6,28.4,77.6,29.7z"/>
	</g>
	<g>
		
			<ellipse transform="matrix(2.004499e-02 -0.9998 0.9998 2.004499e-02 40.693 140.2502)" class="st1" cx="91.9" cy="49.4" rx="3.2" ry="3.2"/>
		<path class="st1" d="M87.8,49.3c0-2.3,1.9-4.1,4.2-4c2.3,0,4.1,1.9,4,4.2c0,2.3-1.9,4.1-4.2,4C89.6,53.4,87.8,51.5,87.8,49.3z
			 M89.6,49.3c0,1.3,1,2.3,2.2,2.3c1.3,0,2.3-1,2.3-2.2c0-1.3-1-2.3-2.2-2.3C90.7,47.1,89.6,48.1,89.6,49.3z"/>
	</g>
	<g>
		
			<ellipse transform="matrix(2.004277e-02 -0.9998 0.9998 2.004277e-02 -10.3195 168.2406)" class="st1" cx="80.7" cy="89.4" rx="3.2" ry="3.2"/>
		<path class="st1" d="M76.6,89.3c0-2.3,1.9-4.1,4.2-4c2.3,0,4.1,1.9,4,4.2c0,2.3-1.9,4.1-4.2,4C78.3,93.4,76.5,91.6,76.6,89.3z
			 M78.4,89.3c0,1.3,1,2.3,2.2,2.3c1.3,0,2.3-1,2.3-2.2c0-1.3-1-2.3-2.2-2.3C79.5,87.1,78.4,88.1,78.4,89.3z"/>
	</g>
	<g>
		
			<ellipse transform="matrix(2.018133e-02 -0.9998 0.9998 2.018133e-02 -68.3907 138.1131)" class="st1" cx="36.3" cy="103.9" rx="3.2" ry="3.2"/>
		<path class="st1" d="M32.2,103.9c0-2.3,1.9-4.1,4.2-4c2.3,0,4.1,1.9,4,4.2c0,2.3-1.9,4.1-4.2,4C33.9,108,32.1,106.1,32.2,103.9z
			 M34,103.9c0,1.3,1,2.3,2.2,2.3c1.3,0,2.3-1,2.3-2.2c0-1.3-1-2.3-2.2-2.3C35.1,101.7,34,102.7,34,103.9z"/>
	</g>
	<g>
		
			<ellipse transform="matrix(2.018133e-02 -0.9998 0.9998 2.018133e-02 -29.1058 116.718)" class="st1" cx="45" cy="73.2" rx="3.2" ry="3.2"/>
		<path class="st1" d="M40.9,73.1c0-2.3,1.9-4.1,4.2-4c2.3,0,4.1,1.9,4,4.2c0,2.3-1.9,4.1-4.2,4C42.7,77.3,40.9,75.4,40.9,73.1z
			 M42.7,73.2c0,1.3,1,2.3,2.2,2.3c1.3,0,2.3-1,2.3-2.2c0-1.3-1-2.3-2.2-2.3C43.8,70.9,42.8,71.9,42.7,73.2z"/>
	</g>
	<g>
		
			<ellipse transform="matrix(2.014815e-02 -0.9998 0.9998 2.014815e-02 29.2332 190.9119)" class="st1" cx="112" cy="80.5" rx="3.2" ry="3.2"/>
		<path class="st1" d="M107.9,80.5c0-2.3,1.9-4.1,4.2-4c2.3,0,4.1,1.9,4,4.2c0,2.3-1.9,4.1-4.2,4C109.7,84.6,107.9,82.7,107.9,80.5z
			 M109.7,80.5c0,1.3,1,2.3,2.2,2.3c1.3,0,2.3-1,2.3-2.2c0-1.3-1-2.3-2.2-2.3C110.8,78.2,109.8,79.2,109.7,80.5z"/>
	</g>
	<g>
		
			<ellipse transform="matrix(2.015921e-02 -0.9998 0.9998 2.015921e-02 20.8424 118.4079)" class="st1" cx="70.8" cy="48.6" rx="3.2" ry="3.2"/>
		<path class="st1" d="M66.7,48.5c0-2.3,1.9-4.1,4.2-4c2.3,0,4.1,1.9,4,4.2c0,2.3-1.9,4.1-4.2,4C68.5,52.6,66.7,50.7,66.7,48.5z
			 M68.6,48.5c0,1.3,1,2.3,2.2,2.3c1.3,0,2.3-1,2.3-2.2c0-1.3-1-2.3-2.2-2.3C69.6,46.3,68.6,47.3,68.6,48.5z"/>
	</g>
	<g>
		
			<ellipse transform="matrix(2.011429e-02 -0.9998 0.9998 2.011429e-02 16.1472 80.2311)" class="st1" cx="49" cy="31.9" rx="2.7" ry="2.7"/>
		<path class="st1" d="M45.4,31.8c0-2,1.7-3.6,3.7-3.6c2,0,3.6,1.7,3.6,3.7c0,2-1.7,3.6-3.7,3.6C46.9,35.5,45.3,33.8,45.4,31.8z
			 M47.2,31.8c0,1,0.8,1.8,1.8,1.9c1,0,1.8-0.8,1.9-1.8c0-1-0.8-1.8-1.8-1.9C48,30,47.2,30.8,47.2,31.8z"/>
	</g>
	<g>
		
			<ellipse transform="matrix(2.017027e-02 -0.9998 0.9998 2.017027e-02 119.2162 169.9964)" class="st1" cx="146.3" cy="24.2" rx="3.2" ry="3.2"/>
		<path class="st1" d="M142.2,24.1c0-2.3,1.9-4.1,4.2-4c2.3,0,4.1,1.9,4,4.2c0,2.3-1.9,4.1-4.2,4C144,28.2,142.2,26.3,142.2,24.1z
			 M144.1,24.1c0,1.3,1,2.3,2.2,2.3c1.3,0,2.3-1,2.3-2.2c0-1.3-1-2.3-2.2-2.3C145.1,21.9,144.1,22.9,144.1,24.1z"/>
	</g>
	<g>
		
			<ellipse transform="matrix(2.004499e-02 -0.9998 0.9998 2.004499e-02 77.531 186.9745)" class="st1" cx="134.1" cy="53.9" rx="3.2" ry="3.2"/>
		<path class="st1" d="M130.1,53.9c0-2.3,1.9-4.1,4.2-4c2.3,0,4.1,1.9,4,4.2c0,2.3-1.9,4.1-4.2,4C131.8,58,130,56.1,130.1,53.9z
			 M131.9,53.9c0,1.3,1,2.3,2.2,2.3c1.3,0,2.3-1,2.3-2.2c0-1.3-1-2.3-2.2-2.3C132.9,51.6,131.9,52.6,131.9,53.9z"/>
	</g>
	<g>
		
			<ellipse transform="matrix(2.004499e-02 -0.9998 0.9998 2.004499e-02 -70.2861 190.9741)" class="st1" cx="62.3" cy="131.3" rx="3.2" ry="3.2"/>
		<path class="st1" d="M58.2,131.3c0-2.3,1.9-4.1,4.2-4s4.1,1.9,4,4.2c0,2.3-1.9,4.1-4.2,4C59.9,135.4,58.1,133.5,58.2,131.3z
			 M60,131.3c0,1.3,1,2.3,2.2,2.3c1.3,0,2.3-1,2.3-2.2c0-1.3-1-2.3-2.2-2.3C61.1,129,60,130,60,131.3z"/>
	</g>
	<g>
		<path class="st1" d="M80.4,135.3c0,1.8,1.4,3.2,3.1,3.2c1.8,0,3.2-1.4,3.2-3.1c0-1.8-1.4-3.2-3.1-3.2
			C81.9,132.2,80.4,133.6,80.4,135.3z"/>
		<path class="st1" d="M79.5,135.3c0-2.3,1.9-4.1,4.2-4c2.3,0,4.1,1.9,4,4.2c0,2.3-1.9,4.1-4.2,4C81.2,139.5,79.4,137.6,79.5,135.3z
			 M81.3,135.4c0,1.3,1,2.3,2.2,2.3c1.3,0,2.3-1,2.3-2.2c0-1.3-1-2.3-2.2-2.3C82.4,133.1,81.3,134.1,81.3,135.4z"/>
	</g>
	<g>
		
			<ellipse transform="matrix(2.001175e-02 -0.9998 0.9998 2.001175e-02 -23.5702 265.0978)" class="st1" cx="123.4" cy="144.6" rx="3.2" ry="3.2"/>
		<path class="st1" d="M119.4,144.5c0-2.3,1.9-4.1,4.2-4c2.3,0,4.1,1.9,4,4.2c0,2.3-1.9,4.1-4.2,4
			C121.1,148.6,119.3,146.7,119.4,144.5z M121.2,144.5c0,1.3,1,2.3,2.2,2.3c1.3,0,2.3-1,2.3-2.2c0-1.3-1-2.3-2.2-2.3
			C122.2,142.3,121.2,143.3,121.2,144.5z"/>
	</g>
	<g>
		
			<ellipse transform="matrix(2.002283e-02 -0.9998 0.9998 2.002283e-02 -92.5418 156.1004)" class="st1" cx="33.4" cy="125.3" rx="3.2" ry="3.2"/>
		<path class="st1" d="M29.3,125.2c0-2.3,1.9-4.1,4.2-4c2.3,0,4.1,1.9,4,4.2c0,2.3-1.9,4.1-4.2,4C31,129.3,29.2,127.4,29.3,125.2z
			 M31.1,125.2c0,1.3,1,2.3,2.2,2.3c1.3,0,2.3-1,2.3-2.2c0-1.3-1-2.3-2.2-2.3C32.2,123,31.1,124,31.1,125.2z"/>
	</g>
	<g>
		
			<ellipse transform="matrix(2.005385e-02 -0.9998 0.9998 2.005385e-02 10.3883 273.3196)" class="st1" cx="144.6" cy="131.4" rx="3.2" ry="3.2"/>
		<path class="st1" d="M140.5,131.3c0-2.3,1.9-4.1,4.2-4c2.3,0,4.1,1.9,4,4.2c0,2.3-1.9,4.1-4.2,4
			C142.3,135.4,140.5,133.5,140.5,131.3z M142.4,131.3c0,1.3,1,2.3,2.2,2.3c1.3,0,2.3-1,2.3-2.2c0-1.3-1-2.3-2.2-2.3
			C143.4,129.1,142.4,130.1,142.4,131.3z"/>
	</g>
	<g>
		
			<ellipse transform="matrix(2.018133e-02 -0.9998 0.9998 2.018133e-02 12.6991 250.2502)" class="st1" cx="134" cy="118.6" rx="3.2" ry="3.2"/>
		<path class="st1" d="M129.9,118.6c0-2.3,1.9-4.1,4.2-4c2.3,0,4.1,1.9,4,4.2c0,2.3-1.9,4.1-4.2,4
			C131.7,122.7,129.9,120.8,129.9,118.6z M131.8,118.6c0,1.3,1,2.3,2.2,2.3c1.3,0,2.3-1,2.3-2.2c0-1.3-1-2.3-2.2-2.3
			C132.8,116.3,131.8,117.3,131.8,118.6z"/>
	</g>
	<g>
		
			<ellipse transform="matrix(2.014815e-02 -0.9998 0.9998 2.014815e-02 66.0541 262.3687)" class="st1" cx="166.9" cy="97.5" rx="3.2" ry="3.2"/>
		<path class="st1" d="M162.8,97.4c0-2.3,1.9-4.1,4.2-4c2.3,0,4.1,1.9,4,4.2c0,2.3-1.9,4.1-4.2,4C164.5,101.5,162.7,99.7,162.8,97.4
			z M164.6,97.4c0,1.3,1,2.3,2.2,2.3c1.3,0,2.3-1,2.3-2.2c0-1.3-1-2.3-2.2-2.3C165.7,95.2,164.6,96.2,164.6,97.4z"/>
	</g>
	<g>
		
			<ellipse transform="matrix(2.002283e-02 -0.9998 0.9998 2.002283e-02 98.302 308.3698)" class="st1" cx="206.5" cy="104" rx="3.2" ry="3.2"/>
		<path class="st1" d="M202.4,104c0-2.3,1.9-4.1,4.2-4c2.3,0,4.1,1.9,4,4.2c0,2.3-1.9,4.1-4.2,4C204.1,108.1,202.3,106.2,202.4,104z
			 M204.2,104c0,1.3,1,2.3,2.2,2.3s2.3-1,2.3-2.2c0-1.3-1-2.3-2.2-2.3C205.2,101.7,204.2,102.7,204.2,104z"/>
	</g>
	<g>
		
			<ellipse transform="matrix(2.016512e-02 -0.9998 0.9998 2.016512e-02 135.933 214.0614)" class="st1" cx="177.2" cy="37.7" rx="3.2" ry="3.2"/>
		<path class="st1" d="M173.1,37.6c0-2.3,1.9-4.1,4.2-4c2.3,0,4.1,1.9,4,4.2c0,2.3-1.9,4.1-4.2,4C174.8,41.7,173,39.9,173.1,37.6z
			 M174.9,37.6c0,1.3,1,2.3,2.2,2.3c1.3,0,2.3-1,2.3-2.2c0-1.3-1-2.3-2.2-2.3C176,35.4,174.9,36.4,174.9,37.6z"/>
	</g>
</g>
<g>
	<path class="st3" d="M28.5,149.2H18.4V97.7H5.5v-8.1l23.1-2.2V149.2z"/>
	<path class="st3" d="M90,127.4c0,7-1.8,12.5-5.4,16.6c-3.6,4-8.4,6.1-14.5,6.1c-6,0-10.9-2-14.5-6.1c-3.6-4.1-5.5-9.6-5.5-16.6
		v-17.3c0-7,1.8-12.5,5.4-16.6c3.6-4.1,8.5-6.1,14.5-6.1s10.9,2,14.5,6.1c3.6,4.1,5.5,9.6,5.5,16.6V127.4z M79.9,108.6
		c0-4.1-0.9-7.2-2.6-9.5c-1.7-2.3-4.1-3.4-7.2-3.4c-3.1,0-5.5,1.1-7.2,3.4c-1.7,2.3-2.5,5.5-2.5,9.5v20.3c0,4.1,0.9,7.3,2.6,9.6
		c1.7,2.3,4.2,3.4,7.3,3.4c3.1,0,5.5-1.1,7.2-3.4c1.7-2.3,2.5-5.5,2.5-9.7V108.6z"/>
	<path class="st3" d="M138.7,127.4c0,7-1.8,12.5-5.4,16.6c-3.6,4-8.4,6.1-14.5,6.1c-6,0-10.9-2-14.5-6.1c-3.6-4.1-5.5-9.6-5.5-16.6
		v-17.3c0-7,1.8-12.5,5.4-16.6c3.6-4.1,8.5-6.1,14.5-6.1s10.9,2,14.5,6.1c3.6,4.1,5.5,9.6,5.5,16.6V127.4z M128.5,108.6
		c0-4.1-0.9-7.2-2.6-9.5c-1.7-2.3-4.1-3.4-7.2-3.4c-3.1,0-5.5,1.1-7.2,3.4c-1.7,2.3-2.5,5.5-2.5,9.5v20.3c0,4.1,0.9,7.3,2.6,9.6
		c1.7,2.3,4.2,3.4,7.3,3.4c3.1,0,5.5-1.1,7.2-3.4c1.7-2.3,2.5-5.5,2.5-9.7V108.6z"/>
	<g>
		<path class="st3" d="M144.5,87.3c0-5,1.6-9.1,4.8-12.5c3.2-3.4,7.6-5,13.1-5c5.6,0,10,1.7,13.2,5c3.2,3.3,4.8,7.5,4.8,12.5v4.5
			c0,5-1.6,9.1-4.8,12.4c-3.2,3.3-7.6,5-13.1,5c-5.6,0-10-1.7-13.2-5c-3.2-3.3-4.8-7.5-4.8-12.4V87.3z M154.4,91.8
			c0,2.5,0.7,4.6,2.1,6.3c1.4,1.7,3.5,2.6,6.1,2.6c2.6,0,4.5-0.9,5.9-2.6c1.4-1.7,2.1-3.8,2.1-6.4v-4.5c0-2.5-0.7-4.7-2.1-6.4
			c-1.4-1.7-3.4-2.6-6-2.6c-2.6,0-4.6,0.9-6,2.6c-1.4,1.7-2.1,3.9-2.1,6.4V91.8z M165.5,149.5l-7.3-4.2l41.5-66.4l7.3,4.2
			L165.5,149.5z M185.3,135c0-4.9,1.6-9.1,4.8-12.4c3.2-3.4,7.6-5,13.1-5c5.6,0,10,1.7,13.2,5c3.2,3.3,4.8,7.5,4.8,12.5v4.5
			c0,5-1.6,9.2-4.8,12.5c-3.2,3.3-7.6,5-13.1,5c-5.6,0-10-1.7-13.2-5c-3.2-3.3-4.8-7.5-4.8-12.5V135z M195.2,139.6
			c0,2.5,0.7,4.6,2.2,6.4c1.5,1.7,3.5,2.6,6,2.6c2.7,0,4.7-0.8,6.1-2.5c1.3-1.7,2-3.8,2-6.4V135c0-2.5-0.7-4.6-2.1-6.4
			c-1.4-1.7-3.4-2.6-6-2.6c-2.6,0-4.6,0.9-6,2.6c-1.4,1.7-2.1,3.9-2.1,6.4V139.6z"/>
	</g>
</g>
<g>
	<path class="st3" d="M45.4,191.2c0,5.3-1.7,9.6-5,13.1c-3.3,3.5-7.6,5.2-12.9,5.2c-5.2,0-9.4-1.7-12.6-5.2s-4.9-7.8-4.9-13.1v-7.8
		c0-5.3,1.6-9.6,4.8-13.1c3.2-3.5,7.4-5.2,12.6-5.2c5.3,0,9.6,1.7,12.9,5.2c3.3,3.5,5,7.8,5,13.1V191.2z M38.2,183.4
		c0-3.6-1-6.5-2.9-8.9c-1.9-2.3-4.5-3.5-7.8-3.5c-3.2,0-5.7,1.2-7.5,3.5s-2.7,5.3-2.7,8.9v7.8c0,3.6,0.9,6.6,2.8,8.9
		c1.8,2.3,4.3,3.5,7.5,3.5c3.3,0,5.9-1.2,7.8-3.5s2.9-5.3,2.9-8.9V183.4z"/>
	<path class="st3" d="M86.8,208.9h-7.2l-19.1-31.1l-0.2,0.1v31h-7.2v-43.1h7.2l19.1,31.1l0.2-0.1v-31h7.2V208.9z"/>
	<path class="st3" d="M103,203.2h20.2v5.7H95.8v-43.1h7.2V203.2z"/>
	<path class="st3" d="M137.1,208.9h-7.2v-43.1h7.2V208.9z"/>
	<path class="st3" d="M180.5,208.9h-7.2l-19.1-31.1l-0.2,0.1v31h-7.2v-43.1h7.2l19.1,31.1l0.2-0.1v-31h7.2V208.9z"/>
	<path class="st3" d="M213.6,189.5h-16.9v13.7h19.9v5.7h-27.1v-43.1h26.9v5.8h-19.7v12.2h16.9V189.5z"/>
</g>
</svg>
