<?xml version="1.0" encoding="utf-8"?>
<!-- Generator: Adobe Illustrator 20.1.0, SVG Export Plug-In . SVG Version: 6.00 Build 0)  -->
<svg version="1.0" id="Layer_1" xmlns="http://www.w3.org/2000/svg" xmlns:xlink="http://www.w3.org/1999/xlink" x="0px" y="0px"
	 viewBox="0 0 226.8 226.8" style="enable-background:new 0 0 226.8 226.8;" xml:space="preserve">
<style type="text/css">
	.st0{opacity:0.71;}
	.st1{fill:#6BCE91;}
	.st2{fill-rule:evenodd;clip-rule:evenodd;fill:#6BCE91;}
	.st3{fill:#2C3E50;}
	.st4{fill:#183044;}
	.st5{fill:#41C470;}
	.st6{fill:#454C53;}
	.st7{fill:#85C9D4;}
	.st8{fill:#009192;}
	.st9{fill:#E5BC00;}
	.st10{fill:#FFFFFF;}
	.st11{fill:#2C3E50;stroke:#ECF0F1;stroke-width:0.5;stroke-miterlimit:10;}
	.st12{fill:#2C3E50;stroke:#6BCE91;stroke-miterlimit:10;}
	.st13{fill:#6BCE91;stroke:#6BCE91;stroke-miterlimit:10;}
	.st14{fill:none;stroke:#6BCE91;stroke-miterlimit:10;}
	.st15{fill:#9B9B9B;stroke:#333333;stroke-width:0.5;stroke-miterlimit:10;}
	.st16{fill:#333333;}
	.st17{fill:#FFFFFF;stroke:#333333;stroke-width:0.5;stroke-miterlimit:10;}
	.st18{fill:#CC4B4C;stroke:#333333;stroke-width:0.5;stroke-miterlimit:10;}
	.st19{fill:none;stroke:#727272;stroke-width:0.5;stroke-miterlimit:10;}
	.st20{fill:#E9E9E0;}
	.st21{fill:#D9D7CA;}
	.st22{fill:#CC4B4C;}
	.st23{fill:#4D4D4D;}
	.st24{fill:#8CC63F;}
	.st25{fill:#666666;}
	.st26{fill:#FF1D23;}
	.st27{fill:none;stroke:#2C3E50;stroke-width:0.5;stroke-miterlimit:10;}
	.st28{fill:#ECF0F1;}
	.st29{fill:#70C1B3;}
	.st30{fill:#2980B9;}
	.st31{fill:#6A6A6A;}
	.st32{fill:#FFB857;}
	.st33{fill:#E74C3C;}
</style>
<g>
	<g>
		<polygon class="st1" points="123.2,24.5 202.4,145.3 100.6,212.2 5.6,67.3 85.9,14.6 		"/>
		<polygon class="st5" points="85.9,14.6 123.2,24.5 101.7,38.7 		"/>
	</g>
	<g>
		<g>
			
				<rect x="21.6" y="55.3" transform="matrix(0.8323 -0.5543 0.5543 0.8323 -28.1226 26.2351)" class="st6" width="15.4" height="8.5"/>
			<g>
				<g>
					<g>
						<polygon class="st7" points="20.9,60.3 36.5,69.4 32,78.4 19.9,71 						"/>
						<polygon class="st8" points="20.7,62.5 35.6,71.3 32.9,76.5 20.1,68.8 						"/>
					</g>
				</g>
				<g>
					<g>
						<polygon class="st7" points="33.4,51.8 36.1,69.7 46.1,68.8 43.8,54.8 						"/>
						<polygon class="st8" points="35.6,52.5 38.2,69.5 44.1,69 41.6,54.2 						"/>
					</g>
				</g>
				
					<ellipse transform="matrix(0.8277 -0.5611 0.5611 0.8277 -35.5374 35.5597)" class="st9" cx="40.1" cy="75.7" rx="11.6" ry="11.6"/>
				
					<ellipse transform="matrix(0.8277 -0.5611 0.5611 0.8277 -35.5378 35.5607)" class="st10" cx="40.1" cy="75.7" rx="9.8" ry="9.8"/>
			</g>
		</g>
		<polygon class="st9" points="36.4,69.8 36.6,67.6 38.4,68.9 39.3,66.8 40.6,68.6 42.1,66.9 42.8,69 44.8,67.9 44.8,70.1 47,69.6 
			46.3,71.8 48.5,72 47.2,73.8 49.3,74.7 47.5,76 49.2,77.5 47,78.2 48.2,80.1 46,80.1 46.4,82.3 44.3,81.7 44.1,83.9 42.3,82.6 
			41.4,84.7 40.1,82.9 38.6,84.5 37.9,82.4 36,83.6 35.9,81.3 33.7,81.8 34.4,79.7 32.2,79.5 33.5,77.7 31.4,76.8 33.2,75.4 
			31.5,74 33.7,73.2 32.5,71.3 34.8,71.3 34.3,69.1 		"/>
	</g>
	<g>
		<polygon class="st3" points="201.1,52.2 221.2,195.2 100.6,212.2 76.5,40.6 171.7,27.3 		"/>
		<polygon class="st4" points="171.7,27.3 201.1,52.2 175.7,55.7 		"/>
	</g>
	<g>
		<g>
			<rect x="93" y="41" transform="matrix(0.9877 -0.1563 0.1563 0.9877 -5.8376 16.2953)" class="st6" width="15.4" height="8.5"/>
			<g>
				<g>
					<g>
						<polygon class="st7" points="92.8,42.3 103.2,57.1 95.3,63.3 87.4,51.6 						"/>
						<polygon class="st8" points="91.7,44.2 101.5,58.4 97,62 88.5,49.7 						"/>
					</g>
				</g>
				<g>
					<g>
						<polygon class="st7" points="107.7,39.8 102.7,57.2 112.2,60.5 115.9,46.8 						"/>
						<polygon class="st8" points="109.4,41.3 104.7,57.9 110.2,59.8 114.2,45.4 						"/>
					</g>
				</g>
				
					<ellipse transform="matrix(0.9864 -0.1644 0.1644 0.9864 -9.1713 17.9454)" class="st9" cx="103.9" cy="64.4" rx="11.6" ry="11.6"/>
				
					<ellipse transform="matrix(0.9864 -0.1644 0.1644 0.9864 -9.1719 17.9468)" class="st10" cx="103.9" cy="64.4" rx="9.8" ry="9.8"/>
			</g>
		</g>
		<polygon class="st9" points="102.9,57.4 104,55.4 105.2,57.4 106.8,55.9 107.3,58.1 109.3,57.1 109.1,59.4 111.3,59.1 110.4,61.2 
			112.6,61.6 111.1,63.3 113,64.4 111.1,65.5 112.6,67.2 110.4,67.7 111.3,69.7 109.1,69.5 109.3,71.7 107.3,70.8 106.8,73 
			105.2,71.5 104,73.4 102.9,71.5 101.3,73 100.8,70.8 98.8,71.7 99,69.5 96.8,69.7 97.7,67.6 95.5,67.2 97,65.5 95.1,64.4 97,63.3 
			95.5,61.6 97.7,61.2 96.8,59.1 99,59.4 98.8,57.1 100.8,58.1 101.3,55.9 		"/>
	</g>
</g>
</svg>
