<?xml version="1.0" encoding="utf-8"?>
<!-- Generator: Adobe Illustrator 20.1.0, SVG Export Plug-In . SVG Version: 6.00 Build 0)  -->
<svg version="1.0" id="Layer_1" xmlns="http://www.w3.org/2000/svg" xmlns:xlink="http://www.w3.org/1999/xlink" x="0px" y="0px"
	 viewBox="0 0 226.8 226.8" style="enable-background:new 0 0 226.8 226.8;" xml:space="preserve">
<style type="text/css">
	.st0{opacity:0.71;}
	.st1{fill:#6BCE91;}
	.st2{fill-rule:evenodd;clip-rule:evenodd;fill:#6BCE91;}
	.st3{fill:#2C3E50;}
	.st4{fill:#183044;}
	.st5{fill:#41C470;}
	.st6{fill:#454C53;}
	.st7{fill:#85C9D4;}
	.st8{fill:#009192;}
	.st9{fill:#E5BC00;}
	.st10{fill:#FFFFFF;}
	.st11{fill:#2C3E50;stroke:#ECF0F1;stroke-width:0.5;stroke-miterlimit:10;}
	.st12{fill:#2C3E50;stroke:#6BCE91;stroke-miterlimit:10;}
	.st13{fill:#6BCE91;stroke:#6BCE91;stroke-miterlimit:10;}
	.st14{fill:none;stroke:#6BCE91;stroke-miterlimit:10;}
	.st15{fill:#9B9B9B;stroke:#333333;stroke-width:0.5;stroke-miterlimit:10;}
	.st16{fill:#333333;}
	.st17{fill:#FFFFFF;stroke:#333333;stroke-width:0.5;stroke-miterlimit:10;}
	.st18{fill:#CC4B4C;stroke:#333333;stroke-width:0.5;stroke-miterlimit:10;}
	.st19{fill:none;stroke:#727272;stroke-width:0.5;stroke-miterlimit:10;}
	.st20{fill:#E9E9E0;}
	.st21{fill:#D9D7CA;}
	.st22{fill:#CC4B4C;}
	.st23{fill:#4D4D4D;}
	.st24{fill:#8CC63F;}
	.st25{fill:#666666;}
	.st26{fill:#FF1D23;}
	.st27{fill:none;stroke:#2C3E50;stroke-width:0.5;stroke-miterlimit:10;}
	.st28{fill:#ECF0F1;}
	.st29{fill:#70C1B3;}
	.st30{fill:#2980B9;}
	.st31{fill:#6A6A6A;}
	.st32{fill:#FFB857;}
	.st33{fill:#E74C3C;}
</style>
<g>
	<ellipse class="st12" cx="113.4" cy="29.7" rx="19.8" ry="21"/>
	<path class="st12" d="M106.7,56.2c0,0-13.1,1.5-18.4,11.5c-9.6,18.3,2.6,58.3,14.1,138.8c0.1,0.5-0.2,0.9-0.5,1
		c-7.6,1.5-12.7,4.3-12.7,7.5c0,4.8,11.3,2.5,25.3,2.5s25.3,2.3,25.3-2.5c0-3.5-6-6.5-14.7-7.9c-0.4-0.1-0.6-0.5-0.6-1
		c11.5-80.3,23.7-120.1,14-138.4c-5.3-10-18.4-11.5-18.4-11.5l-6.7,7.7L106.7,56.2z"/>
	<polygon class="st13" points="113.4,114 108.8,109.1 113.4,72.6 117.9,109.1 	"/>
	<line class="st14" x1="113.4" y1="151.2" x2="113.4" y2="217.2"/>
</g>
</svg>
