<?xml version="1.0" encoding="utf-8"?>
<!-- Generator: Adobe Illustrator 20.1.0, SVG Export Plug-In . SVG Version: 6.00 Build 0)  -->
<svg version="1.0" id="Layer_1" xmlns="http://www.w3.org/2000/svg" xmlns:xlink="http://www.w3.org/1999/xlink" x="0px" y="0px"
	 viewBox="0 0 226.8 226.8" style="enable-background:new 0 0 226.8 226.8;" xml:space="preserve">
<style type="text/css">
	.st0{opacity:0.71;}
	.st1{fill:#6BCE91;}
	.st2{fill-rule:evenodd;clip-rule:evenodd;fill:#6BCE91;}
	.st3{fill:#2C3E50;}
	.st4{fill:#183044;}
	.st5{fill:#41C470;}
	.st6{fill:#454C53;}
	.st7{fill:#85C9D4;}
	.st8{fill:#009192;}
	.st9{fill:#E5BC00;}
	.st10{fill:#FFFFFF;}
	.st11{fill:#2C3E50;stroke:#ECF0F1;stroke-width:0.5;stroke-miterlimit:10;}
	.st12{fill:#2C3E50;stroke:#6BCE91;stroke-miterlimit:10;}
	.st13{fill:#6BCE91;stroke:#6BCE91;stroke-miterlimit:10;}
	.st14{fill:none;stroke:#6BCE91;stroke-miterlimit:10;}
	.st15{fill:#9B9B9B;stroke:#333333;stroke-width:0.5;stroke-miterlimit:10;}
	.st16{fill:#333333;}
	.st17{fill:#FFFFFF;stroke:#333333;stroke-width:0.5;stroke-miterlimit:10;}
	.st18{fill:#CC4B4C;stroke:#333333;stroke-width:0.5;stroke-miterlimit:10;}
	.st19{fill:none;stroke:#727272;stroke-width:0.5;stroke-miterlimit:10;}
	.st20{fill:#E9E9E0;}
	.st21{fill:#D9D7CA;}
	.st22{fill:#CC4B4C;}
	.st23{fill:#4D4D4D;}
	.st24{fill:#8CC63F;}
	.st25{fill:#666666;}
	.st26{fill:#FF1D23;}
	.st27{fill:none;stroke:#2C3E50;stroke-width:0.5;stroke-miterlimit:10;}
	.st28{fill:#ECF0F1;}
	.st29{fill:#70C1B3;}
	.st30{fill:#2980B9;}
	.st31{fill:#6A6A6A;}
	.st32{fill:#FFB857;}
	.st33{fill:#E74C3C;}
	.st34{font-family:'MyriadPro-Regular';}
	.st35{font-size:3.4791px;}
</style>
<g>
	<g>
		<path class="st1" d="M44.7,47.1h17.5h156.1c2.2,0,4,1.6,4,3.6V184c0,2-1.8,3.6-4,3.6H8.5c-2.2,0-4-1.6-4-3.6V52.7v-1.2
			c0-2.4,2.2-4.4,5-4.4H44.7z"/>
		<g>
			<path class="st10" d="M8.5,187.3c-2.1,0-3.8-1.4-3.8-3.1v-133c0-2.1,2.1-3.8,4.6-3.8H35c2.5,0,4.6,1.7,4.6,3.8
				c0,2.4,2.3,4.3,5.1,4.3h173.6c2.1,0,3.8,1.4,3.8,3.1v125.6c0,1.7-1.7,3.1-3.8,3.1H8.5z"/>
			<g>
				<path class="st3" d="M35,47.6c2.4,0,4.4,1.6,4.4,3.6c0,2.5,2.4,4.6,5.4,4.6h173.6c1.9,0,3.5,1.3,3.5,2.9v125.6
					c0,1.6-1.6,2.9-3.5,2.9H8.5c-1.9,0-3.5-1.3-3.5-2.9V60.5v-5.3v-4.1c0-2,2-3.6,4.4-3.6H35 M35,47.1H9.3c-2.7,0-4.9,1.8-4.9,4.1
					v4.1v5.3v123.7c0,1.9,1.8,3.4,4,3.4h209.9c2.2,0,4-1.5,4-3.4V58.6c0-1.9-1.8-3.4-4-3.4H44.7c-2.7,0-4.9-1.8-4.9-4.1
					C39.9,48.9,37.7,47.1,35,47.1L35,47.1z"/>
			</g>
		</g>
		<rect x="196.6" y="48.9" class="st10" width="5" height="4.2"/>
		<rect x="204.6" y="48.9" class="st10" width="5" height="4.2"/>
		<rect x="212.5" y="48.9" class="st26" width="5" height="4.2"/>
		<text transform="matrix(1.1951 0 0 1 11.5298 53.5786)" class="st34 st35">MATERIAL</text>
		<path class="st27" d="M201.6,63.6H25.1c-0.6,0-1.2-0.5-1.2-1.2v-2.3c0-0.6,0.5-1.2,1.2-1.2h176.5c0.6,0,1.2,0.5,1.2,1.2v2.3
			C202.8,63.1,202.3,63.6,201.6,63.6z"/>
	</g>
	<g>
		<path class="st28" d="M134.6,124.6H91.1c0,0,1.8-2.8,1.8-5.6c0-2.8-1.8-5.6-1.8-5.6h43.5c3.1,0,5.6,2.5,5.6,5.6v0
			C140.2,122.1,137.7,124.6,134.6,124.6z"/>
		<g>
			<path class="st29" d="M134.1,125.4H91.5c-0.4,0-0.8-0.3-0.8-0.8l0,0c0-0.4,0.3-0.8,0.8-0.8h42.6c2.7,0,4.9-2.2,4.9-4.9
				c0-2.6-2.2-4.7-4.8-4.7H91.5c-0.4,0-0.8-0.3-0.8-0.8l0,0c0-0.4,0.3-0.8,0.8-0.8h42.7c3.5,0,6.3,2.8,6.3,6.2
				C140.6,122.5,137.6,125.4,134.1,125.4z"/>
		</g>
		<path class="st28" d="M128.5,137.8H85c0,0,1.8-2.8,1.8-5.6c0-2.8-1.8-5.6-1.8-5.6h43.5c3.1,0,5.6,2.5,5.6,5.6v0
			C134.1,135.3,131.6,137.8,128.5,137.8z"/>
		<g>
			<path class="st30" d="M128,138.6H85.4c-0.4,0-0.8-0.3-0.8-0.8l0,0c0-0.4,0.3-0.8,0.8-0.8H128c2.7,0,4.9-2.2,4.9-4.9
				c0-2.6-2.2-4.7-4.8-4.7H85.4c-0.4,0-0.8-0.3-0.8-0.8l0,0c0-0.4,0.3-0.8,0.8-0.8h42.7c3.5,0,6.3,2.8,6.3,6.2
				C134.5,135.7,131.5,138.6,128,138.6z"/>
		</g>
		<path class="st28" d="M130.8,151.3H87.3c0,0,1.8-2.8,1.8-5.6c0-2.8-1.8-5.6-1.8-5.6h43.5c3.1,0,5.6,2.5,5.6,5.6v0
			C136.3,148.8,133.9,151.3,130.8,151.3z"/>
		<g>
			<path class="st31" d="M130.3,152.1H87.7c-0.4,0-0.8-0.3-0.8-0.8l0,0c0-0.4,0.3-0.8,0.8-0.8h42.6c2.7,0,4.9-2.2,4.9-4.9
				c0-2.6-2.2-4.7-4.8-4.7H87.7c-0.4,0-0.8-0.3-0.8-0.8l0,0c0-0.4,0.3-0.8,0.8-0.8h42.7c3.5,0,6.3,2.8,6.3,6.2
				C136.8,149.2,133.8,152.1,130.3,152.1z"/>
		</g>
		<path class="st28" d="M130.8,178.2H87.3c0,0,1.8-2.8,1.8-5.6c0-2.8-1.8-5.6-1.8-5.6h43.5c3.1,0,5.6,2.5,5.6,5.6v0
			C136.3,175.7,133.9,178.2,130.8,178.2z"/>
		<g>
			<path class="st32" d="M130.3,179H87.7c-0.4,0-0.8-0.3-0.8-0.8l0,0c0-0.4,0.3-0.8,0.8-0.8h42.6c2.7,0,4.9-2.2,4.9-4.9
				c0-2.6-2.2-4.7-4.8-4.7H87.7c-0.4,0-0.8-0.3-0.8-0.8l0,0c0-0.4,0.3-0.8,0.8-0.8h42.7c3.5,0,6.3,2.8,6.3,6.2
				C136.8,176.1,133.8,179,130.3,179z"/>
		</g>
		<path class="st28" d="M96.7,164.8h43.5c0,0-1.8-2.8-1.8-5.6c0-2.8,1.8-5.6,1.8-5.6H96.7c-3.1,0-5.6,2.5-5.6,5.6v0
			C91.2,162.3,93.7,164.8,96.7,164.8z"/>
		<g>
			<path class="st33" d="M97.2,165.5h42.6c0.4,0,0.8-0.3,0.8-0.8l0,0c0-0.4-0.3-0.8-0.8-0.8l-42.6,0c-2.7,0-4.9-2.2-4.9-4.9
				c0-2.6,2.2-4.7,4.8-4.7h42.7c0.4,0,0.8-0.3,0.8-0.8v0c0-0.4-0.3-0.8-0.8-0.8H97.1c-3.5,0-6.3,2.8-6.3,6.2
				C90.7,162.6,93.7,165.5,97.2,165.5z"/>
		</g>
		<path class="st3" d="M140.5,76.2L140,76c-1.2-0.4-2.5,0.3-2.9,1.3L126,108H90.6c-1.2,0-2,0.9-2,2v0.5c0,1.1,0.8,0.5,2,0.5h40v1.6
			l-0.5,0l12.1-33.8C142.6,77.7,141.7,76.5,140.5,76.2z"/>
	</g>
</g>
</svg>
