<svg xmlns="http://www.w3.org/2000/svg" viewBox="5279 -596 137.944 79.492">
  <defs>
    <style>
      .cls-1 {
        opacity: 0.6;
      }

      .cls-2, .cls-3 {
        fill: #73c38e;
      }

      .cls-2 {
        fill-rule: evenodd;
      }

      .cls-4 {
        fill: #e74c3c;
      }
    </style>
  </defs>
  <g id="Group_145" data-name="Group 145" transform="translate(-234.1 -1422.984)">
    <g id="Group_143" data-name="Group 143" transform="translate(5513.1 826.984)">
      <g id="Group_142" data-name="Group 142" class="cls-1" transform="translate(0 0)">
        <path id="Path_101" data-name="Path 101" class="cls-2" d="M421.209,67.281c-.095.189-.284.378-.095.662.095.189-.189.662-.284.756a.555.555,0,0,0-.189.473c0,.189-.284.378-.378.473s-.284.567-.473.662c-.095.095-.189.567.095.662s.473.662.095.756-.378.567-.284.756a5.007,5.007,0,0,0,.567.945c.189.095.473,1.229.662,1.512.095.284.662,1.323.567,1.7,0,.378.473.851.567.945a8.261,8.261,0,0,0,.945.756c.189.095.851.284.756,1.418-.095,1.04-.189,3.119-.189,3.5a1.471,1.471,0,0,1-.284.851,2.634,2.634,0,0,0-.095.945,8.151,8.151,0,0,1-.284,2.647,6.249,6.249,0,0,0-.284,2.268,3,3,0,0,1-.284.851,2.455,2.455,0,0,0,.378.945c.189.284,0,.851,0,1.134a.8.8,0,0,0,0,.662.808.808,0,0,1-.284.567,2.925,2.925,0,0,0-.095,1.418c.095.567.284,1.607.284,1.7s0,1.04.284,1.134.095.567,1.134.473a1.843,1.843,0,0,1,.756.095c.189.189.567,0,.851-.095s.189-.284-.189-.378-.756-.284-.851-.567c-.189-.284-.095-.567-.284-.851-.095-.189-.567-.567,0-1.04a3.7,3.7,0,0,0,1.134-1.512c0-.284-.095-.378-.284-.378s-.567-.756.189-1.134c.851-.284.567-1.418.378-1.607-.189-.284-.284-.567,0-.756.189-.284.567.473.945,0,.378-.378,0-.945.189-1.134s1.134.756,1.89-.567a1.355,1.355,0,0,0-.378-1.512c-.095-.284-.662-.756-.473-.851s.662.378.945.567.756.473,1.134,0c.284-.567.567-.567.567-.945s.189-.567.284-.567.378-.284.567-.851.756-.945.567-1.418a.854.854,0,0,1,.378-1.229c.567-.284.378-.567.567-.567a.566.566,0,0,0,.567-.284c.189-.284.567-.189.662-.189s.662-.095.662-.567a2.375,2.375,0,0,1,.567-1.323,3.606,3.606,0,0,0,.284-1.8c0-.567-.189-.945.284-1.418a2.2,2.2,0,0,0,.756-1.134c.284-.473.567-.284.567-1.418s-.284-1.512-.567-1.323-.567,0-.851-.378-.473-.756-.662-.756-.662.378-.851,0a.323.323,0,0,0-.567-.095c-.095.095-.284.189-.284-.378s-.473-.473-.567-.473a2.471,2.471,0,0,1-.756-.284.6.6,0,0,0-.851,0c-.284.284-.567.095-.284-.189s.756-.756.567-.945c-.189-.284-.473-.095-.473-.756,0-.567-.567-1.134-1.512-1.134-.945-.095-1.323-.284-1.418-.567-.189-.284-.095-.567-.662-.756s-.567-.851-1.04-.851-1.229.284-1.229,0-.473.095-.756-.284-.851-.284-.851,0,0,.945-.284.851-.284-.284-.189-.756.284-.851,0-.851-.284.567-.567.567-.662,0-.756.473-.945.473-.756,1.134C421.115,67,421.4,66.9,421.209,67.281Z" transform="translate(-385.103 -19.534)"/>
        <path id="Path_102" data-name="Path 102" class="cls-2" d="M448.105,52.868c-.284.284-.473.945-.189,1.04.189.095.189.473-.095.851s-.473.567-.662.567c-.189-.095-.378-.189-.756.756a16.292,16.292,0,0,1-1.229,2.552c-.189.189-.095.662.095.662.189.095.189.473.189.756s.284,1.04-.095,1.418c-.378.473-.756.756-.567.945a1.518,1.518,0,0,1,.473,1.04c0,.284.473.662.662.851.284.189.662.662.567.851-.189.189,0,.567.284.756a7.136,7.136,0,0,1,1.323,1.04c.095.284.284.473.851.378a18.511,18.511,0,0,1,1.89-.284,1.6,1.6,0,0,0,.945-.284c.189-.189.473-.567.945-.473.567.095.851.189.945.567.095.284.095.473.756.473.756-.095.756.189.945.378s0,.945,0,1.323-.567.662-.284,1.134.945,1.134.945,1.418.567.473.567.851.473,1.04.284,1.418a.967.967,0,0,0,.189.945c.189.189,0,.567-.284.945a3.189,3.189,0,0,0-.567,1.607c-.095.662-.189,1.229.189,1.512a1.276,1.276,0,0,1,.473.945,1.653,1.653,0,0,1,.473,1.229,3.714,3.714,0,0,0,.284,2.268,2.583,2.583,0,0,1,.662,1.418c0,.284,0,.473.189.567s.284.473.095.567a.467.467,0,0,0,.095.662c.189.284.284.945.851.662a4.407,4.407,0,0,1,1.512-.473,1.7,1.7,0,0,0,1.7-1.04c.662-1.134,1.512-2.552,1.607-2.647.095-.189.284-.473-.095-.473-.378-.095-.095-.567.189-.662s.756.095,1.04-.284-.095-1.04-.095-1.418c-.095-.284-.473-.662-.473-.945,0-.189.284-.284.662-.473a1.464,1.464,0,0,0,.756-.756c.095-.284.945-.189,1.04-1.04a6.743,6.743,0,0,0-.284-2.836,2.115,2.115,0,0,1-.284-1.418,5.526,5.526,0,0,1,.378-1.8,19.231,19.231,0,0,1,1.418-1.607,13.746,13.746,0,0,0,1.607-1.8,8.321,8.321,0,0,0,.567-1.607c.189-.378.756-1.04.756-1.512.095-.473.095-.756-.473-.567s-1.229.189-1.607.378-.945.567-1.134-.284a2.236,2.236,0,0,0-.756-1.418,2.485,2.485,0,0,1-.851-1.323,1.222,1.222,0,0,0-.567-.851c-.189-.095-.284-.945-.284-1.229s-.095-.662-.378-.756-.189-.473-.284-.851a2.785,2.785,0,0,0-.473-1.229c-.284-.284-.851-1.134-.662-1.323s.473.378.662.567.284-.095.284-.662c.095-.567-.189-1.134-.662-1.134s-.945-.095-1.134.095c-.284.189-.378.284-1.04.095s-1.512-.851-1.89-.945-.851.095-.756.473-.095.945-.378,1.04-.284-.473-.662-.567-.662-.945-1.418-1.04c-.662-.095-1.512.095-1.607-.378s.095-.567.189-.567c.189,0,.284-.473.189-.567s.284-.756-.189-.756-1.418.284-2.174.284a2.315,2.315,0,0,0-2.174.473,1.468,1.468,0,0,1-1.512.378,1.291,1.291,0,0,0-1.04.567C448.578,52.774,448.294,52.679,448.105,52.868Z" transform="translate(-386.479 -18.826)"/>
        <path id="Path_103" data-name="Path 103" class="cls-2" d="M498.151,81.2c-.189.189-.851.378-.756.662a1.043,1.043,0,0,1-.095.662,4.449,4.449,0,0,0,.189.473,2.559,2.559,0,0,0,0,1.229,9.845,9.845,0,0,1,.662,2.647c0,.851,0,1.04.284,1.134a.6.6,0,0,0,.851-.095,1.679,1.679,0,0,1,.945-.378c.284,0,.851.189,1.04-.189a1.785,1.785,0,0,1,1.229-.662c.189,0,.851-.189,1.134-.189a1.577,1.577,0,0,1,.945,0c.095.095.473,0,.662.378l.378.756c.189.378.284.284.473.095s.378-.189.378-.284.189-.284.284.095a2.922,2.922,0,0,1,.189.756c0,.284.378.189.473.473s0,.756.473,1.04.851.378.945.473.284,0,.473-.189c.189-.284.189-.378.473,0s.284.567.567.284.189-.567.662-.567.378,0,.473-.189c.189-.189-.094-.378,0-.567.189-.189.189-.567.284-.851a2.911,2.911,0,0,1,.473-1.134,1.166,1.166,0,0,0,.473-.756,3.217,3.217,0,0,1,.189-1.323c.189-.378-.094-.378-.189-.662-.094-.189.095-.851-.189-1.229a4.728,4.728,0,0,1-.473-.662c-.094-.095,0-.662-.284-.756s-.284-.378-.378-.662c-.189-.284-.189-.473-.378-.662s-.851-.095-.851-.662a2.528,2.528,0,0,0-.189-1.04c-.094-.189-.094-.756-.284-.945s-.473.284-.567-.284a1.683,1.683,0,0,0-.284-1.04c-.095-.189-.189-.567-.378-.095a10.906,10.906,0,0,0-.189,1.512,2.761,2.761,0,0,1-.189.851c-.095.189-.095.662-.284.662s-.756-.662-1.04-.851-.945-.473-.851-.756a4.109,4.109,0,0,1,.378-.662c.095-.189.189-.567-.189-.473-.378,0-.567-.095-.756-.095s-.473-.095-.473.095-.378.095-.567.095a.572.572,0,0,0-.567.473c-.095.378-.378.567-.189.662.189.189.095.284-.095.189-.189-.189-.567-.095-.662-.284s-.189-.473-.473-.189c-.189.189-.567.662-.756.851s-.378.378-.378.473-.095.189-.189.095c-.095-.189-.378-.095-.378.378s-.095.756-.378.851-.567,0-.851.284a.786.786,0,0,1-.662.284C498.623,80.918,498.434,81.013,498.151,81.2Z" transform="translate(-389.36 -20.222)"/>
        <path id="Path_104" data-name="Path 104" class="cls-2" d="M423.547,36.116c-.189.284-.284.851-.756.567s-.662-.473-.662-.756.284-.945-.189-.851-.662-.284-1.134-.567a3.86,3.86,0,0,0-1.512-.378c-.189,0-.189.095-.284.473-.189.378-.473.756-.189.945a.532.532,0,0,1,0,.851c-.284.189-.189.284.095.756s.567,1.04.095,1.512-.851.567-.567.945a1.991,1.991,0,0,1,.378,1.04c0,.284-.189.473-.567.662s-.567-.284-.756-.567-.095-.851-.284-1.04a2.05,2.05,0,0,0-.662-.567c-.378-.284-1.418-.945-1.7-1.134a2.016,2.016,0,0,0-1.134-.284c-.284,0-.473-.189-.473-.567s-.095-.378-.378-.378-.284-.473-.284-.851a1.65,1.65,0,0,1,.378-1.134,1.992,1.992,0,0,0,.473-1.04c-.095-.189.095-.284.378-.284a1.981,1.981,0,0,0,1.134-.284c.473-.284.567-1.229.662-1.418s.189-.567.567-.284a.869.869,0,0,0,1.134-.095c.284-.284.189-.567.095-.851a.555.555,0,0,1,.189-.473c.095,0,.189-.473-.189-.473a2.257,2.257,0,0,1-.851-.189.291.291,0,0,0-.378.378c.189.189-.284.378-.378.567-.189.189-.095.756-.473.662s-.378-.756-.378-1.04a.545.545,0,0,0-.567-.567c-.378,0-.567.189-.756-.095-.095-.284.378-.473.095-.662s-1.134-1.04-1.418-.851-.756,1.04-.284,1.229,1.229.662.662,1.134-.095.851-.567,1.04-.095-.473-1.134-.473a3.611,3.611,0,0,1-1.8-.284,2.757,2.757,0,0,0-1.512-.095c-.284.095-.378.378-.189.756.189.284-.284.378-.284.378a3.56,3.56,0,0,0-1.323-.567,2.5,2.5,0,0,1-1.323-.284,1.355,1.355,0,0,0-1.134-.756,10.213,10.213,0,0,0-1.985-.473c-.851,0-1.8-.284-2.268-.284-.473.095-.945.473-1.229.473-.284.095-.567-.284-.851.095-.284.473-.473.662-.756.284a6.813,6.813,0,0,0-3.214-.945,10.793,10.793,0,0,1-3.119-.473,4.728,4.728,0,0,0-2.646.095,2.411,2.411,0,0,0-1.134.851.967.967,0,0,1-.851.378c-.284,0-.756.473-.095.662a3.542,3.542,0,0,1,1.229.662c.284.284.662.756,0,.567s-.851-.378-1.323-.284a.632.632,0,0,0-.378.945,1.163,1.163,0,0,0,.945.473c.378,0,1.229-.378,1.229-.095s-.095.851-.473.945a5.529,5.529,0,0,0-1.418.567c-.473.284.095.756.473.945.378.284,1.134.473,1.134.851-.095.473.095.567.756.378.567-.189,1.7-.662.851.378a7.117,7.117,0,0,1-2.079,1.8c-.378.189-.851.378-.662.567.189.095.284.095.851-.189a6.707,6.707,0,0,0,2.079-1.229c.567-.567,1.512-.945,1.418-1.323-.189-.378.378-1.04.567-1.134s.284-.095.095.284-.284.662-.095.662c.095,0,.189-.095.662-.378s.662-.378.662-.567.095-.378.567-.284c.378.095.756.567,1.512.756a5.31,5.31,0,0,1,1.89.284c.473.284.567.567,1.04.473s.851.378,1.134.945a30.037,30.037,0,0,0,1.512,3.025c.567.662.284.662.378,1.04a3.635,3.635,0,0,0,.473,1.134,10.73,10.73,0,0,1,.756,3.4,5.6,5.6,0,0,0,.851,3.214c.567.851.851,1.512,1.323,1.607s.662.284.851.945a15.145,15.145,0,0,0,1.04,2.741c.284.378,1.134,2.174,1.418,1.985s0-.567-.284-.945-.662-1.418-1.04-1.985-.756-1.323-.473-1.512.756,1.04,1.04,1.512,1.229,1.8,1.7,2.457c.473.756.756,1.04.662,1.607s.756,1.134,1.512,1.607a12.051,12.051,0,0,0,1.89.851.428.428,0,0,0,.662-.189c.189-.284.567.095.756.378a2.411,2.411,0,0,0,1.418.851,1,1,0,0,1,.945.756c.189.473.284,1.04.662,1.229s.662.473,1.04.662.378.284.756-.095a.677.677,0,0,1,.945,0c.095.095.284-.095,0-.378s-.567-.284-1.04-.189-.473.284-.945-.284-.473-.378-.378-1.04.662-1.89.095-1.89a8.149,8.149,0,0,0-1.607.095c-.284,0-.473-.095-.378-.473.189-.378.473-.378.473-1.04s.378-1.418-.284-1.229-.756.473-.945.945-.378.378-.662.378-.945.284-1.323-.378-.756-1.323-.567-1.8c.095-.567,0-1.134.095-1.7a1.491,1.491,0,0,1,.473-1.229,3.268,3.268,0,0,1,1.985-.473c.473.189.756.378.567-.095-.095-.473.284-.473.756-.378.473,0,1.323-.189,1.512.284s.095,1.04.284,1.512c.284.473.567.851.756.851.284,0,.378-.662.189-1.134a5.079,5.079,0,0,1-.473-1.985,1.533,1.533,0,0,1,.851-1.04c.473-.284,1.418-.851,1.323-1.607s0-1.7.567-1.8c.567-.189,1.418-.756,1.418-1.512s.378-1.229.756-1.229.378,0,.662-.284.378,0,.189.378,0,.473.189.567c.189,0,.284-.378.662-.662a6.214,6.214,0,0,1,1.134-.567c.284-.095,0-.756-.567-.756-.473,0-.851,0-.851-.189s.284-.378.284-.851a.658.658,0,0,0-.756-.662,5.666,5.666,0,0,0-1.134,1.04c-.189.284-.378.284-.473.189s0-.567.473-.945c.567-.378.756-.851,1.229-.945a7.64,7.64,0,0,1,1.512.095c.378,0,.756.095.851-.284.189-.284.284-.567.567-.473s0,.473-.189,1.04-.473.851-.473,1.229.378.284.756.189a1.272,1.272,0,0,1,1.134.473c.189.284.473,0,.662-.284.095-.284.189-.756-.095-.756-.284-.095-.567-.756-1.04-.756s-.473-.284-.189-.473.662-.378.284-1.04-.189-.567-.473-1.04c-.284-.378-.284-.945-.945-.756s-.662-.284-.851-.473a.7.7,0,0,1-.095-.851c.284-.284.095-.284-.284-.567-.284-.284-.662-.851-.567-1.134C424.4,35.549,424.114,35.171,423.547,36.116Z" transform="translate(-383.188 -17.575)"/>
        <path id="Path_105" data-name="Path 105" class="cls-2" d="M407.947,29.643a1.7,1.7,0,0,1,1.418-.284c.662.284.945.378,1.229.189s.851-.756.284-1.04-1.04-.473-1.04-.945a1.442,1.442,0,0,0-.662-1.04c-.284-.095-.567.284-.473.473.189.284-.189.284-.473,0A2.929,2.929,0,0,0,407,26.43c-.378-.095-.756.095-1.323-.189-.473-.284-.756-.756-1.04-.662-.378.095-.662-.095-1.04-.284a.868.868,0,0,0-.945.189c-.189.095.284.284-.095.662s-1.04.851-.473,1.229.567.756,1.323.473c.756-.378.851-.851,1.04-.851s0,.756.284,1.134.473,1.418,1.512,1.323c.284-.095.473.284.567.378C406.908,29.832,407,30.116,407.947,29.643Z" transform="translate(-384.129 -17.435)"/>
        <path id="Path_106" data-name="Path 106" class="cls-2" d="M412.476,29.955a1.625,1.625,0,0,1,.756.095c.189.095.284,0,.473-.284.284-.284.094-.378-.284-.473a1.566,1.566,0,0,0-1.134,0C411.908,29.483,412,30.05,412.476,29.955Z" transform="translate(-384.687 -17.653)"/>
        <path id="Path_107" data-name="Path 107" class="cls-2" d="M411.279,27.125a3.317,3.317,0,0,1,.756.473q.284.425.851,0c.378-.284.473-.473.189-.851-.284-.284.284-.851-.284-.851s-.945-.284-1.512.284S410.9,26.936,411.279,27.125Z" transform="translate(-384.625 -17.468)"/>
        <path id="Path_108" data-name="Path 108" class="cls-2" d="M417.5,33.438c.189-.284.284-1.229.662-1.04l1.323.662c.378.284.756.473.284.756-.378.284-.756-.095-.851-.378s-.378,0-.473.284-.378.473-.756.189C417.4,33.722,417.4,33.627,417.5,33.438Z" transform="translate(-384.982 -17.827)"/>
        <path id="Path_109" data-name="Path 109" class="cls-2" d="M421.586,32.594c.189-.095.473-.095.851.284a4.247,4.247,0,0,0,1.418,1.04c.567.284.945.284,1.04.473.095.095.662.095.378-.189s-1.04-.662-.945-.851.851.284,1.134.473.378-.095.473-.284a1.152,1.152,0,0,0-.473-1.04c-.473-.284-1.134-1.04-.945-1.323s.473-.189.851.378c.378.473.662,1.229,1.04.567s1.04-1.229.473-1.323c-.567,0-.756-.567-1.323-.662s-.756,0-1.04-.284a.445.445,0,0,1,.095-.756c.284-.095.189-.662-.378-.945a7.925,7.925,0,0,1-1.8-.851c-.378-.284-.756-.662-1.229-.662a5.772,5.772,0,0,0-1.229.284c-.473.095-.567,0-.473-.473s0-.851-.473-.851-.851.756-.851.945,0,.567-.189.473c-.284,0-.189-.473,0-.945s0-.473-.473-.378-1.134.284-1.323.756c-.095.473,0,1.512.473,1.512a.945.945,0,0,1,.756.284,12.518,12.518,0,0,0,1.512.189c.567.095,1.04.189,1.04,0,0-.284.378-.284.473.095a1.016,1.016,0,0,0,.851.756c.473.095.756.284.662.662-.095.473.189.756-.284.945-.473.284.662.756-.189.662-.756-.095-.851-.284-1.04,0-.284.284,0,.473.095.756C420.924,32.783,421.208,32.972,421.586,32.594Z" transform="translate(-384.912 -17.456)"/>
        <path id="Path_110" data-name="Path 110" class="cls-2" d="M414,26.359v.662c.095.189.284.378.567.189s.756-.756,1.04-.851c.189-.095.473-.662,0-.662a3.812,3.812,0,0,0-1.04,0C414.095,25.7,414,25.6,414,26.359Z" transform="translate(-384.794 -17.459)"/>
        <path id="Path_111" data-name="Path 111" class="cls-2" d="M431.717,33.445c.378.473.756,1.229,1.134,1.229.284,0,.756-.095.851.189s.378.851.662,0,.473-1.04.473-1.512c0-.378,0-.567.284-.756s.473-.378.473-.662.378-.473.567-.473c.189-.095.662-.567.851-.473s.284,0,.756-.378.851-.662.851-1.04c0-.284.284-.378.378-.284a1.127,1.127,0,0,0,1.229,0c.473-.284,1.418-.945,1.607-1.04s.851-.473.662-1.134c-.189-.567-.473-.378-.284-.851.284-.473.284-.662.567-.662s.378-.378.473-.567c.189-.189.095-.756,0-1.134s-.473-.473,0-1.134c.378-.756.378-.756.378-1.229a1.44,1.44,0,0,1,.567-1.04,4.612,4.612,0,0,1,1.229-.945c.567-.284.851-.284.473-.756-.378-.567-.567-.189-1.134-.095s-1.607.378-1.985.473a5.776,5.776,0,0,0-1.323.662c-.284.189-.473-.095-.095-.378s1.04-.473,1.229-.756c.095-.284.945-.756.095-.851a18.51,18.51,0,0,0-1.89-.284c-.567,0-1.04.095-1.323-.189a1.363,1.363,0,0,0-1.229-.284c-.567.095-1.229,0-1.418.095s-.473-.284-.851-.189c-.473.189-.662.473-.567.567s-.284,0-.756,0c-.567,0-.945.095-1.229.095s-.095.473-.756.473c-.567,0-1.229-.095-1.323-.095a5.29,5.29,0,0,0-1.134.189c-.851.189-1.229.189-1.7.284-.473,0-1.134.189-.945.567s0,.473-.756.473a2.438,2.438,0,0,0-1.512.473c0,.095.095.284.567.284.473-.095.662.189.284.567a3.138,3.138,0,0,1-1.512.473c-.473,0-1.607.284-1.134.662s.945.378.945.473-.284.095.095.473a2.84,2.84,0,0,1,.756.851c.095.189.378.189.756-.095a3.076,3.076,0,0,1,2.363.284c.567.378,1.512,1.323,1.512,2.079s-.095,1.323.284,1.323.945-.756,1.418,0,.756,1.7,0,1.985-1.134.473-1.04,1.229A4.98,4.98,0,0,0,431.717,33.445Z" transform="translate(-385.308 -16.984)"/>
        <path id="Path_112" data-name="Path 112" class="cls-2" d="M418.094,58.783c.189,0,.473-.378.662-.284a3.83,3.83,0,0,0,1.04,0,.491.491,0,0,1,.378.189,6.629,6.629,0,0,0,.851.567l.756.378c.189.095.473.189.284.284-.095.095-.284.095-.567.095s-.567-.095-.567-.284-.284-.378-.473-.473c-.189,0-.473,0-.567-.189a.52.52,0,0,0-.473-.284c-.284,0-.851-.095-.662.095.189.284,0,.473-.189.378-.284-.095-.378-.095-.473-.189C417.9,58.972,418,58.783,418.094,58.783Z" transform="translate(-385.012 -19.259)"/>
        <path id="Path_113" data-name="Path 113" class="cls-2" d="M422.589,60.959c.094,0,.094-.378.189-.567a1.185,1.185,0,0,1,.851-.095,4.854,4.854,0,0,1,.945.378c.095.095.189.473-.189.473s-.378,0-.567.189-.284,0-.662,0h-.662C422.305,61.432,422.4,60.959,422.589,60.959Z" transform="translate(-385.254 -19.356)"/>
        <path id="Path_114" data-name="Path 114" class="cls-2" d="M421.075,60.8c-.189-.095-.567,0-.378.189s.378.284.473.378.189,0,.378,0c.095,0,0-.189-.189-.284C421.264,60.892,421.264,60.892,421.075,60.8Z" transform="translate(-385.158 -19.383)"/>
        <path id="Path_115" data-name="Path 115" class="cls-2" d="M422.5,59.492c0,.095.095.284.189.284s.284-.095.189-.284C422.878,59.3,422.595,59.3,422.5,59.492Z" transform="translate(-385.26 -19.306)"/>
        <path id="Path_116" data-name="Path 116" class="cls-2" d="M425.477,60.695c-.189,0-.473.095-.378.284s.095.284.378.284a1.454,1.454,0,0,0,.567-.378c.095-.095.473-.284.189-.284S425.666,60.695,425.477,60.695Z" transform="translate(-385.401 -19.375)"/>
        <path id="Path_117" data-name="Path 117" class="cls-2" d="M427.5,65.182c.094.189.094.284.284.284s.378-.378.378-.378-.094-.284-.284-.189C427.593,64.9,427.4,65.088,427.5,65.182Z" transform="translate(-385.532 -19.609)"/>
        <path id="Path_118" data-name="Path 118" class="cls-2" d="M428.591,64.459c-.189-.095-.189-.189-.095-.284a.506.506,0,0,0,.284-.378s.189-.095.284,0,.095.189-.094.378c-.284.095-.095.095-.095.189A.347.347,0,0,1,428.591,64.459Z" transform="translate(-385.585 -19.548)"/>
        <path id="Path_119" data-name="Path 119" class="cls-2" d="M428.9,63.389c0-.095,0-.189.189-.189.095,0,.284,0,.284.189s-.189.284-.284.189C428.995,63.578,428.995,63.484,428.9,63.389Z" transform="translate(-385.611 -19.517)"/>
        <path id="Path_120" data-name="Path 120" class="cls-2" d="M428.892,62.469a.181.181,0,0,1-.094-.284c.094-.095.094-.378.284-.189s.378.284.189.378A.715.715,0,0,1,428.892,62.469Z" transform="translate(-385.603 -19.448)"/>
        <path id="Path_121" data-name="Path 121" class="cls-2" d="M428.389,61.884a.2.2,0,0,1-.189-.189c0-.095.095-.095.284-.095.095,0,.189.095.095.189S428.484,61.884,428.389,61.884Z" transform="translate(-385.572 -19.429)"/>
        <path id="Path_122" data-name="Path 122" class="cls-2" d="M429.2,62.887c-.095.095-.095-.189,0-.189s.189-.095.189,0S429.29,62.7,429.2,62.887Z" transform="translate(-385.623 -19.487)"/>
        <path id="Path_123" data-name="Path 123" class="cls-2" d="M427.688,61.181c-.095,0-.284-.095-.189-.189s0-.189.284-.095c.189.095.284.284.189.378S427.877,61.276,427.688,61.181Z" transform="translate(-385.532 -19.389)"/>
        <path id="Path_124" data-name="Path 124" class="cls-2" d="M420.692,57.666c-.189,0-.189-.284,0-.473.189-.095.284-.189.284,0s-.094.378,0,.473.378.095.189.189-.189.189-.378.095C420.786,57.761,420.786,57.666,420.692,57.666Z" transform="translate(-385.153 -19.182)"/>
        <path id="Path_125" data-name="Path 125" class="cls-2" d="M421,56.865a.568.568,0,0,0,.095-.378c-.095-.189,0-.284.189-.189s.378.189.284.473-.095.284,0,.378-.095.095-.189,0A.422.422,0,0,1,421,56.865Z" transform="translate(-385.178 -19.137)"/>
        <path id="Path_126" data-name="Path 126" class="cls-2" d="M421.792,57.876a.181.181,0,0,1-.095-.284c.095-.095.189-.189.284-.095,0,.189-.189.284-.189.378Z" transform="translate(-385.214 -19.202)"/>
        <path id="Path_127" data-name="Path 127" class="cls-2" d="M422.289,58.384c-.095-.189-.189,0-.189-.095,0-.189,0-.189.189-.189.095,0,.095.095.189.189s.189.189.095.189S422.289,58.478,422.289,58.384Z" transform="translate(-385.238 -19.238)"/>
        <path id="Path_128" data-name="Path 128" class="cls-2" d="M420.588,56.676c.095,0,.189-.189.189-.284s-.095-.189-.189-.095-.284.189-.189.378C420.493,56.77,420.493,56.676,420.588,56.676Z" transform="translate(-385.143 -19.137)"/>
        <path id="Path_129" data-name="Path 129" class="cls-2" d="M427.065,43.662a5.789,5.789,0,0,0-.567-.378.181.181,0,0,1,.095-.284c.189,0,.378.189.662.378.189.189.189.189.095.284S427.065,43.662,427.065,43.662Z" transform="translate(-385.477 -18.41)"/>
        <path id="Path_130" data-name="Path 130" class="cls-2" d="M427.89,45.168c-.095-.095-.284-.284-.095-.473s.284,0,.284.189.189.284.095.473c0,.284-.284.284-.284.095S427.984,45.168,427.89,45.168Z" transform="translate(-385.546 -18.499)"/>
        <path id="Path_131" data-name="Path 131" class="cls-2" d="M426.386,35.668c-.189,0-.378-.189-.094-.378.189-.189.284-.284.284,0C426.67,35.479,426.575,35.668,426.386,35.668Z" transform="translate(-385.46 -17.977)"/>
        <path id="Path_132" data-name="Path 132" class="cls-2" d="M419.067,34.966c.189-.189.189-.284.284-.284.095-.095.189-.378-.095-.284a.736.736,0,0,0-.662.284.277.277,0,0,0,.095.473C418.973,35.155,418.973,35.061,419.067,34.966Z" transform="translate(-385.04 -17.937)"/>
        <path id="Path_133" data-name="Path 133" class="cls-2" d="M421.382,30.948c-.189,0-.378-.095-.284-.378s.284-.662.567-.473c.284.284.567.378.284.662A.933.933,0,0,1,421.382,30.948Z" transform="translate(-385.182 -17.7)"/>
        <path id="Path_134" data-name="Path 134" class="cls-2" d="M404.957,23.816c.095-.189.567-.284.473-.662-.189-.378-.095-.945-.567-.756-.378.189-.662.095-.945.473s-.567.756-.851.756-.662-.095-.567.284.284.662.662.378c.284-.189.378-.284.662-.189s1.04-.662.851-.189c-.189.378-.095.662.095.378C405.051,24,404.862,24,404.957,23.816Z" transform="translate(-384.163 -17.279)"/>
        <path id="Path_135" data-name="Path 135" class="cls-2" d="M405.192,24.527a.738.738,0,0,0,.378-.378c.095-.284.189-.378.473-.378s.473.378.756.473a1.453,1.453,0,0,1,.567.378c.095,0,.756,0,.662-.189,0-.189-.473-.378-.378-.567.095-.284.378-.851.567-.473.095.378,0,.662.284.662s.662-.095.662.284c-.095.378,0,.945-.284.945-.378,0-.662-.189-1.04,0-.378.095-.851.473-1.04.378-.284-.095-.567-.189-.473-.284s.095-.473-.189-.284-.473.095-.851.095C405,25,405,24.621,405.192,24.527Z" transform="translate(-384.304 -17.328)"/>
        <path id="Path_136" data-name="Path 136" class="cls-2" d="M413.782,25.151c.378,0,.567.095.756.095.095,0,.378-.284,0-.473-.284-.189-.567-.662-.662-.378a2.062,2.062,0,0,1-.378.473C413.4,24.867,413.593,25.151,413.782,25.151Z" transform="translate(-384.765 -17.385)"/>
        <path id="Path_137" data-name="Path 137" class="cls-2" d="M412.633,24.527c0-.284.094-.473.094-.662a.318.318,0,0,0-.378-.473c-.378,0-.473-.284-.756,0s-.189.473-.567.662-.378.189-.473,0c-.094-.284-.094-.473-.378-.662-.189-.095-.567,0-.378.284.095.378.567.662.567.851s.284.284.662.284.662,0,.756.095.378.095.567.095C412.633,24.9,412.633,24.716,412.633,24.527Z" transform="translate(-384.561 -17.328)"/>
        <path id="Path_138" data-name="Path 138" class="cls-2" d="M407.99,22.531c-.095-.189-.189-.378.095-.378.284-.095.567-.189.284-.378-.284-.284-.662-.567-.945-.378a1.205,1.205,0,0,1-.567.378c-.284.095-.662-.284-.756,0,0,.284.095.756.284.851.284.095.662-.095.662.095s.284.189.567.189C407.99,22.814,408.085,22.72,407.99,22.531Z" transform="translate(-384.361 -17.222)"/>
        <path id="Path_139" data-name="Path 139" class="cls-2" d="M410.56,22.122c.284-.095.284-.189.662.095a1.438,1.438,0,0,0,.567.378c.189.095.378.095.378-.284-.095-.284.189-.567-.284-.756s-.945-.095-1.134-.378-.189-.473-.567-.378c-.378,0-.378.284-.189.473s.284.284.189.473c-.095.095,0,.378.095.473C410.465,22.216,410.465,22.122,410.56,22.122Z" transform="translate(-384.567 -17.192)"/>
        <path id="Path_140" data-name="Path 140" class="cls-2" d="M416,23.861a.425.425,0,0,0,.567.378c.378-.095.567,0,.662.189s.284.284.662,0a1.307,1.307,0,0,1,1.134-.284c.378.095,1.134.189.851.473s-.189.567-.567.662-.851-.189-.945-.095-.473,0-.756,0-1.04,0-1.04-.189-.284-.189-.378-.095-.284.095-.567.095-.284-.189-.378-.567-.189-.756-.567-.662c-.284,0-.567.095-.756-.095a.553.553,0,0,1-.284-.662c.095-.095.284-.473-.189-.378-.473,0-.567.095-.662-.284s-.473-1.04,0-.851.567.284.851.378c.378.095.378.095.284.378,0,.284.851.189.567.473s-.189.378.095.378.378.095.378.189.189,0,.378,0A.608.608,0,0,1,416,23.861Z" transform="translate(-384.715 -17.229)"/>
        <path id="Path_141" data-name="Path 141" class="cls-2" d="M415.523,22.224a2.258,2.258,0,0,0,.851-.284c.284-.095.756-.378.567-.662s-.567-.284-.473-.567.095-.378-.284-.567a1.42,1.42,0,0,1-.851-.662c-.284-.378-.378-.378-.567-.095a1.019,1.019,0,0,0-.189.662c0,.189-.095.189-.189.473s-.378.473,0,.567c.378,0,.662.189.662.284s-.473.284-.284.567A.944.944,0,0,0,415.523,22.224Z" transform="translate(-384.805 -17.105)"/>
        <path id="Path_142" data-name="Path 142" class="cls-2" d="M418.263,23.465c0,.473.851-.284,1.04-.095.189.095.189.378.567.284.378-.189.662-.095.756-.284s0-.284-.189-.378c-.189-.189-.189-.378.094-.378s.095-.473.473-.473.756-.095.756-.378c0-.189-.284-.662.189-.756a2.8,2.8,0,0,0,1.418-.567,1.11,1.11,0,0,1,.945-.567c.567-.095.284-.473.567-.851a1.473,1.473,0,0,1,1.134-.284c.378,0,.756,0,.756-.284s0-.567-.756-.567a26.7,26.7,0,0,0-2.741-.189,25.7,25.7,0,0,0-2.836.378,4.615,4.615,0,0,0-1.8.378c-.473.284-.378.095-1.229.095s-1.512,0-1.512.284c0,.378.189.567.662.662s1.512.378,1.7.378c.284,0,.378.473-.189.378s-1.04.189-.756.473,1.04.662.567.756a1.361,1.361,0,0,0-.945.567c-.095.284.567.662.189.756s-.945.567-.284.567,1.04.095,1.134-.095C417.979,23.181,418.263,23.37,418.263,23.465Z" transform="translate(-384.898 -17.022)"/>
        <path id="Path_143" data-name="Path 143" class="cls-2" d="M383.762,33.87c.189.189.473.284.567.095.189-.189.189-.473-.378-.567s-.851,0-.851.095C383.195,33.776,383.573,33.776,383.762,33.87Z" transform="translate(-383.1 -17.881)"/>
        <path id="Path_144" data-name="Path 144" class="cls-2" d="M384.9,36.193a.506.506,0,0,0,.284.378.52.52,0,0,0,.473-.284C385.656,36.193,385.089,35.909,384.9,36.193Z" transform="translate(-383.199 -18.03)"/>
        <path id="Path_145" data-name="Path 145" class="cls-2" d="M390.375,37.894c-.189.189-.567.284-.378.567.189.189.284.189.567,0s.473-.378.284-.567C390.753,37.8,390.659,37.7,390.375,37.894Z" transform="translate(-383.475 -18.124)"/>
        <path id="Path_146" data-name="Path 146" class="cls-2" d="M452.056,40.108c-.284-.284-.378-.284-.567-.662-.284-.378-.284-.189-.473-.756-.095-.567-.095-.662.094-.756.095-.095.189-.378-.094-.378s-.662.095-.662,0,.189-.284.284-.378.189-.378-.189-.378a.744.744,0,0,0-.662.473c-.095.284-.189,0-.189.567,0,.473-.095.756.094.945.284.284.095.567.284.662s.378-.189.567.095.473.378.189.662c-.284.189-.567,0-.567.189s.189.473-.095.756.095.378.095.378a.336.336,0,0,1-.189.284c-.189.189-.378.473-.284.662.189.189.189,0,.473-.095s.284-.095.756-.284a2.911,2.911,0,0,1,1.04-.189c.189,0,.378,0,.378-.284a.555.555,0,0,1,.189-.473c.189-.095.284-.473.094-.567s-.284.095-.473-.095C451.962,40.486,452.151,40.2,452.056,40.108Z" transform="translate(-386.744 -18.07)"/>
        <path id="Path_147" data-name="Path 147" class="cls-2" d="M449.208,40.724c-.095-.284-.284-.284.095-.567a.367.367,0,0,0,.094-.567.532.532,0,0,0-.662-.095c-.284.189-.189.567-.378.567s-.284,0-.378.189-.094.567,0,.567a.3.3,0,0,1,.095.473c-.095.095-.662.095-.378.284.284.284.094.473.473.284C448.641,41.575,449.3,41.386,449.208,40.724Z" transform="translate(-386.637 -18.213)"/>
        <path id="Path_148" data-name="Path 148" class="cls-3" d="M523.73,30.629a1.354,1.354,0,0,0-1.04-.473,1.421,1.421,0,0,1-1.04-.378,11.76,11.76,0,0,0-1.89-.945,7.165,7.165,0,0,0-1.512-.567c-.567-.095-1.229-.284-1.418-.095s-.189.189-.189.473-.094.662-.378.567-.567-.756-1.04-.756-1.512-.284-1.985,0-.662.473-.756,0c-.095-.378-.473-1.323-1.323-1.229s-1.7.378-2.079.189-.378-1.229-1.134-1.134-1.323.378-1.512,0-.567-.945-.851-.945-.851.662-.851,1.04,0,.567-.378.662-.945-.095-1.229,0c-.284,0-1.04-.378-1.323.189-.189.567-.284.378-.662.095s-.662-.473-.567-.851c.095-.473-.567-.851-1.134-.851-.567-.095-.945-.189-1.04.189-.095.473-.473.378-.756.378s-1.323-.473-1.8-.473c-.473-.095-1.323,0-1.512-.189s-.189-.662-.662-.189-.473-.189.095-.473,1.04-.378,1.04-.851-.189-.756-.851-.756-1.89.284-1.7-.095c.189-.473,0-.662-.473-.662a1.714,1.714,0,0,0-1.229.284c-.284.378-.284.284-.662.378s-.189.662-.756.567c-.567,0-1.04-.284-1.512-.095s-1.134.284-1.89.567c-.662.284-1.89.662-1.607.945.284.378-.189.473-.662.473s-.945,0-.945.189.473.662.189.851-.945-.756-1.323-.567a1.264,1.264,0,0,0-.662.756c0,.284-.567.189-.473-.378.095-.473-.284-.662-.473-.189a4.249,4.249,0,0,0,.095,2.174c.189.473.378,1.7,0,2.079a1.646,1.646,0,0,1-1.134.756c-.567.095-.662-.189-.189-.378a1.135,1.135,0,0,0,.851-1.134,5.183,5.183,0,0,0-.284-1.985c-.189-.189-.095-.473,0-.851.189-.378.095-.662-.378-.567s-.851.095-1.04.662-.851,1.04-.473,1.607c.378.662.756.945.567,1.04a3.536,3.536,0,0,1-1.512-.662,3.772,3.772,0,0,0-1.229-.378c-.378-.095-.662,0-.378.284.284.378-.095.378-.378.378a7.64,7.64,0,0,0-1.512.095c-.189.095-.473.189-.473,0s-.284-.567-.945-.095-1.229.851-1.229,1.04-.662.189-.662-.095a.844.844,0,0,0-.567-.756c-.189,0-.662.378-.378.567.189.189,0,.662-.189.756a3.668,3.668,0,0,0-1.04.567c-.189.189-1.134,1.134-1.8.945s-.284-.851-.567-1.134.095-.473.567-.284.851.567,1.512,0,.189-.945-.284-1.134-2.174-.945-2.552-1.04-.284-1.134-1.7-1.04c-1.512.095-2.93.095-3.97,1.323a32.368,32.368,0,0,0-2.268,2.93c-.284.567-.189,1.229-1.229,1.512-1.04.378-1.134.851-1.134,1.7,0,.756-.095,1.7.662,1.607a1.584,1.584,0,0,0,1.323-.851c.095-.378.473.095.473.567-.095.473.284,1.04.378,1.323,0,.284.095.945.473.851.284-.095.378-.378.662-.756s.756-.284.662-.945.095-.756.284-.851.851-.567.378-.851a1.323,1.323,0,0,1-.567-.851c0-.189-.189-.567.378-.851a2.955,2.955,0,0,0,1.134-1.323.939.939,0,0,1,.945-.662c.473,0,1.04.189.567.567s-1.607,1.323-1.418,2.268c.189.851.095,1.512.756,1.134a3.589,3.589,0,0,1,1.7-.567c.473-.095.851.189.851.378s-.567.567-1.134.473c-.567,0-1.134-.189-1.134.189,0,.473.378.473.284.945s-.662.662-.662.284.189-.851-.095-.851c-.284.095-.284.756-.473,1.04s-.284.662,0,.851c.189.189-.095.189-.378.378h0c-.189.284-.378.473-.567.378s-.189-.095-.662.095a4.394,4.394,0,0,0-.851.284c-.189.095-.284-.095-.473-.095-.189-.095-.284-.189-.473.095-.189.189-.189.189-.378.095-.095-.095-.284-.095-.473-.473-.095-.378.189-.851.189-1.134s.095-.662.095-.851-.189-.095-.378.095-.756.284-.662.851a10.534,10.534,0,0,1,.284,1.229c0,.378,0,.662-.189.662a4.261,4.261,0,0,0-1.04.284c-.284.095-.378.189-.473.567s-.095.284-.378.378-.756.189-.851.473-.189.189-.473.473-.284.189-.473.189-.284.095-.284.378c.095.189,0,.095-.284.189-.284,0-.567.095-.851.095s-.189.378.095.473a1.33,1.33,0,0,1,.662.567c.095.284.189.189.284.378.095.095.378.473.284.756-.095.378-.095.473-.189.756,0,.284-.189.284-.567.189a6.172,6.172,0,0,0-1.04-.189,1.044,1.044,0,0,0-.756,0c-.284.095-.284,0-.567.095-.189.189-.095.378,0,.567s0,.567.095.756-.095.662-.189.945.095.567.095.756a.331.331,0,0,0,.284.473c.189,0,.662-.095.851.189.095.284.284.284.473.095.189-.095.756.189.945-.095.189-.378.567-.473.662-.756s.473-.378.284-.567a.4.4,0,0,1,.095-.567l.662-.662c.284-.189.378-.189.378-.567s0-.378.284-.473q.425-.284.567,0a.312.312,0,0,0,.473,0,.717.717,0,0,1,.378-.189q.142,0,.284-.284c.095-.095.189-.189.378-.095s.284.284.473.756a2.7,2.7,0,0,0,.662.945c.095.095.378.095.662.284a4.189,4.189,0,0,1,.662.851.6.6,0,0,1,0,.567c-.095.189-.095.473.095.284.284-.189.189-.378.284-.473s.284-.284.095-.473c-.189-.095-.189-.284-.095-.473s.284-.095.378,0a1.36,1.36,0,0,0,.284.189c.095-.095-.095-.284-.189-.378s-.378-.284-.473-.378,0-.284-.284-.284-.473-.284-.567-.473a1.7,1.7,0,0,0-.473-.662c-.189-.095-.284-.189-.189-.473s0-.378.284-.473c.284-.189.284,0,.284.189,0,.284.473-.095.567.284s.662.851.756.945c.189.095.662.284.756.473s.473.284.284.662c-.189.284.095.473.284.756a2.325,2.325,0,0,1,.378,1.04c0,.284.189.567.473.473s.945-.284.756-.662-.378-.473-.473-.756-.095-.567.189-.378c.189.095.095-.473.567-.378s.378.473.756.189c.378-.189.945-.284.662-.473s-.473-.378-.378-.662v-.095a.491.491,0,0,1,.189-.378c.189-.095.284-.473.473-.756.095-.284.378-.189.473-.567s.189-.662.473-.567c.378.095.567.473.473.662a.626.626,0,0,0,.189.662c.189.189.473-.095.662-.378s.378-.473.095-.567c-.284,0,.095-.473.473-.473a.375.375,0,0,1,.284.662.423.423,0,0,0,.189.756c.378.095.567.473.851.567.378.095.756.473.473.851s-.473.189-1.04.189-1.134-.473-1.7-.473-.662.189-.945.473c-.189.189-.567-.095-.945.284s-.473.567-.756.662a.664.664,0,0,0-.378.945,5.849,5.849,0,0,0,1.04.851c.189.189.378-.189.851-.095s.567.378,1.04.095.756-.284.473,0a2.594,2.594,0,0,0-.189,1.229,4,4,0,0,1-.378,1.134c-.095.378.095.473.189.851s-.095,1.134.095,1.418a12.665,12.665,0,0,1,.567,1.134c.189.378.662.567.851,1.323.095.756.284,1.323.662,1.512a1.146,1.146,0,0,1,.662,1.134c.095.473,0,1.323.189,1.607.189.378,0,.851.567.662a5.725,5.725,0,0,0,2.174-1.04,13.613,13.613,0,0,1,2.079-1.418,1.047,1.047,0,0,0,.662-.851,6.659,6.659,0,0,1,.662-.851c.189-.284.189-.567-.095-1.04s-.851-.378-.851-.756-.284-.756-.473-.567-.473.756-.851.851c-.378,0-.567,0-.567-.567s0-.662-.378-.756a1.843,1.843,0,0,1-.851-.851c-.189-.378-.284-.662.095-.945s.473.189.567.473.662.662.756.945a.8.8,0,0,0,1.04.473c.473-.095.945-.095,1.04.189s.189.567.662.473.662-.095.756.095.473.095.851,0,.284.189.756,0,.567,0,.662.473c.095.378.189.473.473.473.189,0,.095.284.095.567a.625.625,0,0,0,.567.662c.378,0,.567-.378.756-.473s.189.189.095.756a5.388,5.388,0,0,0,.284,2.363,17.611,17.611,0,0,1,.851,2.268c.095.473.189,1.323.473,1.323.189,0,.473-.284.756-.756s.378-.567.378-.945c0-.473.284-.567.189-1.04-.095-.567,0-1.04.284-1.04a.8.8,0,0,0,.662-.662.886.886,0,0,1,.567-.756,1.953,1.953,0,0,0,.851-1.04c.189-.567.284-.662.662-.567.284.095.662,0,.662-.189.095-.284.473-.378.473.095a.886.886,0,0,0,.473.851c.095.095.095.189.189.284h-.284c0,.473.284.756.284,1.04,0,.378-.095.945.284.851h0c0,.095.095.095.189.095.189,0,.284-.189.378-.378a.093.093,0,0,1,.095.095,3.492,3.492,0,0,1,.662,1.323,4.333,4.333,0,0,1,.095,1.89c-.189.378-.284.189.284,1.04s.284,1.04.567,1.7a2.062,2.062,0,0,0,.945,1.04c.284.189.284-.189.095-.756a5.459,5.459,0,0,0-.567-1.607c-.378-.567-1.04-.756-.851-1.985s.095-1.7.378-1.229c.284.378,1.229,1.323,1.418,1.7.284.378.756.095,1.418-.378s.662-.851.284-1.7a3.833,3.833,0,0,0-.473-.851h0l.189-.095a14.3,14.3,0,0,1-.851-1.512.633.633,0,0,1,.378-.662c.189-.095.284-.284.378-.378.284-.095.473-.095.378-.189s-.284,0-.378.095l.095-.095c.284-.378.567-.284.567.095,0,.473,0,.378-.284.756s-.189.473,0,.662.662-.378.756-.473c.189-.095-.095-.567-.189-.662a.455.455,0,0,1,.189-.567c.189-.095.851-.095,1.134-.378s.851-.095,1.323-.756.851-1.7,1.134-1.985a2.4,2.4,0,0,0,.473-1.512,5.457,5.457,0,0,0-.567-1.607c-.189-.473-.756-.851-.189-1.229s.662-.567.851-.567.378-.473,0-.473a7.061,7.061,0,0,0-1.04.189c-.189.095-.189-.095-.378-.473s0-.567.473-.567c.378,0,.945-1.323,1.04-.945.095.473.189.662.567.662s.567,0,.662.473.567,1.04.473,1.607-.095.945.378.756a1.322,1.322,0,0,0,.851-1.04c.095-.473-.473-.851-.662-1.134a.532.532,0,0,1,0-.851,4.257,4.257,0,0,0,.851-.945c.284-.378.284-.945.567-.662s.662.473,1.134-.189a13.315,13.315,0,0,0,1.7-2.552,3.607,3.607,0,0,0,.284-1.607c0-.473.189-.473.189-1.229s-.284-1.134-.567-1.134c-.189,0-.473.284-.851,0-.473-.284-.851-.189-.378-.662a7.218,7.218,0,0,0,1.7-1.7c.284-.473.473-.851,1.134-.945s1.323.378,1.7.378.473-.189.473-.284c0-.189.095-.189.284-.189s.567.189.284.473c-.284.189-.094.378.378.284s.662-.284.851-.189c.189,0,.378-.378.189-.378s-.189-.284.094-.378a4.783,4.783,0,0,0,.851-.756c.284-.378.567-.284.662-.189s.851-.189.662.095c-.189.378,0,.662.284.378.284-.189.189.189-.284.662-.567.473-.756.945-1.323,1.229-.567.189-.756,1.04-.662,1.607a13.981,13.981,0,0,1,.284,1.8c.095.473,0,1.04.284.851a2.311,2.311,0,0,0,.851-1.04c0-.284.473-.189.473-.567s.473-.284.473-.851c0-.473,0-.851.473-.851.378,0,.095-.567,0-1.134a1.2,1.2,0,0,1,.662-1.229c.473-.189.756-.095.945-.284a.575.575,0,0,1,.756,0c.189.189.473.284.756-.189s1.04-.473,1.418-.851a1.3,1.3,0,0,1,1.229-.378c.378.095.567-.378.284-.756s-.567-.567-.189-.662.851-.189.756-.567c-.189-.378.284-.473.473-.189s.378.095.662.095.473.567.851.756a.5.5,0,0,0,.756-.284c.094-.189,0-.473.378-.473C523.824,31.2,524.013,31.007,523.73,30.629Z" transform="translate(-386.678 -17.286)"/>
        <path id="Path_149" data-name="Path 149" class="cls-2" d="M492.448,69.4a4.029,4.029,0,0,1-1.134-1.04c-.189-.378-.378-.662-.756-.662s-1.04-.284-.567.284c.378.567,1.134,1.134,1.323,1.8.284.567.851,1.512,1.134,2.174s.851,1.134,1.229,1.134.756-.756.378-1.229c-.473-.378-.662-1.134-.945-1.512A3.035,3.035,0,0,0,492.448,69.4Z" transform="translate(-388.95 -19.76)"/>
        <path id="Path_150" data-name="Path 150" class="cls-2" d="M495.615,73.778a3.387,3.387,0,0,1-1.04-.378c-.284,0-.756.567-.094.756a6.383,6.383,0,0,0,1.323.189c.567.095,1.323.378,1.512.378.189.095.473-.378,0-.473-.473-.189-.378-.567-.851-.662C495.993,73.589,495.9,73.778,495.615,73.778Z" transform="translate(-389.187 -20.076)"/>
        <path id="Path_151" data-name="Path 151" class="cls-2" d="M496.919,71.716c.756-.095.756.662,1.323,0s.756-.756.662-1.323-.284-.473.095-.662c.378-.095.095-.662,0-1.04-.189-.378.095-.567.284-.756s.095-.473-.095-.851-.378-.284-.662-.095-.189.756-.567.851-.378.473-.662.567-.567.095-.662.378c0,.378-.095.284-.473.189s-.378-.095-.567.284,0,.756.189,1.323C496.068,71.527,496.352,71.811,496.919,71.716Z" transform="translate(-389.262 -19.716)"/>
        <path id="Path_152" data-name="Path 152" class="cls-2" d="M499.267,75.277a.421.421,0,0,1-.567-.284c0-.189.284-.095.473-.095C499.267,74.9,499.645,74.993,499.267,75.277Z" transform="translate(-389.437 -20.157)"/>
        <path id="Path_153" data-name="Path 153" class="cls-2" d="M501.592,75.451c.378-.378.473-.567.851-.662s.851-.378.378,0-.662.378-.851.662C501.686,75.64,501.214,75.734,501.592,75.451Z" transform="translate(-389.587 -20.142)"/>
        <path id="Path_154" data-name="Path 154" class="cls-2" d="M499.985,75.581c-.095-.095-.378-.189-.189-.284.189,0,.284-.095.378,0s.284.189.189.284C500.363,75.676,500.08,75.581,499.985,75.581Z" transform="translate(-389.493 -20.178)"/>
        <path id="Path_155" data-name="Path 155" class="cls-2" d="M500.189,74.887c.095,0,.378.189.567.095.189,0,.189-.095.284-.095s.284-.095.094-.095a1.2,1.2,0,0,1-.567-.095c-.189,0-.284-.095-.473,0S500,74.887,500.189,74.887Z" transform="translate(-389.507 -20.145)"/>
        <path id="Path_156" data-name="Path 156" class="cls-2" d="M499.593,72.728a.6.6,0,0,0-.095-.662,1.018,1.018,0,0,1,.189-.756,4.25,4.25,0,0,1,.189-.756c0-.378-.189-.662.473-.662.756,0,1.04.189,1.229,0,.284-.189.756-.189.284.189s-.473.284-.945.189-.851,0-.851.378.567.378.756.378.284.189,0,.378-.473.473-.189.567c.284.189.756.473.473.756-.378.284-.473.284-.662-.189-.095-.378-.095-.851-.284-.473-.094.473,0,.851-.284.851C499.688,73.012,499.5,73.012,499.593,72.728Z" transform="translate(-389.479 -19.877)"/>
        <path id="Path_157" data-name="Path 157" class="cls-2" d="M504.7,71.175c-.095-.189,0-.284.378-.378s.756-.095.756.284-.095.473.189.756.378.284.473.095c.189-.284.189-.567.473-.567a1.554,1.554,0,0,1,.851.189c.378.095.851.473,1.323.662a4.47,4.47,0,0,1,1.134.662c.284.378.945.756.756.945s-.284.473.095.662a4.456,4.456,0,0,1,.945.945c.094.189.094.473-.284.284s-.662-.095-.851-.378-.284-.567-.756-.756-.756-.284-.756,0-.189.378-.662.378-.473-.284-.756-.378-.189.284-.378-.284-.284-.473-.284-.851c0-.284-.378-.378-.756-.567s-.378-.284-.756-.473c-.473-.284-.945-.189-.851-.378C505.076,71.459,504.793,71.364,504.7,71.175Z" transform="translate(-389.764 -19.931)"/>
        <path id="Path_158" data-name="Path 158" class="cls-2" d="M512.27,73.433c.189,0,.756-.473.851-.567s.284-.095.094-.378-.189-.284-.378.095c-.284.284-.189.378-.473.378a3.144,3.144,0,0,0-.567.284C511.608,73.244,511.986,73.528,512.27,73.433Z" transform="translate(-390.152 -20.015)"/>
        <path id="Path_159" data-name="Path 159" class="cls-2" d="M514.483,73.958a.437.437,0,0,1-.284-.473c0-.284-.094-.378.189,0,.284.284.567.284.473.473S514.672,74.053,514.483,73.958Z" transform="translate(-390.285 -20.067)"/>
        <path id="Path_160" data-name="Path 160" class="cls-2" d="M518.177,82.055c.378.378.473.473.662.473.284,0,.284-.189,0-.378a2.5,2.5,0,0,1-.567-.473c-.284-.284-.378-.473-.473-.378C517.7,81.3,517.988,81.771,518.177,82.055Z" transform="translate(-390.483 -20.508)"/>
        <path id="Path_161" data-name="Path 161" class="cls-2" d="M522.161,90.024c-.284-.189-.094-.378-.284-.567-.189-.284-.473-.473-.378-.662.189-.189.189,0,.473.189a.714.714,0,0,1,.378.662c0,.284.095.567.189.567s.189.284.378.473.378.284.567,0c.284-.189.473-.095.284.284s-.473.378-.567.662-.284.473-.284.662a.319.319,0,0,1-.473.284c-.189-.095,0-.284-.094-.473s-.094-.567-.284-.662-.094-.095.189-.284A1.217,1.217,0,0,0,522.161,90.024Z" transform="translate(-390.685 -20.916)"/>
        <path id="Path_162" data-name="Path 162" class="cls-2" d="M521.636,93.525c-.189.189,0,.378-.378.567-.284.284-.473.189-.567.567-.189.378-.378,1.134-.851,1.04a8.038,8.038,0,0,1-.851-.284c-.095,0-.284-.095-.095-.378.189-.378.189-.756.756-.851a1.331,1.331,0,0,0,1.04-.756c.094-.378.284-.473.284-.756s.095-.567.378-.378c.189.284.567,0,.567.284A.959.959,0,0,1,521.636,93.525Z" transform="translate(-390.539 -21.109)"/>
        <path id="Path_163" data-name="Path 163" class="cls-2" d="M510.567,92.493c.284.095.378.284.567.095.284-.189.378-.378.378,0a2.371,2.371,0,0,1-.189.945c-.189.284-.378.567-.567.284-.284-.284-.284-.567-.473-.756C510.094,92.776,509.622,92.115,510.567,92.493Z" transform="translate(-390.056 -21.116)"/>
        <path id="Path_164" data-name="Path 164" class="cls-2" d="M502.874,72.279c-.095.095-.189-.095-.378-.095s0-.095.189-.189.189-.095.284,0C503.063,72.185,502.968,72.185,502.874,72.279Z" transform="translate(-389.64 -19.995)"/>
        <path id="Path_165" data-name="Path 165" class="cls-2" d="M503.582,72.187c-.284.095-.473-.189-.095-.189.378-.095.378,0,.662,0s.378.378.095.284A2.129,2.129,0,0,0,503.582,72.187Z" transform="translate(-389.688 -19.997)"/>
        <path id="Path_166" data-name="Path 166" class="cls-2" d="M523.28,81.672c-.189,0-.567-.189-.189-.378.378-.095.473-.189.473,0C523.563,81.577,523.469,81.672,523.28,81.672Z" transform="translate(-390.765 -20.503)"/>
        <path id="Path_167" data-name="Path 167" class="cls-2" d="M523.6,80.778a.683.683,0,0,1,.567-.378c.094,0,.094.284-.094.378S523.5,80.967,523.6,80.778Z" transform="translate(-390.801 -20.46)"/>
        <path id="Path_168" data-name="Path 168" class="cls-2" d="M518.9,78.278c-.094-.189.094-.378.094-.378.095,0,.095.095.095.284C519.182,78.373,519.088,78.562,518.9,78.278Z" transform="translate(-390.542 -20.323)"/>
        <path id="Path_169" data-name="Path 169" class="cls-2" d="M516.58,75.184c-.189-.095-.473-.284-.284-.284s.378,0,.473.189C516.958,75.184,516.58,75.184,516.58,75.184Z" transform="translate(-390.398 -20.159)"/>
        <path id="Path_170" data-name="Path 170" class="cls-2" d="M516.9,75.8a.738.738,0,0,0,.378.284.467.467,0,0,0-.094-.284C516.993,75.7,516.8,75.7,516.9,75.8Z" transform="translate(-390.433 -20.204)"/>
        <path id="Path_171" data-name="Path 171" class="cls-2" d="M515.485,74.889a.2.2,0,0,0-.189-.189.177.177,0,0,0,0,.284C515.485,75.078,515.485,74.984,515.485,74.889Z" transform="translate(-390.342 -20.148)"/>
        <path id="Path_172" data-name="Path 172" class="cls-2" d="M503.091,70.246c-.095-.284-.284-.473,0-.756s.189-.189.378.095c.095.284.189.378,0,.662C503.28,70.435,503.28,70.53,503.091,70.246Z" transform="translate(-389.669 -19.853)"/>
        <path id="Path_173" data-name="Path 173" class="cls-2" d="M502.223,67.019c-.095-.189,0-.189.095-.378a1.067,1.067,0,0,0,.095-.756c-.095-.189,0-.378-.378-.189-.378.284-.473.189-.851.284-.378.189-.378.473,0,.473s.473,0,.378.284.189.284.378.473S502.318,67.3,502.223,67.019Z" transform="translate(-389.557 -19.65)"/>
        <path id="Path_174" data-name="Path 174" class="cls-2" d="M500.47,62.6a1.026,1.026,0,0,1,.378-.851c.189-.284,0-.284,0-.567s0-.284-.284-.284a.346.346,0,0,0-.378.378,2.016,2.016,0,0,0,0,.756c0,.095-.378,0-.189.284a3.359,3.359,0,0,1,.378.851c.095.284.189.189.378.189a.667.667,0,0,1,.662.189c.284.284.378.095.284-.095s-.284-.473-.473-.378C500.848,62.979,500.564,62.979,500.47,62.6Z" transform="translate(-389.505 -19.391)"/>
        <path id="Path_175" data-name="Path 175" class="cls-2" d="M501.989,64.554a.568.568,0,0,0-.095-.378c-.095-.189-.189-.284.095-.378.284,0,.284-.189.284.284v.945C502.273,65.216,501.989,64.932,501.989,64.554Z" transform="translate(-389.607 -19.548)"/>
        <path id="Path_176" data-name="Path 176" class="cls-2" d="M500.7,64.87c0-.284-.095-.662.284-.473a5.6,5.6,0,0,1,.567.378c.189.095,0,.378-.189.567-.189.284-.473.189-.473,0C500.794,65.153,500.7,65.059,500.7,64.87Z" transform="translate(-389.546 -19.58)"/>
        <path id="Path_177" data-name="Path 177" class="cls-2" d="M499.367,65.546c.095-.189.095-.284.284-.378s.189-.095.189-.378c0-.189-.095-.284-.284,0-.094.284-.189.189-.284.473s-.473.378-.473.567,0,.284.284.095A.99.99,0,0,0,499.367,65.546Z" transform="translate(-389.442 -19.595)"/>
        <path id="Path_178" data-name="Path 178" class="cls-2" d="M495.4,60.856c.095.189.095.284.378.284a.432.432,0,0,0,.473-.378c.095-.189.189-.662-.095-.662s-.378.189-.567.284S495.3,60.573,495.4,60.856Z" transform="translate(-389.254 -19.347)"/>
        <path id="Path_179" data-name="Path 179" class="cls-2" d="M500.2,58.334a.9.9,0,0,1,.189-.662c.189-.189.284-.473.378-.473s.284,0,.189.378-.284.662-.189.851C500.673,58.618,500.295,59,500.2,58.334Z" transform="translate(-389.519 -19.188)"/>
        <path id="Path_180" data-name="Path 180" class="cls-2" d="M503.892,52.726c-.095-.284-.189-.756.189-.851a1.492,1.492,0,0,0,.756-.473c.284-.284.284-.189.662-.284.378,0,.567.189.756-.189.095-.284.284-.378.473-.662a5.7,5.7,0,0,0,.756-.756,2,2,0,0,0,.378-.945c0-.284,0-.567.189-.567s.378,0,.473.378c.094.284.189.851-.095.945-.284.189-.284.189-.284.473v.945c0,.189-.284.851-.756.851-.567.095-.756-.095-.851,0s-.094.378-.378.473c-.189.189-.284.095-.378-.095,0-.189-.189-.378-.189-.189s0,.284-.284.473c-.189.095-.378.473-.473.284-.095-.284-.189-.378,0-.473s.094-.189-.189-.095c-.189.095-.473.095-.284.284a1.608,1.608,0,0,1,.095.662c-.095.284-.095.473-.473.473s-.189-.189-.189-.378C503.986,52.915,503.892,52.82,503.892,52.726Z" transform="translate(-389.714 -18.684)"/>
        <path id="Path_181" data-name="Path 181" class="cls-2" d="M508.373,47.284c0-.095.189-.189.189-.189l.378.189c.189.095.378.095.473-.095s.095-.284.378-.284.567,0,.378-.189c-.095-.189.095-.473-.378-.473-.473.095-.378.189-.567-.189s-.378-.851-.567-.756-.095.284,0,.567.189.567,0,.662c-.095.095,0,.189-.189.284s-.189,0-.378.189-.189.284-.189.378a.491.491,0,0,0,.378.189C508.467,47.473,508.467,47.379,508.373,47.284Z" transform="translate(-389.941 -18.535)"/>
        <path id="Path_182" data-name="Path 182" class="cls-2" d="M508.99,44.081V43.23a4.537,4.537,0,0,0,0-1.134c-.095-.284-.284-.473-.095-.756a1.163,1.163,0,0,1,.189-.473c.095-.189.095-.567.284-.567s.189.662.189.851c.095.189-.189.662,0,1.04s.567.662.189.756-.378.473-.378.851a2.1,2.1,0,0,0,.095.851c.095.189-.095.189-.189.095s-.473.378-.284,0A1.286,1.286,0,0,0,508.99,44.081Z" transform="translate(-389.991 -18.262)"/>
        <path id="Path_183" data-name="Path 183" class="cls-2" d="M445.058,33.394a4.209,4.209,0,0,1,1.134-.567c.284-.095.473-.473.284-.662-.284-.189-.567-.756-.851-.567s-.378.378-.756.284-.851-.284-.945,0-.284.378-.284.095c-.095-.284-.189-.567-.473-.189-.284.284-.756.473-.473.662.284.095.378.378.189.378s.284.189.378.284-.189.567.378.662A2.9,2.9,0,0,0,445.058,33.394Z" transform="translate(-386.362 -17.783)"/>
        <path id="Path_184" data-name="Path 184" class="cls-2" d="M458.109,23.885c.095,0,.284-.284.378-.662a5.616,5.616,0,0,1,.567-1.512c.189-.189.284-.189.284.473-.095.567.189.756.567.756s.567-.473.284-.851c-.284-.473-.473-.945-.662-1.323s-.189-.662.095-.756c.189-.095.189.851.756.284.473-.567,1.04-1.04.473-1.323-.473-.284-1.04-.662-1.607-.473-.473.189-.473.662-1.134.567-.567-.095-.851-.851-1.134-.095-.284.662-.567,1.323-.378,1.7.284.378.851.567.756,1.04s-.189.662.095,1.134C457.731,23.412,457.92,23.79,458.109,23.885Z" transform="translate(-387.125 -17.064)"/>
        <path id="Path_185" data-name="Path 185" class="cls-2" d="M474.679,27.43c-.189-.095-.662-.378-.284-.851a4.124,4.124,0,0,1,.756-.945c.378-.378,0-.284.756-.756a6.523,6.523,0,0,1,1.89-.851c.756-.189,1.323-.095,1.512-.567.189-.567-.095-.756-.567-.662s-.095.473-.851.567a10.329,10.329,0,0,0-1.607.284,4.554,4.554,0,0,0-1.418.662c-.473.189-.662.945-.945,1.229s-.378.662-.756.756-.851.756-.378,1.04c.473.189.567.473,1.229.567.567.189,1.04.189,1.04.095C475.246,27.714,474.962,27.525,474.679,27.43Z" transform="translate(-388.006 -17.301)"/>
        <path id="Path_186" data-name="Path 186" class="cls-2" d="M471.458,20l.756-.378c.378-.189.378-.284.378-.662s.095-.851-.284-.473-.473.662-.756.473c-.378-.189-.756-.567-1.323-.378s-1.512.473-1.134.662a9.153,9.153,0,0,0,1.04.284c.189.095.095-.095.378-.284s.567-.189.567,0C470.8,19.626,470.7,20.288,471.458,20Z" transform="translate(-387.809 -17.059)"/>
        <path id="Path_187" data-name="Path 187" class="cls-2" d="M472.583,20.578c.284.095.189-.378.095-.378s-.378,0-.378.189C472.2,20.578,472.488,20.484,472.583,20.578Z" transform="translate(-387.988 -17.16)"/>
        <path id="Path_188" data-name="Path 188" class="cls-2" d="M473.294,20.066c.095.095.378-.095.378-.284s-.095-.378-.284-.284S473.105,19.971,473.294,20.066Z" transform="translate(-388.038 -17.12)"/>
        <path id="Path_189" data-name="Path 189" class="cls-2" d="M476.562,19.6c.378,0,.662,0,.473-.378a1.406,1.406,0,0,1,0-.662c0-.095,0-.662-.378-.662s-.095.473-.378.662a.88.88,0,0,0-.378.662C475.994,19.6,476.278,19.6,476.562,19.6Z" transform="translate(-388.187 -17.034)"/>
        <path id="Path_190" data-name="Path 190" class="cls-2" d="M477.591,18.618c.095.189.189.095.567,0s.189.095.189-.473,0-.945-.284-.945-.284.189-.473.473C477.308,17.862,477.5,18.24,477.591,18.618Z" transform="translate(-388.271 -16.996)"/>
        <path id="Path_191" data-name="Path 191" class="cls-2" d="M476.273,20.2a.708.708,0,0,0-.473.095.3.3,0,0,0,.284.284C476.367,20.578,476.462,20.2,476.273,20.2Z" transform="translate(-388.181 -17.16)"/>
        <path id="Path_192" data-name="Path 192" class="cls-2" d="M475.667,19.864c.284,0,.095-.567,0-.567-.095-.095-.567-.095-.567.189,0,.378,0,.473.095.473C475.289,20.053,475.573,19.864,475.667,19.864Z" transform="translate(-388.143 -17.108)"/>
        <path id="Path_193" data-name="Path 193" class="cls-2" d="M474.456,19.757c.095.189.095.284.284.284.095,0,.095,0,0-.473s-.284-.567,0-.662,0-.095.095-.378.094-.378.567-.567.284-.756-.095-.662-.662.567-.945.662c-.189.095-.567.095-.567.378,0,.189-.284.284.094.473.378.095.378.284.378.567Z" transform="translate(-388.066 -17.001)"/>
        <path id="Path_194" data-name="Path 194" class="cls-2" d="M471.495,29.284c-.095.095-.189.284.095.378.284,0,.378.095.567-.095.095-.189.095-.567-.189-.567C471.778,29,471.684,29.095,471.495,29.284Z" transform="translate(-387.94 -17.642)"/>
        <path id="Path_195" data-name="Path 195" class="cls-2" d="M492.759,22c.378,0,.473-.095.851-.095s.473-.095.378-.567-.189-.662-.662-.662-.378-.567-.567-.189a4.606,4.606,0,0,1-.378,1.04c-.284.473-.473.662-.189.662C492.381,22.288,492.57,22,492.759,22Z" transform="translate(-389.072 -17.169)"/>
        <path id="Path_196" data-name="Path 196" class="cls-2" d="M492.048,21.022c-.095-.284-.095-.189.095-.567.189-.284.095-.567-.473-.567-.473,0-.662-.473-1.323,0-.567.473-1.134.378-.851.756.378.378.473.284.945.662.473.473.473.662.945.378C491.953,21.495,492.142,21.306,492.048,21.022Z" transform="translate(-388.928 -17.131)"/>
        <path id="Path_197" data-name="Path 197" class="cls-2" d="M490.688,19.328c.189-.189.189-.189,0-.473-.189-.189-.284-.851-.567-.756a1.643,1.643,0,0,0-1.04.567c-.284.473-.473.662-.189.756.284.189.378.378.756.378C490.026,19.99,490.5,19.517,490.688,19.328Z" transform="translate(-388.891 -17.044)"/>
        <path id="Path_198" data-name="Path 198" class="cls-2" d="M488.882,20.2c-.189,0-.378.189-.284.378s.284.189.473.189c.095,0,.378,0,.189-.189C489.166,20.2,488.977,20.2,488.882,20.2Z" transform="translate(-388.882 -17.16)"/>
        <path id="Path_199" data-name="Path 199" class="cls-2" d="M507.671,24.826a3.76,3.76,0,0,0,1.04,0c.473-.095.473-.284.756-.189.284,0,.378,0,.378-.284.095-.284-.189-.567-.567-.567s-.662-.473-.756-.095-.095.284-.473.095a.511.511,0,0,0-.756.189C507.01,24.164,507.293,24.731,507.671,24.826Z" transform="translate(-389.901 -17.343)"/>
        <path id="Path_200" data-name="Path 200" class="cls-2" d="M510.87,24.662c-.189-.095-.851-.567-.284-.662.662,0,.851.095,1.134.095s.567.095.567.378,0,.378-.473.378A2.372,2.372,0,0,1,510.87,24.662Z" transform="translate(-390.076 -17.368)"/>
        <path id="Path_201" data-name="Path 201" class="cls-2" d="M524.563,27.964c.378,0,.756,0,.756-.095s.189-.473-.284-.473c-.567,0-.756-.189-1.04.095C523.807,27.869,524,27.964,524.563,27.964Z" transform="translate(-390.819 -17.551)"/>
        <path id="Path_202" data-name="Path 202" class="cls-2" d="M510.6,46.178c-.095,0,.095-.378.095-.378s.189.095.189.189C510.788,46.178,510.693,46.084,510.6,46.178Z" transform="translate(-390.088 -18.563)"/>
        <path id="Path_203" data-name="Path 203" class="cls-2" d="M511.1,45.564c-.189.095,0-.095.189-.284.189-.095.284-.567.378-.189,0,.378.095.378-.189.473S511.19,45.47,511.1,45.564Z" transform="translate(-390.112 -18.517)"/>
        <path id="Path_204" data-name="Path 204" class="cls-2" d="M514.191,42c-.189.095-.189.189-.095.378s.189.189.284.095c.189-.095.473-.189.284-.378A.329.329,0,0,0,514.191,42Z" transform="translate(-390.277 -18.351)"/>
        <path id="Path_205" data-name="Path 205" class="cls-2" d="M511.9,45.073c0,.095.095.189.284,0s.284-.378.189-.473c-.094,0-.378.095-.378.189C511.9,44.789,511.9,44.978,511.9,45.073Z" transform="translate(-390.16 -18.498)"/>
        <path id="Path_206" data-name="Path 206" class="cls-2" d="M512.7,44.334c0-.095,0,0,.189-.189s.378-.189.378-.378a2.066,2.066,0,0,1,.284-.473c.095-.095.284-.189.189.095l-.378.378c0,.095-.189.284-.284.473A.942.942,0,0,1,512.7,44.334Z" transform="translate(-390.204 -18.421)"/>
        <path id="Path_207" data-name="Path 207" class="cls-2" d="M484.284,65.693c-.095.284-.284.473-.284.756a2.194,2.194,0,0,0,.378.945c.095.095.284-.095.567-.284.284-.284.473-.189.095-.756C484.756,65.882,484.473,65.315,484.284,65.693Z" transform="translate(-388.631 -19.647)"/>
        <path id="Path_208" data-name="Path 208" class="cls-2" d="M528.578,81.592c0,.189-.095.189-.284.284s-.094.284.095.473.473.284.567,0a1.965,1.965,0,0,0,0-.756C528.767,81.4,528.578,81.4,528.578,81.592Z" transform="translate(-391.053 -20.518)"/>
        <path id="Path_209" data-name="Path 209" class="cls-2" d="M525.278,78.562c.189.284.567.095.567.095a.672.672,0,0,0-.378-.567c-.378-.284-.567-.189-.567,0S525.089,78.373,525.278,78.562Z" transform="translate(-390.873 -20.324)"/>
        <path id="Path_210" data-name="Path 210" class="cls-2" d="M465.1,52.06c-.189,0,.095-.567.284-.567.284,0,1.04-.284.662,0A1.282,1.282,0,0,1,465.1,52.06Z" transform="translate(-387.591 -18.869)"/>
        <path id="Path_211" data-name="Path 211" class="cls-2" d="M462.069,51.968c-.378,0-.662-.284-.473-.378.095-.095.189-.284.567-.095s.851.189.662.378A2.081,2.081,0,0,1,462.069,51.968Z" transform="translate(-387.4 -18.871)"/>
        <path id="Path_212" data-name="Path 212" class="cls-2" d="M458.231,50.666c-.189-.284,0-.662-.284-.567-.284,0-1.134.095-.851.378.378.284.567.095.756.284C457.947,50.855,458.325,50.855,458.231,50.666Z" transform="translate(-387.153 -18.798)"/>
        <path id="Path_213" data-name="Path 213" class="cls-2" d="M456.058,48.96c0-.189-.189-.567-.284-.567s-.378-.284-.378,0c0,.378-.189.756.095.945A.355.355,0,0,0,456.058,48.96Z" transform="translate(-387.06 -18.699)"/>
        <path id="Path_214" data-name="Path 214" class="cls-2" d="M453.483,49.373c.189,0,.095-.473,0-.473s-.378.189-.284.284C453.2,49.373,453.388,49.373,453.483,49.373Z" transform="translate(-386.942 -18.733)"/>
        <path id="Path_215" data-name="Path 215" class="cls-2" d="M456.59,39.644c-.095-.189-.284-.378-.095-.662s.284-.473.473-.095c.095.378,0,.567-.095.662C456.684,39.738,456.59,39.644,456.59,39.644Z" transform="translate(-387.119 -18.173)"/>
        <path id="Path_216" data-name="Path 216" class="cls-2" d="M459.3,37.962c-.094-.095.095-.378.284-.473s.378-.378.378,0C459.866,37.772,459.582,38.056,459.3,37.962Z" transform="translate(-387.276 -18.097)"/>
        <path id="Path_217" data-name="Path 217" class="cls-2" d="M471.58,77.653a1.839,1.839,0,0,1-1.134.945c-.378.095-.662.756-.662.945s.662.851.189,1.418c-.473.473-.567.473-.378,1.229.189.662.189,1.04.473,1.229a.607.607,0,0,0,.851-.095A1.591,1.591,0,0,0,471.485,82c0-.851-.189-.945.189-1.323a2.316,2.316,0,0,0,.378-1.134,2.178,2.178,0,0,1,.378-1.04c.189-.189,0-.473-.095-.851C472.241,76.992,472.052,76.236,471.58,77.653Z" transform="translate(-387.836 -20.265)"/>
        <path id="Path_218" data-name="Path 218" class="cls-2" d="M430.69,29.519c-.189-.189-.284-.378,0-.851s.095-.756.567-.378.851.662.284,1.04C431.068,29.708,430.973,29.9,430.69,29.519Z" transform="translate(-385.699 -17.594)"/>
        <path id="Path_219" data-name="Path 219" class="cls-2" d="M397.681,38.456c-.189-.378-.567-.756-.095-.756.378.095.378,0,.756.473A5.382,5.382,0,0,1,399,39.4a1.309,1.309,0,0,0,0,.945c.284.662.756,1.607.378,1.134a1.925,1.925,0,0,1-.851-1.512,1.886,1.886,0,0,0-.378-1.229C397.87,38.551,397.87,38.74,397.681,38.456Z" transform="translate(-383.882 -18.119)"/>
        <path id="Path_220" data-name="Path 220" class="cls-2" d="M412.2,20.687c0,.473.378.284.473.284s0-.473-.189-.473C412.295,20.4,412.2,20.5,412.2,20.687Z" transform="translate(-384.695 -17.174)"/>
        <path id="Path_221" data-name="Path 221" class="cls-2" d="M410.982,22.6c.189.095.378.473.284.567a1.4,1.4,0,0,1-.567-.095C410.6,22.883,410.793,22.5,410.982,22.6Z" transform="translate(-384.611 -17.291)"/>
        <path id="Path_222" data-name="Path 222" class="cls-2" d="M409.772,22.295c.095.284.189.567-.094.662s-.284-.189-.378-.378C409.2,22.484,409.583,22.011,409.772,22.295Z" transform="translate(-384.535 -17.27)"/>
        <path id="Path_223" data-name="Path 223" class="cls-2" d="M409.975,26.1c.189.095.095.284.095.473-.095.284-.284.095-.473-.189S409.691,26,409.975,26.1Z" transform="translate(-384.549 -17.481)"/>
        <path id="Path_224" data-name="Path 224" class="cls-2" d="M410.278,25.069c-.189.189-.378-.284-.378-.378s.095-.284.284,0C410.467,24.975,410.373,24.975,410.278,25.069Z" transform="translate(-384.569 -17.398)"/>
        <path id="Path_225" data-name="Path 225" class="cls-2" d="M420.378,34.778c0-.189,0-.378-.189-.378-.189.095-.189.284-.189.473s.189.189.284.189C420.473,35.062,420.378,34.873,420.378,34.778Z" transform="translate(-385.123 -17.938)"/>
        <path id="Path_226" data-name="Path 226" class="cls-2" d="M420.89,34.162c-.095-.095-.284-.284-.095-.378a.568.568,0,0,1,.378-.095c.095.095.095,0,.284-.095s.284-.189.378.095-.284.378-.284.284a.177.177,0,0,0-.284,0C421.079,34.067,420.984,34.162,420.89,34.162Z" transform="translate(-385.162 -17.889)"/>
      </g>
      <circle id="Ellipse_9" data-name="Ellipse 9" class="cls-4" cx="1.89" cy="1.89" r="1.89" transform="translate(37.524 45.384)"/>
      <circle id="Ellipse_10" data-name="Ellipse 10" class="cls-4" cx="1.89" cy="1.89" r="1.89" transform="translate(28.166 28.749)"/>
      <circle id="Ellipse_11" data-name="Ellipse 11" class="cls-4" cx="1.89" cy="1.89" r="1.89" transform="translate(47.354 52.568)"/>
      <circle id="Ellipse_12" data-name="Ellipse 12" class="cls-4" cx="1.89" cy="1.89" r="1.89" transform="translate(39.603 54.741)"/>
      <circle id="Ellipse_13" data-name="Ellipse 13" class="cls-4" cx="1.89" cy="1.89" r="1.89" transform="translate(45.463 64.855)"/>
      <circle id="Ellipse_14" data-name="Ellipse 14" class="cls-4" cx="1.89" cy="1.89" r="1.89" transform="translate(37.524 68.636)"/>
      <circle id="Ellipse_15" data-name="Ellipse 15" class="cls-4" cx="1.89" cy="1.89" r="1.89" transform="translate(69.187 28.276)"/>
      <circle id="Ellipse_16" data-name="Ellipse 16" class="cls-4" cx="1.89" cy="1.89" r="1.89" transform="translate(66.446 37.634)"/>
      <circle id="Ellipse_17" data-name="Ellipse 17" class="cls-4" cx="1.89" cy="1.89" r="1.89" transform="translate(81.002 17.785)"/>
      <circle id="Ellipse_18" data-name="Ellipse 18" class="cls-4" cx="1.89" cy="1.89" r="1.89" transform="translate(94.046 8.995)"/>
      <circle id="Ellipse_19" data-name="Ellipse 19" class="cls-4" cx="1.89" cy="1.89" r="1.89" transform="translate(108.129 10.129)"/>
      <circle id="Ellipse_20" data-name="Ellipse 20" class="cls-4" cx="1.89" cy="1.89" r="1.89" transform="translate(112.95 17.218)"/>
      <circle id="Ellipse_21" data-name="Ellipse 21" class="cls-4" cx="1.89" cy="1.89" r="1.89" transform="translate(113.8 58.333)"/>
      <circle id="Ellipse_22" data-name="Ellipse 22" class="cls-4" cx="1.89" cy="1.89" r="1.89" transform="translate(48.299 7.104)"/>
      <circle id="Ellipse_23" data-name="Ellipse 23" class="cls-4" cx="1.89" cy="1.89" r="1.89" transform="translate(85.728 27.426)"/>
    </g>
  </g>
</svg>
