<svg xmlns="http://www.w3.org/2000/svg" viewBox="5569 -1093 101.68 106.1">
  <defs>
    <style>
      .cls-1 {
        fill: #414143;
      }

      .cls-2 {
        fill: #73c38e;
      }
    </style>
  </defs>
  <g id="Group_151" data-name="Group 151" transform="translate(5569 -1093)">
    <g id="Group_19" data-name="Group 19" transform="translate(0 0)">
      <g id="Group_12" data-name="Group 12" transform="translate(31.877 39.322)">
        <g id="Group_7" data-name="Group 7" transform="translate(0 11.517)">
          <path id="Path_6" data-name="Path 6" class="cls-1" d="M274.61,223.4H238.2a1.4,1.4,0,1,0,0,2.792h36.3a1.344,1.344,0,0,0,1.4-1.4,1.2,1.2,0,0,0-1.28-1.4" transform="translate(-236.8 -223.4)"/>
        </g>
        <g id="Group_8" data-name="Group 8">
          <path id="Path_7" data-name="Path 7" class="cls-1" d="M238.2,216.292h14.542a1.344,1.344,0,0,0,1.4-1.4,1.284,1.284,0,0,0-1.4-1.4H238.2a1.4,1.4,0,1,0,0,2.792" transform="translate(-236.8 -213.5)"/>
        </g>
        <g id="Group_9" data-name="Group 9" transform="translate(0 23.268)">
          <path id="Path_8" data-name="Path 8" class="cls-1" d="M276.006,234.9a1.344,1.344,0,0,0-1.4-1.4H238.2a1.4,1.4,0,1,0,0,2.792h36.3a1.377,1.377,0,0,0,1.512-1.4" transform="translate(-236.8 -233.5)"/>
        </g>
        <g id="Group_10" data-name="Group 10" transform="translate(0 34.901)">
          <path id="Path_9" data-name="Path 9" class="cls-1" d="M264.372,244.9a1.344,1.344,0,0,0-1.4-1.4H238.2a1.284,1.284,0,0,0-1.4,1.4,1.344,1.344,0,0,0,1.4,1.4H262.86a1.377,1.377,0,0,0,1.512-1.4" transform="translate(-236.8 -243.5)"/>
        </g>
        <g id="Group_11" data-name="Group 11" transform="translate(0 46.419)">
          <path id="Path_10" data-name="Path 10" class="cls-1" d="M238.2,253.4a1.4,1.4,0,1,0,0,2.792h20.359a1.4,1.4,0,1,0,0-2.792Z" transform="translate(-236.8 -253.4)"/>
        </g>
      </g>
      <g id="Group_13" data-name="Group 13" transform="translate(66.778 71.199)">
        <path id="Path_11" data-name="Path 11" class="cls-2" d="M298.793,272.893H269.708V243.808h13.03v18.265l-6.282-6.282-2.094,2.094,9.772,9.772,9.772-9.772-1.978-2.094-6.282,6.282V243.809h13.03v29.085ZM266.8,275.8h34.9V240.9H266.8Z" transform="translate(-266.8 -240.9)"/>
      </g>
      <g id="Group_14" data-name="Group 14" transform="translate(0)">
        <path id="Path_12" data-name="Path 12" class="cls-2" d="M225.92,212.74a16.52,16.52,0,1,1,16.52-16.52A16.584,16.584,0,0,1,225.92,212.74Zm0-30.6A13.961,13.961,0,1,0,239.881,196.1,13.854,13.854,0,0,0,225.92,182.143Z" transform="translate(-209.4 -179.7)"/>
      </g>
      <g id="Group_17" data-name="Group 17" transform="translate(17.334 18.847)">
        <g id="Group_15" data-name="Group 15" transform="translate(0 15.008)">
          <path id="Path_13" data-name="Path 13" class="cls-1" d="M227.208,208.8a11.8,11.8,0,0,1-2.908.233v72.013h45.023v-2.908H227.208Z" transform="translate(-224.3 -208.8)"/>
        </g>
        <g id="Group_16" data-name="Group 16" transform="translate(15.008)">
          <path id="Path_14" data-name="Path 14" class="cls-1" d="M269.309,195.9H237.433a22.663,22.663,0,0,1-.233,2.908h30.015v20.359h20.359v24.664h2.908V217.074Zm.814,20.359V200.9l15.357,15.357Z" transform="translate(-237.2 -195.9)"/>
        </g>
      </g>
      <g id="Group_18" data-name="Group 18" transform="translate(13.263 5.235)">
        <path id="Path_15" data-name="Path 15" class="cls-2" d="M220.8,206.653l12.332-11.168L220.8,184.2Z" transform="translate(-220.8 -184.2)"/>
      </g>
    </g>
  </g>
</svg>
