<svg xmlns="http://www.w3.org/2000/svg" viewBox="5556 -853 117.283 120.18">
  <defs>
    <style>
      .cls-1 {
        fill: #73c38e;
      }

      .cls-2 {
        fill: #2c3e50;
      }

      .cls-3 {
        fill: #f25f5c;
      }

      .cls-4 {
        fill: #ffb857;
      }
    </style>
  </defs>
  <g id="Group_148" data-name="Group 148" transform="translate(5556 -853)">
    <g id="Group_98" data-name="Group 98" transform="translate(0 0)">
      <g id="Group_84" data-name="Group 84" transform="translate(99.489 37.611)">
        <g id="Group_81" data-name="Group 81" transform="translate(0.834)">
          <g id="Group_80" data-name="Group 80">
            <ellipse id="Ellipse_5" data-name="Ellipse 5" class="cls-1" cx="7.538" cy="8.231" rx="7.538" ry="8.231" transform="translate(0.26 0.26)"/>
            <path id="Path_61" data-name="Path 61" class="cls-2" d="M516.3,562.382c-4.245,0-7.8-3.812-7.8-8.491s3.466-8.491,7.8-8.491,7.8,3.812,7.8,8.491S520.63,562.382,516.3,562.382Zm0-16.548c-4.072,0-7.364,3.639-7.364,8.058s3.292,8.058,7.364,8.058,7.365-3.639,7.365-8.058S520.37,545.833,516.3,545.833Z" transform="translate(-508.5 -545.4)"/>
          </g>
        </g>
        <g id="Group_83" data-name="Group 83" transform="translate(0 18.818)">
          <g id="Group_82" data-name="Group 82">
            <path id="Path_62" data-name="Path 62" class="cls-1" d="M518.367,630.477c-5.285,0-9.7.953-9.7-.953,0-1.386,2.253-2.513,5.632-3.119.173,0,.26-.173.173-.346-4.419-31.537-9.011-47.219-5.372-54.411a8.468,8.468,0,0,1,4.765-3.726,7.594,7.594,0,0,1,9.444,3.639c1.906,3.639,2.859,10.224-.26,22.093-6.5,25.3-4.679,36.822-4.679,36.822" transform="translate(-507.57 -567.16)"/>
            <path id="Path_63" data-name="Path 63" class="cls-2" d="M511.49,630.87a4.073,4.073,0,0,1-2.686-.607.941.941,0,0,1-.347-.78c0-1.473,2.253-2.686,5.8-3.292v-.173c-1.3-9.271-2.6-17.068-3.726-23.913-2.773-16.462-4.245-25.472-1.646-30.671a8.493,8.493,0,0,1,4.939-3.812,7.8,7.8,0,0,1,9.7,3.726c2.426,4.765,2.426,12.216-.173,22.18-6.5,25.039-4.765,36.649-4.765,36.822v.26h-.26c-1.473,0-2.859.087-4.072.173C513.223,630.784,512.27,630.87,511.49,630.87Zm5.112-63.248a6.952,6.952,0,0,0-2.6.52,7.99,7.99,0,0,0-4.679,3.639c-2.6,5.025-.953,14.556,1.646,30.411,1.126,6.845,2.426,14.642,3.726,23.913,0,.347-.087.607-.347.607-3.292.52-5.458,1.646-5.458,2.859a1.231,1.231,0,0,0,.173.52c.607.607,2.6.52,5.112.347,1.213-.087,2.513-.087,3.9-.173-.173-1.82-1.213-13.6,4.765-36.736,2.6-9.877,2.686-17.242.26-21.92A7.294,7.294,0,0,0,516.6,567.623Z" transform="translate(-507.538 -567.12)"/>
          </g>
        </g>
      </g>
      <g id="Group_89" data-name="Group 89" transform="translate(0 37.611)">
        <g id="Group_86" data-name="Group 86" transform="translate(1.312)">
          <g id="Group_85" data-name="Group 85">
            <ellipse id="Ellipse_6" data-name="Ellipse 6" class="cls-2" cx="7.538" cy="8.231" rx="7.538" ry="8.231" transform="translate(0.26 0.26)"/>
            <path id="Path_64" data-name="Path 64" class="cls-1" d="M393.5,562.382c-4.245,0-7.8-3.812-7.8-8.491s3.466-8.491,7.8-8.491,7.8,3.812,7.8,8.491S397.743,562.382,393.5,562.382Zm0-16.548c-4.072,0-7.364,3.639-7.364,8.058s3.292,8.058,7.364,8.058,7.364-3.639,7.364-8.058S397.483,545.833,393.5,545.833Z" transform="translate(-385.7 -545.4)"/>
          </g>
        </g>
        <g id="Group_88" data-name="Group 88" transform="translate(0 18.83)">
          <g id="Group_87" data-name="Group 87">
            <path id="Path_65" data-name="Path 65" class="cls-2" d="M391.167,630.477c5.285,0,9.7.953,9.7-.953,0-1.386-2.253-2.513-5.632-3.119-.173,0-.26-.173-.173-.346,4.419-31.537,9.011-47.219,5.372-54.411a8.467,8.467,0,0,0-4.765-3.726,7.594,7.594,0,0,0-9.444,3.639c-1.906,3.639-2.859,10.224.26,22.093,6.5,25.3,4.679,36.822,4.679,36.822" transform="translate(-384.223 -567.172)"/>
            <path id="Path_66" data-name="Path 66" class="cls-1" d="M397.974,630.872c-.78,0-1.733-.087-2.686-.087-1.213-.087-2.6-.173-4.072-.173h-.26v-.26c0-.087,1.733-11.783-4.765-36.822-2.6-9.964-2.686-17.5-.173-22.18a7.886,7.886,0,0,1,9.7-3.726c2.426.953,4.072,2.166,4.939,3.812,2.6,5.112,1.126,14.209-1.646,30.671-1.126,6.845-2.426,14.642-3.726,23.913v.173c3.552.607,5.8,1.819,5.8,3.292a.845.845,0,0,1-.347.78C400.227,630.786,399.274,630.872,397.974,630.872Zm-6.585-.693c1.386,0,2.686.087,3.9.173,2.513.087,4.505.26,5.112-.347.173-.087.173-.26.173-.52,0-1.213-2.166-2.339-5.458-2.859-.26,0-.433-.347-.347-.607,1.3-9.271,2.6-17.068,3.726-23.913,2.6-15.855,4.245-25.386,1.646-30.411a7.99,7.99,0,0,0-4.679-3.639,7.322,7.322,0,0,0-9.1,3.466c-2.426,4.679-2.339,12.043.26,21.92C392.6,616.663,391.563,628.36,391.389,630.179Z" transform="translate(-384.186 -567.134)"/>
          </g>
        </g>
      </g>
      <g id="Group_91" data-name="Group 91" transform="translate(19.427)">
        <g id="Group_90" data-name="Group 90">
          <path id="Path_67" data-name="Path 67" class="cls-1" d="M418.8,514.908l-.347,1.906c-.347,1.906-5.458,3.812-5.458,3.812h37.949a6.674,6.674,0,0,0,6.5-7.711l-.866-5.632a6.044,6.044,0,0,0-7.018-5.2l-25.732,4.765a5.544,5.544,0,0,0-4.332,4.505Z" transform="translate(-413 -501.99)"/>
        </g>
      </g>
      <g id="Group_93" data-name="Group 93" transform="translate(19.687 28.461)">
        <g id="Group_92" data-name="Group 92">
          <path id="Path_68" data-name="Path 68" class="cls-3" d="M416.506,542.17l-.173,1.04c-.173,1.126-3.032,2.166-3.032,2.166h21.4a3.747,3.747,0,0,0,3.639-4.332l-.433-3.206a3.458,3.458,0,0,0-3.985-2.946l-14.556,2.686a3.148,3.148,0,0,0-2.426,2.513Z" transform="translate(-413.3 -534.839)"/>
        </g>
      </g>
      <g id="Group_95" data-name="Group 95" transform="translate(69.199 18.667)">
        <g id="Group_94" data-name="Group 94">
          <path id="Path_69" data-name="Path 69" class="cls-4" d="M491.2,530.436l.173,1.04c.173,1.04,2.946,2.079,2.946,2.079H473.958a3.567,3.567,0,0,1-3.466-4.159l.433-3.032a3.237,3.237,0,0,1,3.726-2.773l13.776,2.6a3.062,3.062,0,0,1,2.339,2.426Z" transform="translate(-470.447 -523.535)"/>
        </g>
      </g>
      <g id="Group_97" data-name="Group 97" transform="translate(52.721 39.155)">
        <g id="Group_96" data-name="Group 96">
          <path id="Path_70" data-name="Path 70" class="cls-2" d="M486.493,558.981l.26,1.733c.347,1.733,4.939,3.466,4.939,3.466h-34.31a6.061,6.061,0,0,1-5.892-7.018l.78-5.2a5.394,5.394,0,0,1,6.325-4.679l23.306,4.332a4.884,4.884,0,0,1,3.9,4.072Z" transform="translate(-451.427 -547.182)"/>
        </g>
      </g>
    </g>
  </g>
</svg>
