<svg xmlns="http://www.w3.org/2000/svg" xmlns:xlink="http://www.w3.org/1999/xlink" viewBox="5003 -594 122.111 74.426">
  <defs>
    <style>
      .cls-1 {
        clip-path: url(#clip-path);
      }

      .cls-2 {
        fill: #414143;
      }

      .cls-3 {
        fill: #0da14a;
      }

      .cls-4 {
        fill: #ffcd34;
      }

      .cls-5 {
        fill: #f16539;
      }

      .cls-6 {
        fill: #71c1b2;
      }
    </style>
    <clipPath id="clip-path">
      <rect id="Rectangle_1" data-name="Rectangle 1" width="122.111" height="74.426"/>
    </clipPath>
  </defs>
  <g id="Group_158" data-name="Group 158" transform="translate(4316.548 -1212.932)">
    <g id="Group_31" data-name="Group 31" transform="translate(686.452 618.932)">
      <g id="Group_27" data-name="Group 27" transform="translate(0 0)">
        <g id="Group_20" data-name="Group 20" class="cls-1">
          <path id="Path_16" data-name="Path 16" class="cls-2" d="M4.76,264.085H118.47V198.06H4.76Zm115.721,4.141H2.63A2.121,2.121,0,0,1,.5,266.1V195.93a2.121,2.121,0,0,1,2.13-2.13H120.481a2.121,2.121,0,0,1,2.13,2.13v70.285a2.1,2.1,0,0,1-2.13,2.012" transform="translate(-0.5 -193.918)"/>
        </g>
        <g id="Group_21" data-name="Group 21" class="cls-1">
          <path id="Path_17" data-name="Path 17" class="cls-3" d="M22.623,201.31a2.343,2.343,0,1,1-3.313,0,2.287,2.287,0,0,1,3.313,0" transform="translate(2.817 -192.672)"/>
        </g>
        <g id="Group_22" data-name="Group 22" class="cls-1">
          <path id="Path_18" data-name="Path 18" class="cls-4" d="M17.933,202.966a2.366,2.366,0,1,1-2.366-2.366,2.373,2.373,0,0,1,2.366,2.366" transform="translate(1.827 -192.672)"/>
        </g>
        <g id="Group_23" data-name="Group 23" class="cls-1">
          <path id="Path_19" data-name="Path 19" class="cls-5" d="M12.433,202.966a2.366,2.366,0,1,1-2.366-2.366,2.373,2.373,0,0,1,2.366,2.366" transform="translate(0.819 -192.672)"/>
        </g>
        <g id="Group_24" data-name="Group 24" class="cls-1">
          <path id="Path_20" data-name="Path 20" class="cls-2" d="M18.836,232.5s-7.336.118-7.336,6.863v8.283H25.817Z" transform="translate(1.516 -186.827)"/>
        </g>
        <g id="Group_25" data-name="Group 25" class="cls-1">
          <path id="Path_21" data-name="Path 21" class="cls-2" d="M25.018,218.9a7.218,7.218,0,1,1-7.218,7.218,7.171,7.171,0,0,1,7.218-7.218" transform="translate(2.67 -189.319)"/>
        </g>
        <g id="Group_26" data-name="Group 26" class="cls-1">
          <path id="Path_22" data-name="Path 22" class="cls-2" d="M38.517,247.746v-8.283c0-6.745-7.336-6.863-7.336-6.863L24.2,247.746Z" transform="translate(3.843 -186.808)"/>
        </g>
      </g>
      <g id="Group_28" data-name="Group 28" transform="translate(22.718 45.673)">
        <path id="Path_23" data-name="Path 23" class="cls-2" d="M24.67,232.5H19.7l4.97,11.241L29.758,232.5Z" transform="translate(-19.7 -232.5)"/>
      </g>
      <g id="Group_30" data-name="Group 30" transform="translate(0 0)">
        <g id="Group_29" data-name="Group 29" class="cls-1">
          <path id="Path_24" data-name="Path 24" class="cls-6" d="M38.4,229.328l3.313-1.3c1.42-.592,3.076-1.538,3.195-2.012l.237-1.183.592-15.382a4.292,4.292,0,0,1,3.313-3.55l31.474.118c2.958.237,4.851,1.775,5.206,3.9l.592,13.607a5.366,5.366,0,0,1-1.183,4.141,4.852,4.852,0,0,1-3.668,1.657Zm10.531-22.363a2.79,2.79,0,0,0-2.13,2.485l-.592,15.5-.237,1.3a2.929,2.929,0,0,1-1.42,1.775H81.233a3.538,3.538,0,0,0,2.721-1.3,4.3,4.3,0,0,0,.947-3.195l-.592-13.607c-.355-2.248-2.958-2.721-4.023-2.84Z" transform="translate(6.445 -191.701)"/>
        </g>
      </g>
    </g>
  </g>
</svg>
