<svg xmlns="http://www.w3.org/2000/svg" viewBox="5003 -1080 122.348 88.744">
  <defs>
    <style>
      .cls-1 {
        fill: #414143;
      }

      .cls-2 {
        fill: #73c38e;
      }
    </style>
  </defs>
  <g id="Group_157" data-name="Group 157" transform="translate(4143.794 -1698.932)">
    <g id="Group_1" data-name="Group 1" transform="translate(899.82 633.605)">
      <path id="Path_1" data-name="Path 1" class="cls-1" d="M67.59,44.258l-.71-.473-4.97,8.4.71.473ZM55.284,58.812l.947-1.42H51.5l2.6,1.42ZM79.186,34.2H44.28v7.336a9.871,9.871,0,0,1,1.42.947V35.62H77.647V57.51H62.265l-.828,1.3H79.186ZM45.818,52.422a4.951,4.951,0,0,1-1.42.947v.947c.473.118.947.118,1.42.237Zm16.092.592a1.967,1.967,0,0,0-2.721.71l-4.023,6.508L49.6,57.155a11.557,11.557,0,0,0-7.573-2.248H40.848c-7.336.828-6.035,6.745-6.035,6.745l.947,17.867,12.9-.118-.592-17.985,6.744,3.313a3.658,3.658,0,0,0,.947.237,2.247,2.247,0,0,0,1.775-.947l4.97-8.164a2.073,2.073,0,0,0-.592-2.84M35.524,47.452a5.916,5.916,0,1,1,5.916,5.916,5.933,5.933,0,0,1-5.916-5.916" transform="translate(-34.725 -34.2)"/>
    </g>
    <g id="Group_2" data-name="Group 2" transform="translate(859.206 618.932)">
      <path id="Path_2" data-name="Path 2" class="cls-1" d="M4.66,92.085H118.488V25.941H4.66Zm115.958,4.26H2.53A2.121,2.121,0,0,1,.4,94.215V23.93A2.121,2.121,0,0,1,2.53,21.8H120.618a2.121,2.121,0,0,1,2.13,2.13V94.215a2.288,2.288,0,0,1-2.13,2.13" transform="translate(-0.4 -21.8)"/>
    </g>
    <g id="Group_3" data-name="Group 3" transform="translate(860.034 700.813)">
      <path id="Path_3" data-name="Path 3" class="cls-2" d="M120.49,93.6H2.4a1.3,1.3,0,0,1,0-2.6H120.49a1.313,1.313,0,0,1,1.3,1.3c-.118.828-.592,1.3-1.3,1.3" transform="translate(-1.1 -91)"/>
    </g>
    <g id="Group_4" data-name="Group 4" transform="translate(885.711 700.813)">
      <path id="Path_4" data-name="Path 4" class="cls-1" d="M116.513,93.6H24.1a1.3,1.3,0,1,1,0-2.6h92.411a1.313,1.313,0,0,1,1.3,1.3c-.118.828-.592,1.3-1.3,1.3" transform="translate(-22.8 -91)"/>
    </g>
    <g id="Group_5" data-name="Group 5" transform="translate(885.592 696.672)">
      <path id="Path_5" data-name="Path 5" class="cls-1" d="M24.12,98.5h0a1.439,1.439,0,0,1-1.42-1.42V88.92a1.42,1.42,0,0,1,2.84,0v8.164a1.367,1.367,0,0,1-1.42,1.42" transform="translate(-22.7 -87.5)"/>
    </g>
  </g>
</svg>
