<svg xmlns="http://www.w3.org/2000/svg" xmlns:xlink="http://www.w3.org/1999/xlink" viewBox="5284 -831 118.826 76.034">
  <defs>
    <style>
      .cls-1 {
        clip-path: url(#clip-path);
      }

      .cls-2 {
        fill: #414143;
      }

      .cls-3, .cls-4 {
        fill: #73c38e;
      }

      .cls-3 {
        stroke: #73c38e;
        stroke-miterlimit: 10;
        stroke-width: 1px;
      }

      .cls-5 {
        fill: #404041;
      }
    </style>
    <clipPath id="clip-path">
      <rect id="Rectangle_9" data-name="Rectangle 9" width="118.826" height="76.034"/>
    </clipPath>
  </defs>
  <g id="Group_155" data-name="Group 155" transform="translate(5284 -831)">
    <g id="Group_41" data-name="Group 41" transform="translate(0 0)">
      <g id="Group_40" data-name="Group 40">
        <g id="Group_32" data-name="Group 32" class="cls-1">
          <path id="Path_25" data-name="Path 25" class="cls-2" d="M91.7,435.125H83.113V409.74a5.649,5.649,0,0,1,1.451-3.505L89.4,401.4c.725-.725,1.33-.6,1.571-.483a1.473,1.473,0,0,1,.725,1.451Zm-7.253-1.33h5.923v-31.55l-.121.121L85.409,407.2a4.324,4.324,0,0,0-1.088,2.538V433.8Zm-24.66,1.33H51.2v-13.3a5.649,5.649,0,0,1,1.451-3.506l4.835-4.835c.725-.725,1.33-.6,1.571-.484a1.473,1.473,0,0,1,.725,1.451ZM52.53,433.8h5.923V414.213a.118.118,0,0,0-.121.121L53.5,419.169a4.324,4.324,0,0,0-1.088,2.539V433.8Z" transform="translate(7.065 -359.816)"/>
        </g>
        <g id="Group_33" data-name="Group 33" class="cls-1">
          <path id="Path_26" data-name="Path 26" class="cls-3" d="M88.409,397.325a4.77,4.77,0,0,0-1.209,3.022v36.023h6.89V393.456c0-.967-.6-1.209-1.209-.484Z" transform="translate(14.582 -361.544)"/>
        </g>
        <g id="Group_34" data-name="Group 34" class="cls-1">
          <path id="Path_27" data-name="Path 27" class="cls-3" d="M70.851,415.266l-.725.725a4.529,4.529,0,0,0-.725,2.539v14.143h7.374V411.156c0-.967-.6-1.209-1.209-.483Z" transform="translate(10.865 -357.848)"/>
        </g>
        <g id="Group_35" data-name="Group 35" class="cls-1">
          <path id="Path_28" data-name="Path 28" class="cls-3" d="M61.709,411.373c-.725-.725-1.209-.484-1.209.483v20.671h7.374V419.351a4.77,4.77,0,0,0-1.209-3.022l-1.209-1.209Z" transform="translate(9.007 -357.702)"/>
        </g>
        <g id="Group_36" data-name="Group 36" class="cls-1">
          <path id="Path_29" data-name="Path 29" class="cls-2" d="M50.666,431.137H41.6v-2.055a5.225,5.225,0,0,1,1.33-3.022l5.44-5.561c.725-.725,1.209-.6,1.571-.483a1.473,1.473,0,0,1,.725,1.451Zm-7.857-1.33h6.528v-8.462h-.121l-5.44,5.561a3.506,3.506,0,0,0-.967,2.176Z" transform="translate(5.06 -355.828)"/>
        </g>
        <g id="Group_37" data-name="Group 37" class="cls-1">
          <path id="Path_30" data-name="Path 30" class="cls-2" d="M113.611,398.174c.725.725,1.209.484,1.209-.484V372.185a3.568,3.568,0,0,0-3.506-3.385H86.292c-.967,0-1.209.6-.484,1.209l8.945,9.066L91.127,382.7l-16.8,17.165L65.379,390.8a1.753,1.753,0,0,0-2.539,0L38.06,415.944a7.223,7.223,0,0,0,0,10.154l.121.121a6.932,6.932,0,0,0,9.912,0l15.835-16.077,8.945,9.066a1.753,1.753,0,0,0,2.539,0l29.374-29.858Z" transform="translate(3.886 -366.503)"/>
        </g>
        <g id="Group_38" data-name="Group 38" class="cls-1">
          <path id="Path_31" data-name="Path 31" class="cls-4" d="M41.961,442.53H3.4l18.616-37.715L3.4,367.1H41.357v3.868H9.686l16.682,33.847L9.686,438.662H41.961Z" transform="translate(-2.916 -366.858)"/>
        </g>
        <g id="Group_39" data-name="Group 39" class="cls-1">
          <path id="Path_32" data-name="Path 32" class="cls-5" d="M28.416,386.393l-1.571-2.78c-.6-1.088-1.088-1.813-1.451-2.539h0c-.363.725-.725,1.451-1.33,2.539l-1.451,2.78H20.8l3.868-6.407L21.042,373.7h1.934l1.692,3.022c.484.846.846,1.451,1.209,2.176h0c.363-.725.725-1.33,1.088-2.176l1.692-3.022H30.47L26.6,379.865l3.868,6.528Z" transform="translate(0.717 -365.48)"/>
          <path id="Path_33" data-name="Path 33" class="cls-5" d="M35.04,375.9v4.473H39.27v1.088H35.04v4.473H33.831v-4.473H29.6v-1.088h4.231V375.9Z" transform="translate(2.554 -365.021)"/>
          <path id="Path_34" data-name="Path 34" class="cls-5" d="M42.389,386.413v-5.44L38.4,373.6h1.813l1.813,3.506a25.866,25.866,0,0,1,1.209,2.659h0c.363-.846.725-1.692,1.209-2.659l1.813-3.506H48.07l-4.231,7.253v5.44H42.389Z" transform="translate(4.392 -365.501)"/>
          <path id="Path_35" data-name="Path 35" class="cls-5" d="M47.1,379.209V378h9.55v1.088H47.1Zm0,3.626v-1.088h9.55v1.088Z" transform="translate(6.209 -364.582)"/>
        </g>
      </g>
    </g>
  </g>
</svg>
