<svg xmlns="http://www.w3.org/2000/svg" viewBox="5299 -1096 97.822 112.122">
  <defs>
    <style>
      .cls-1 {
        fill: #2c3e50;
      }

      .cls-2 {
        fill: #ecf0f1;
      }

      .cls-3 {
        fill: #70c1b3;
      }

      .cls-4 {
        fill: #2980b9;
      }

      .cls-5 {
        fill: #8dc3df;
      }

      .cls-6 {
        fill: #6a6a6a;
      }

      .cls-7 {
        fill: #ffb857;
      }

      .cls-8 {
        fill: #e74c3c;
      }
    </style>
  </defs>
  <g id="Group_150" data-name="Group 150" transform="translate(5299 -1096)">
    <g id="Group_131" data-name="Group 131" transform="translate(0 0)">
      <g id="Group_99" data-name="Group 99" transform="translate(30.209 55.934)">
        <path id="Path_71" data-name="Path 71" class="cls-1" d="M247.781,626.654c5.872,0,10.691.979,10.691-.979,0-1.506-2.56-2.71-6.249-3.313-.151,0-.226-.226-.226-.376.075-6.851,2.259-14.907,2.183-21.381-.075-4.592-4.216-6.55-6.776-6.55h-1.129a3.7,3.7,0,0,1-3.689-3.689v-.452l1.506-10.465a7.588,7.588,0,0,0-14.455-3.689c-1.957,4.291-.9,6.174,0,19.575.828,11.594,14.982,3.538,16.036,8.884,3.99,19.65,2.108,22.435,2.108,22.435" transform="translate(-228.334 -571.144)"/>
        <path id="Path_72" data-name="Path 72" class="cls-2" d="M255.32,627.256c-.9,0-1.882-.075-3.011-.075-1.355-.075-2.936-.151-4.592-.151h-.3l.151-.3c0-.075,1.807-3.237-2.108-22.435-.452-2.033-2.936-2.033-5.872-2.033-4.367.075-9.712.075-10.239-7-.226-3.538-.527-6.324-.678-8.507-.527-6.1-.753-7.98.753-11.218a7.511,7.511,0,0,1,7.755-4.442,7.836,7.836,0,0,1,5.27,2.56,7.622,7.622,0,0,1,1.807,5.722l-1.506,10.54v.753c0,3.087,1.129,3.237,4.442,3.237h.226c2.786,0,6.926,2.108,6.926,6.7a83.2,83.2,0,0,1-1.054,10.992,86.957,86.957,0,0,0-1.129,10.465.33.33,0,0,0,.075.226c3.915.6,6.4,1.957,6.4,3.463a1.209,1.209,0,0,1-.376.828C257.8,627.105,256.751,627.256,255.32,627.256Zm-7.378-1.054c1.506,0,3.011.075,4.291.151,2.786.151,5.044.226,5.722-.452a.741.741,0,0,0,.226-.6c0-1.355-2.409-2.56-6.1-3.162-.226,0-.376-.3-.376-.6a86.958,86.958,0,0,1,1.129-10.465,70.335,70.335,0,0,0,1.054-10.917c-.075-4.367-3.99-6.324-6.625-6.324h-.226c-3.162,0-4.743-.151-4.743-3.539v-.753l1.506-10.465a7.373,7.373,0,0,0-1.732-5.421,7.552,7.552,0,0,0-5.044-2.484,7.2,7.2,0,0,0-7.378,4.216c-1.43,3.087-1.28,4.969-.678,10.992.226,2.183.452,4.969.678,8.507.452,6.7,5.421,6.7,9.863,6.625,3.087,0,5.722-.075,6.173,2.259C249.222,620.631,248.319,625.223,247.942,626.2Z" transform="translate(-228.27 -571.068)"/>
      </g>
      <g id="Group_100" data-name="Group 100" transform="translate(67.047 71.241)">
        <path id="Path_73" data-name="Path 73" class="cls-2" d="M303.776,598.176H277.2a7.354,7.354,0,0,0,1.129-3.388A6.969,6.969,0,0,0,277.2,591.4h26.576a3.374,3.374,0,0,1,3.388,3.388h0A3.374,3.374,0,0,1,303.776,598.176Z" transform="translate(-277.2 -591.4)"/>
      </g>
      <g id="Group_102" data-name="Group 102" transform="translate(66.52 70.488)">
        <g id="Group_101" data-name="Group 101">
          <path id="Path_74" data-name="Path 74" class="cls-3" d="M302.85,597.929h-25.9s-.452-.075-.452-.3h0c0-.226.452-.452.452-.452h25.974a2.919,2.919,0,0,0,2.71-1.656,3.039,3.039,0,0,0-2.71-4.367H276.952s-.452-.075-.452-.3h0c0-.226.452-.452.452-.452H303a3.766,3.766,0,1,1-.151,7.529Z" transform="translate(-276.5 -590.4)"/>
        </g>
      </g>
      <g id="Group_103" data-name="Group 103" transform="translate(21.724 87.051)">
        <path id="Path_75" data-name="Path 75" class="cls-2" d="M238,619.176H217a8.578,8.578,0,0,0,.9-3.388,8.116,8.116,0,0,0-.9-3.388h21c1.506,0,2.71,1.506,2.71,3.388h0C240.715,617.67,239.511,619.176,238,619.176Z" transform="translate(-217 -612.4)"/>
      </g>
      <g id="Group_105" data-name="Group 105" transform="translate(21.498 87.039)">
        <g id="Group_104" data-name="Group 104">
          <path id="Path_76" data-name="Path 76" class="cls-3" d="M237.7,619.925H217.152s-.376-.376-.376-.6h0c0-.226.376-.151.376-.151H237.63a2.728,2.728,0,0,0,2.409-3.087,2.674,2.674,0,0,0-2.409-2.936H217.076s-.376-.376-.376-.6h0c0-.226.376-.151.376-.151H237.7c1.656,0,2.936,1.656,3.011,3.689C240.792,618.193,239.361,619.925,237.7,619.925Z" transform="translate(-216.7 -612.384)"/>
        </g>
      </g>
      <g id="Group_106" data-name="Group 106" transform="translate(63.282 78.77)">
        <path id="Path_77" data-name="Path 77" class="cls-2" d="M298.776,608.176H272.2a7.354,7.354,0,0,0,1.129-3.388A6.969,6.969,0,0,0,272.2,601.4h26.576a3.374,3.374,0,0,1,3.388,3.388h0A3.374,3.374,0,0,1,298.776,608.176Z" transform="translate(-272.2 -601.4)"/>
      </g>
      <g id="Group_108" data-name="Group 108" transform="translate(62.755 78.758)">
        <g id="Group_107" data-name="Group 107">
          <path id="Path_78" data-name="Path 78" class="cls-4" d="M297.85,608.925h-25.9s-.452-.3-.452-.6h0c0-.226.452-.151.452-.151h25.974a2.919,2.919,0,0,0,2.71-1.656,3.039,3.039,0,0,0-2.71-4.367H271.952s-.452-.3-.452-.6h0c0-.226.452-.151.452-.151H298a3.766,3.766,0,1,1-.151,7.529Z" transform="translate(-271.5 -601.384)"/>
        </g>
      </g>
      <g id="Group_109" data-name="Group 109" transform="translate(21.95 103.614)">
        <path id="Path_79" data-name="Path 79" class="cls-2" d="M238.3,641.176h-21a8.578,8.578,0,0,0,.9-3.388,8.117,8.117,0,0,0-.9-3.388h21c1.506,0,2.71,1.506,2.71,3.388h0C240.94,639.67,239.735,641.176,238.3,641.176Z" transform="translate(-217.3 -634.4)"/>
      </g>
      <g id="Group_111" data-name="Group 111" transform="translate(21.649 102.861)">
        <g id="Group_110" data-name="Group 110">
          <path id="Path_80" data-name="Path 80" class="cls-5" d="M237.9,640.929H217.352s-.376.151-.376-.075h0c0-.226.376-.678.376-.678H237.83a2.728,2.728,0,0,0,2.409-3.087,2.674,2.674,0,0,0-2.409-2.936H217.276s-.376.226-.376-.075h0c0-.226.376-.678.376-.678H237.9c1.656,0,2.936,1.656,3.011,3.689C240.992,639.2,239.637,640.929,237.9,640.929Z" transform="translate(-216.9 -633.4)"/>
        </g>
      </g>
      <g id="Group_112" data-name="Group 112" transform="translate(64.035 87.051)">
        <path id="Path_81" data-name="Path 81" class="cls-2" d="M299.776,619.176H273.2a7.354,7.354,0,0,0,1.129-3.388A6.969,6.969,0,0,0,273.2,612.4h26.576a3.374,3.374,0,0,1,3.388,3.388h0A3.374,3.374,0,0,1,299.776,619.176Z" transform="translate(-273.2 -612.4)"/>
      </g>
      <g id="Group_114" data-name="Group 114" transform="translate(64.186 87.039)">
        <g id="Group_113" data-name="Group 113">
          <path id="Path_82" data-name="Path 82" class="cls-6" d="M299.75,619.925h-25.9s-.452-.376-.452-.6h0c0-.226.452-.151.452-.151h25.974a2.919,2.919,0,0,0,2.71-1.656,3.039,3.039,0,0,0-2.71-4.367H273.852s-.452-.376-.452-.6h0c0-.226.452-.151.452-.151H299.9a3.766,3.766,0,1,1-.151,7.529Z" transform="translate(-273.4 -612.384)"/>
        </g>
      </g>
      <g id="Group_115" data-name="Group 115" transform="translate(64.035 103.614)">
        <path id="Path_83" data-name="Path 83" class="cls-2" d="M299.776,641.176H273.2a7.354,7.354,0,0,0,1.129-3.388A6.969,6.969,0,0,0,273.2,634.4h26.576a3.374,3.374,0,0,1,3.388,3.388h0A3.374,3.374,0,0,1,299.776,641.176Z" transform="translate(-273.2 -634.4)"/>
      </g>
      <g id="Group_117" data-name="Group 117" transform="translate(64.186 102.861)">
        <g id="Group_116" data-name="Group 116">
          <path id="Path_84" data-name="Path 84" class="cls-7" d="M299.75,640.929h-25.9s-.452.151-.452-.075h0c0-.226.452-.678.452-.678h25.974a2.919,2.919,0,0,0,2.71-1.656,3.039,3.039,0,0,0-2.71-4.367H273.852s-.452.226-.452-.075h0c0-.226.452-.678.452-.678H299.9a3.766,3.766,0,1,1-.151,7.529Z" transform="translate(-273.4 -633.4)"/>
        </g>
      </g>
      <g id="Group_118" data-name="Group 118" transform="translate(66.896 95.333)">
        <path id="Path_85" data-name="Path 85" class="cls-2" d="M280.388,630.176h26.576a7.354,7.354,0,0,1-1.129-3.388,6.969,6.969,0,0,1,1.129-3.388H280.388A3.374,3.374,0,0,0,277,626.788h0A3.374,3.374,0,0,0,280.388,630.176Z" transform="translate(-277 -623.4)"/>
      </g>
      <g id="Group_120" data-name="Group 120" transform="translate(66.661 95.232)">
        <g id="Group_119" data-name="Group 119">
          <path id="Path_86" data-name="Path 86" class="cls-8" d="M280.612,630.9h25.9s.452-.452.452-.753h0c0-.226-.452,0-.452,0H280.537a2.919,2.919,0,0,1-2.71-1.656,3.039,3.039,0,0,1,2.71-4.367H306.51s.452-.452.452-.753h0c0-.226-.452,0-.452,0H280.461a3.766,3.766,0,1,0,.151,7.529Z" transform="translate(-276.688 -623.267)"/>
        </g>
      </g>
      <g id="Group_121" data-name="Group 121" transform="translate(23.305 95.333)">
        <path id="Path_87" data-name="Path 87" class="cls-2" d="M240.1,630.176h-21a8.578,8.578,0,0,0,.9-3.388,8.116,8.116,0,0,0-.9-3.388h21c1.506,0,2.71,1.506,2.71,3.388h0C242.74,628.67,241.535,630.176,240.1,630.176Z" transform="translate(-219.1 -623.4)"/>
      </g>
      <g id="Group_123" data-name="Group 123" transform="translate(23.079 95.232)">
        <g id="Group_122" data-name="Group 122">
          <path id="Path_88" data-name="Path 88" class="cls-1" d="M239.8,630.9H219.252a1.681,1.681,0,0,1-.376-.753h0c0-.226.376,0,.376,0H239.73a2.728,2.728,0,0,0,2.409-3.087,2.674,2.674,0,0,0-2.409-2.936H219.176a1.681,1.681,0,0,1-.376-.753h0c0-.226.376,0,.376,0H239.8c1.656,0,2.936,1.656,3.011,3.689C242.816,629.164,241.461,630.9,239.8,630.9Z" transform="translate(-218.8 -623.267)"/>
        </g>
      </g>
      <g id="Group_124" data-name="Group 124" transform="translate(31.888 36.609)">
        <ellipse id="Ellipse_7" data-name="Ellipse 7" class="cls-1" cx="7.905" cy="8.658" rx="7.905" ry="8.658" transform="translate(0.376)"/>
        <path id="Path_89" data-name="Path 89" class="cls-2" d="M238.782,563.066a8.746,8.746,0,1,1,8.282-8.733A8.557,8.557,0,0,1,238.782,563.066Zm0-17.165a8.45,8.45,0,1,0,7.905,8.432A8.174,8.174,0,0,0,238.782,545.9Z" transform="translate(-230.5 -545.449)"/>
      </g>
      <g id="Group_125" data-name="Group 125" transform="translate(65.437 48.054)">
        <path id="Path_90" data-name="Path 90" class="cls-1" d="M306.485,560.751l-.3-.075a1.337,1.337,0,0,0-1.732.753l-6.776,18.6H276.145c-.753,0-1.129.6-1.054,1.355v.3c-.151.678.3,1.054,1.054,1.355H299.86v-.151h.075l7.453-20.553A1.285,1.285,0,0,0,306.485,560.751Z" transform="translate(-275.062 -560.602)"/>
      </g>
      <g id="Group_130" data-name="Group 130" transform="translate(0 0)">
        <g id="Group_126" data-name="Group 126" transform="translate(34.513 40.364)">
          <path id="Path_91" data-name="Path 91" class="cls-1" d="M244.913,554.011a5.649,5.649,0,1,1-7.3-3.237A5.615,5.615,0,0,1,244.913,554.011Z" transform="translate(-233.988 -550.388)"/>
        </g>
        <g id="Group_127" data-name="Group 127" transform="translate(24.694 26.413)">
          <path id="Path_92" data-name="Path 92" class="cls-1" d="M222.266,542.731a1.4,1.4,0,0,1-.527-.151,1.38,1.38,0,0,1-.678-1.807,15.072,15.072,0,0,1,19.876-7.6,1.365,1.365,0,0,1-1.129,2.484,12.015,12.015,0,0,0-9.411-.226,12.3,12.3,0,0,0-6.851,6.475A1.392,1.392,0,0,1,222.266,542.731Z" transform="translate(-220.945 -531.857)"/>
        </g>
        <g id="Group_128" data-name="Group 128" transform="translate(12.573 13.235)">
          <path id="Path_93" data-name="Path 93" class="cls-1" d="M206.166,533.21a1.4,1.4,0,0,1-.527-.151,1.38,1.38,0,0,1-.678-1.807A28.442,28.442,0,0,1,220.7,516.27a28.127,28.127,0,0,1,21.683.527,1.365,1.365,0,0,1-1.129,2.484,25.721,25.721,0,0,0-33.879,13.1A1.221,1.221,0,0,1,206.166,533.21Z" transform="translate(-204.845 -514.353)"/>
        </g>
        <g id="Group_129" data-name="Group 129">
          <path id="Path_94" data-name="Path 94" class="cls-1" d="M189.466,524.047a1.4,1.4,0,0,1-.527-.151,1.38,1.38,0,0,1-.678-1.807,42.529,42.529,0,0,1,56.013-21.682,1.365,1.365,0,0,1-1.129,2.484,39.88,39.88,0,0,0-52.475,20.327A1.221,1.221,0,0,1,189.466,524.047Z" transform="translate(-188.145 -496.774)"/>
        </g>
      </g>
    </g>
  </g>
</svg>
