<svg xmlns="http://www.w3.org/2000/svg" viewBox="31.002 2468 16.985 16.947">
  <defs>
    <style>
      .cls-1 {
        fill: #fff;
      }
    </style>
  </defs>
  <g id="group-267" transform="translate(-703 -1993)">
    <path id="XMLID_802_" class="cls-1" d="M8.611,99.73H5.2a.274.274,0,0,0-.274.274v10.954a.274.274,0,0,0,.274.274h3.41a.274.274,0,0,0,.274-.274V100A.274.274,0,0,0,8.611,99.73Z" transform="translate(729.345 4366.715)"/>
    <path id="XMLID_803_" class="cls-1" d="M2.25.341A2.248,2.248,0,1,0,4.5,2.589,2.251,2.251,0,0,0,2.25.341Z" transform="translate(734.002 4460.659)"/>
    <path id="XMLID_804_" class="cls-1" d="M112.985,94.761a4,4,0,0,0-3,1.258v-.711a.274.274,0,0,0-.274-.274H106.45a.274.274,0,0,0-.274.274v10.954a.274.274,0,0,0,.274.274h3.4a.274.274,0,0,0,.274-.274v-5.42c0-1.826.5-2.538,1.769-2.538,1.387,0,1.5,1.141,1.5,2.632v5.326a.274.274,0,0,0,.274.274h3.4a.274.274,0,0,0,.274-.274v-6.009C117.344,97.537,116.826,94.761,112.985,94.761Z" transform="translate(633.643 4371.412)"/>
  </g>
</svg>
