<svg xmlns="http://www.w3.org/2000/svg" viewBox="28.601 2428 20.854 16.948">
  <defs>
    <style>
      .cls-1 {
        fill: #fff;
      }
    </style>
  </defs>
  <path id="path" class="cls-1" d="M20.855,49.962a8.555,8.555,0,0,1-2.457.674,4.292,4.292,0,0,0,1.881-2.367,8.565,8.565,0,0,1-2.717,1.038,4.282,4.282,0,0,0-7.291,3.9,12.147,12.147,0,0,1-8.819-4.47,4.283,4.283,0,0,0,1.324,5.712,4.261,4.261,0,0,1-1.938-.535c0,.018,0,.036,0,.054a4.281,4.281,0,0,0,3.432,4.2,4.283,4.283,0,0,1-1.932.073,4.283,4.283,0,0,0,4,2.971,8.584,8.584,0,0,1-5.314,1.832A8.66,8.66,0,0,1,0,62.981,12.109,12.109,0,0,0,6.56,64.9,12.09,12.09,0,0,0,18.733,52.73q0-.278-.012-.554A8.692,8.692,0,0,0,20.855,49.962Z" transform="translate(28.6 2380.044)"/>
</svg>
