<svg xmlns="http://www.w3.org/2000/svg" viewBox="29.401 2546 19.651 16.948">
  <defs>
    <style>
      .cls-1 {
        fill: #fff;
        fill-rule: evenodd;
      }
    </style>
  </defs>
  <path id="XMLID_3_" class="cls-1" d="M19.567,23.788a2.822,2.822,0,0,0-.365-2.309c-.709-.9-2.218-.93-3.252-.772A6.822,6.822,0,0,0,11.3,25.1c1.715-.13,2.614.124,2.449,2.012a6.933,6.933,0,0,1-.914,2.485c-.515.957-1.479,2.835-2.744,1.481-1.139-1.218-1.054-3.549-1.314-5.1a21.357,21.357,0,0,0-.584-2.851,2.91,2.91,0,0,0-1.5-1.9,3.062,3.062,0,0,0-2.193.439A39.545,39.545,0,0,0,0,25.279H0c.241.516.373.851.8.914,1.019.15,1.991-.95,2.668.195a11.775,11.775,0,0,1,.8,2.22c.353,1,.625,2.1.914,3.252.488,1.956,1.089,4.878,2.779,5.594a3.644,3.644,0,0,0,2.815-.513,15.709,15.709,0,0,0,4.349-4.129A28.094,28.094,0,0,0,19.567,23.788Z" transform="translate(29.401 2525.366)"/>
</svg>
