<svg xmlns="http://www.w3.org/2000/svg" viewBox="27 2507 24.315 16.948">
  <defs>
    <style>
      .cls-1 {
        fill: #fff;
      }
    </style>
  </defs>
  <path id="path" class="cls-1" d="M23.895,17.4a3.072,3.072,0,0,0-2.629-2.389,81.7,81.7,0,0,0-9.1-.337,81.714,81.714,0,0,0-9.106.337A3.071,3.071,0,0,0,.428,17.4,26.04,26.04,0,0,0,0,23.15,26.032,26.032,0,0,0,.424,28.9a3.071,3.071,0,0,0,2.628,2.389,81.643,81.643,0,0,0,9.105.337,81.626,81.626,0,0,0,9.1-.337A3.072,3.072,0,0,0,23.89,28.9a26.02,26.02,0,0,0,.425-5.747A26.036,26.036,0,0,0,23.895,17.4ZM9.02,26.924V18.883l7.73,4.033Z" transform="translate(27 2492.324)"/>
</svg>
