<?xml version="1.0" encoding="utf-8"?>
<!-- Generator: Adobe Illustrator 20.1.0, SVG Export Plug-In . SVG Version: 6.00 Build 0)  -->
<svg version="1.1" id="Layer_1" xmlns="http://www.w3.org/2000/svg" xmlns:xlink="http://www.w3.org/1999/xlink" x="0px" y="0px"
	 viewBox="0 0 620.5 73.7" style="enable-background:new 0 0 620.5 73.7;" xml:space="preserve">
<style type="text/css">
	.st0{fill:#2C3E50;}
	.st1{enable-background:new    ;}
	.st2{fill:#FFFFFF;}
</style>
<g id="rectangle-4-2">
	<g>
		<path class="st0" d="M14,9h592.5c2.8,0,5,2.2,5,5v45.7c0,2.8-2.2,5-5,5H14c-2.8,0-5-2.2-5-5V14C9,11.2,11.2,9,14,9z"/>
	</g>
</g>
<g class="st1">
	<path class="st2" d="M80,38.4h-7.2V46h-3V28.2h11.4v2.4h-8.4V36H80V38.4z"/>
	<path class="st2" d="M97.7,38.7c0,2.2-0.7,4-2,5.4c-1.4,1.4-3.1,2.1-5.3,2.1c-2.1,0-3.9-0.7-5.2-2.1c-1.3-1.4-2-3.2-2-5.4v-3.2
		c0-2.2,0.7-4,2-5.4s3.1-2.1,5.2-2.1c2.2,0,3.9,0.7,5.3,2.1s2.1,3.2,2.1,5.4L97.7,38.7L97.7,38.7z M94.7,35.5c0-1.5-0.4-2.7-1.2-3.7
		c-0.8-1-1.9-1.4-3.2-1.4c-1.3,0-2.3,0.5-3.1,1.4c-0.8,1-1.1,2.2-1.1,3.7v3.2c0,1.5,0.4,2.7,1.1,3.7s1.8,1.4,3.1,1.4
		c1.4,0,2.4-0.5,3.2-1.4c0.8-1,1.2-2.2,1.2-3.7V35.5z"/>
	<path class="st2" d="M103.8,38.6V46h-3V28.2h6.1c2,0,3.5,0.4,4.6,1.3s1.6,2.2,1.6,3.8c0,0.9-0.2,1.7-0.7,2.4s-1.2,1.2-2.1,1.6
		c1,0.3,1.7,0.8,2.2,1.6c0.4,0.7,0.7,1.6,0.7,2.7V43c0,0.5,0.1,1,0.2,1.5s0.3,0.9,0.6,1.1V46h-3c-0.3-0.3-0.5-0.7-0.6-1.3
		s-0.1-1.1-0.1-1.7v-1.4c0-0.9-0.3-1.6-0.8-2.2c-0.5-0.5-1.2-0.8-2.1-0.8H103.8z M103.8,36.2h3c1.2,0,2.1-0.2,2.6-0.7
		s0.8-1.2,0.8-2.1c0-0.9-0.3-1.6-0.8-2.1s-1.4-0.8-2.5-0.8h-3.1V36.2z"/>
	<path class="st2" d="M125.7,41.9L125.7,41.9l5.2-13.7h3.8V46h-3V33.2h-0.1L126.8,46h-2l-5-13h-0.1v13h-3V28.2h3.9L125.7,41.9z"/>
	<path class="st2" d="M152,28.2v11.7c0,2-0.6,3.5-1.9,4.6c-1.3,1.1-3,1.7-5,1.7s-3.7-0.6-4.9-1.7s-1.9-2.7-1.9-4.6V28.2h3v11.7
		c0,1.3,0.4,2.2,1.1,2.9c0.7,0.7,1.6,1,2.8,1s2.2-0.3,2.9-1s1.1-1.7,1.1-2.9V28.2H152z"/>
	<path class="st2" d="M158.5,43.6h8.3V46h-11.3V28.2h3V43.6z"/>
	<path class="st2" d="M178.8,41.8h-6.3l-1.4,4.2H168l6.2-17.8h2.8l6.1,17.8H180L178.8,41.8z M173.3,39.4h4.7l-2.3-7h-0.1L173.3,39.4
		z"/>
	<path class="st2" d="M188.4,38.6V46h-3V28.2h6.1c2,0,3.5,0.4,4.6,1.3s1.6,2.2,1.6,3.8c0,0.9-0.2,1.7-0.7,2.4s-1.2,1.2-2.1,1.6
		c1,0.3,1.7,0.8,2.2,1.6c0.4,0.7,0.7,1.6,0.7,2.7V43c0,0.5,0.1,1,0.2,1.5c0.1,0.5,0.3,0.9,0.6,1.1V46h-3.1c-0.3-0.3-0.5-0.7-0.6-1.3
		s-0.1-1.1-0.1-1.7v-1.4c0-0.9-0.3-1.6-0.8-2.2c-0.5-0.5-1.2-0.8-2.1-0.8H188.4z M188.4,36.2h3c1.2,0,2.1-0.2,2.6-0.7
		s0.8-1.2,0.8-2.1c0-0.9-0.3-1.6-0.8-2.1s-1.4-0.8-2.5-0.8h-3.1V36.2z"/>
	<path class="st2" d="M204.5,46h-3V28.2h3V46z"/>
	<path class="st2" d="M222.5,38.7c0,2.2-0.7,4-2,5.4c-1.4,1.4-3.1,2.1-5.3,2.1c-2.1,0-3.9-0.7-5.2-2.1c-1.3-1.4-2-3.2-2-5.4v-3.2
		c0-2.2,0.7-4,2-5.4s3.1-2.1,5.2-2.1c2.2,0,3.9,0.7,5.3,2.1c1.4,1.4,2.1,3.2,2.1,5.4v3.2H222.5z M219.5,35.5c0-1.5-0.4-2.7-1.2-3.7
		s-1.9-1.4-3.2-1.4s-2.3,0.5-3.1,1.4c-0.8,1-1.1,2.2-1.1,3.7v3.2c0,1.5,0.4,2.7,1.1,3.7s1.8,1.4,3.1,1.4c1.4,0,2.4-0.5,3.2-1.4
		c0.8-1,1.2-2.2,1.2-3.7V35.5z"/>
	<path class="st2" d="M231.9,46V28.2h5.9c2.3,0,4.1,0.7,5.5,2.1s2.1,3.2,2.1,5.4v2.7c0,2.2-0.7,4-2.1,5.4c-1.4,1.4-3.2,2.1-5.5,2.1
		L231.9,46L231.9,46z M234.8,30.6v13h2.9c1.4,0,2.6-0.5,3.4-1.4c0.8-1,1.3-2.2,1.3-3.7v-2.7c0-1.5-0.4-2.7-1.3-3.7
		c-0.8-1-2-1.4-3.4-1.4L234.8,30.6L234.8,30.6z"/>
	<path class="st2" d="M258.5,38h-7v5.6h8.2V46h-11.2V28.2h11.1v2.4h-8.1v5h7V38z"/>
	<path class="st2" d="M278,41.4c0-0.7-0.3-1.3-0.8-1.8s-1.5-0.9-2.8-1.3c-1.9-0.5-3.4-1.2-4.4-2.1c-1-0.9-1.6-2-1.6-3.4
		c0-1.4,0.6-2.6,1.7-3.5s2.6-1.4,4.4-1.4c1.9,0,3.5,0.5,4.6,1.5c1.2,1,1.7,2.3,1.7,3.8v0.1H278c0-0.9-0.3-1.7-0.9-2.2
		c-0.6-0.6-1.5-0.8-2.5-0.8s-1.8,0.2-2.3,0.7s-0.8,1.1-0.8,1.8s0.3,1.2,0.9,1.7c0.6,0.4,1.6,0.9,3,1.3c1.9,0.5,3.3,1.2,4.3,2.1
		c1,0.9,1.5,2,1.5,3.4c0,1.5-0.6,2.6-1.7,3.5c-1.2,0.9-2.7,1.3-4.6,1.3c-1.8,0-3.4-0.5-4.7-1.4c-1.3-1-2-2.3-2-4.1v-0.1h2.9
		c0,1.1,0.4,1.9,1.1,2.4s1.6,0.8,2.7,0.8c1,0,1.9-0.2,2.4-0.7C277.7,42.8,278,42.2,278,41.4z"/>
	<path class="st2" d="M298,38.7c0,2.2-0.7,4-2,5.4c-1.4,1.4-3.1,2.1-5.3,2.1c-2.1,0-3.9-0.7-5.2-2.1c-1.3-1.4-2-3.2-2-5.4v-3.2
		c0-2.2,0.7-4,2-5.4s3.1-2.1,5.2-2.1c2.2,0,3.9,0.7,5.3,2.1s2.1,3.2,2.1,5.4v3.2H298z M295,35.5c0-1.5-0.4-2.7-1.2-3.7
		c-0.8-1-1.9-1.4-3.2-1.4c-1.3,0-2.3,0.5-3.1,1.4c-0.8,1-1.1,2.2-1.1,3.7v3.2c0,1.5,0.4,2.7,1.1,3.7s1.8,1.4,3.1,1.4
		c1.4,0,2.4-0.5,3.2-1.4c0.8-1,1.2-2.2,1.2-3.7V35.5z"/>
	<path class="st2" d="M304.1,43.6h8.3V46h-11.3V28.2h3V43.6z"/>
	<path class="st2" d="M318.2,46h-3V28.2h3V46z"/>
	<path class="st2" d="M335.1,40.2L335.1,40.2c0.1,1.9-0.5,3.3-1.7,4.4c-1.2,1.1-2.8,1.7-4.8,1.7c-2.1,0-3.7-0.7-5-2.1
		c-1.3-1.4-1.9-3.2-1.9-5.4v-3.4c0-2.2,0.6-3.9,1.9-5.4c1.3-1.4,2.9-2.1,5-2.1s3.7,0.5,4.9,1.6c1.2,1.1,1.8,2.5,1.8,4.4V34h-2.9
		c0-1.2-0.3-2.1-1-2.7c-0.6-0.6-1.6-0.9-2.8-0.9c-1.2,0-2.2,0.5-2.9,1.4c-0.7,1-1.1,2.2-1.1,3.6v3.4c0,1.5,0.4,2.7,1.1,3.6
		c0.7,1,1.7,1.4,2.9,1.4c1.2,0,2.1-0.3,2.8-1s0.9-1.6,0.9-2.7h2.8V40.2z"/>
	<path class="st2" d="M341.2,46h-3V28.2h3V46z"/>
	<path class="st2" d="M357.3,30.6h-5.5V46h-3V30.6h-5.4v-2.4h13.9V30.6z"/>
	<path class="st2" d="M373.1,28.2v11.7c0,2-0.6,3.5-1.9,4.6s-3,1.7-5,1.7s-3.7-0.6-4.9-1.7s-1.9-2.7-1.9-4.6V28.2h3v11.7
		c0,1.3,0.4,2.2,1.1,2.9s1.6,1,2.8,1c1.2,0,2.2-0.3,2.9-1c0.7-0.7,1.1-1.7,1.1-2.9V28.2H373.1z"/>
	<path class="st2" d="M376.6,46V28.2h5.9c2.3,0,4.1,0.7,5.5,2.1s2.1,3.2,2.1,5.4v2.7c0,2.2-0.7,4-2.1,5.4s-3.2,2.1-5.5,2.1L376.6,46
		L376.6,46z M379.5,30.6v13h2.9c1.4,0,2.6-0.5,3.4-1.4c0.8-1,1.3-2.2,1.3-3.7v-2.7c0-1.5-0.4-2.7-1.3-3.7c-0.8-1-2-1.4-3.4-1.4
		L379.5,30.6L379.5,30.6z"/>
	<path class="st2" d="M399.5,46V28.2h5.9c2.3,0,4.1,0.7,5.5,2.1s2.1,3.2,2.1,5.4v2.7c0,2.2-0.7,4-2.1,5.4s-3.2,2.1-5.5,2.1L399.5,46
		L399.5,46z M402.5,30.6v13h2.9c1.4,0,2.6-0.5,3.4-1.4c0.8-1,1.3-2.2,1.3-3.7v-2.7c0-1.5-0.4-2.7-1.3-3.7c-0.8-1-2-1.4-3.4-1.4
		L402.5,30.6L402.5,30.6z"/>
	<path class="st2" d="M426.2,38h-7v5.6h8.2V46h-11.2V28.2h11.1v2.4h-8.1v5h7V38z"/>
	<path class="st2" d="M445.6,41.8h-6.3l-1.4,4.2h-3.1l6.2-17.8h2.8L450,46h-3L445.6,41.8z M440.1,39.4h4.7l-2.3-7h-0.1L440.1,39.4z"
		/>
	<path class="st2" d="M452.2,46V28.2h5.9c2.3,0,4.1,0.7,5.5,2.1s2.1,3.2,2.1,5.4v2.7c0,2.2-0.7,4-2.1,5.4s-3.2,2.1-5.5,2.1L452.2,46
		L452.2,46z M455.2,30.6v13h2.9c1.4,0,2.6-0.5,3.4-1.4c0.8-1,1.3-2.2,1.3-3.7v-2.7c0-1.5-0.4-2.7-1.3-3.7c-0.8-1-2-1.4-3.4-1.4
		L455.2,30.6L455.2,30.6z"/>
	<path class="st2" d="M478,41.9L478,41.9l5.2-13.7h3.8V46h-3V33.2h-0.1L479,46h-2l-5-13h-0.1v13h-3V28.2h3.9L478,41.9z"/>
	<path class="st2" d="M493.9,46h-3V28.2h3V46z"/>
	<path class="st2" d="M507.3,41.4c0-0.7-0.3-1.3-0.8-1.8s-1.5-0.9-2.8-1.3c-1.9-0.5-3.4-1.2-4.4-2.1c-1-0.9-1.6-2-1.6-3.4
		c0-1.4,0.6-2.6,1.7-3.5s2.6-1.4,4.4-1.4c1.9,0,3.5,0.5,4.6,1.5c1.2,1,1.7,2.3,1.7,3.8v0.1h-2.9c0-0.9-0.3-1.7-0.9-2.2
		c-0.6-0.6-1.5-0.8-2.5-0.8s-1.8,0.2-2.3,0.7s-0.8,1.1-0.8,1.8s0.3,1.2,0.9,1.7s1.6,0.9,3,1.3c1.9,0.5,3.3,1.2,4.3,2.1
		c1,0.9,1.5,2,1.5,3.4c0,1.5-0.6,2.6-1.7,3.5s-2.7,1.3-4.6,1.3c-1.8,0-3.4-0.5-4.7-1.4c-1.3-1-2-2.3-2-4.1v-0.1h2.9
		c0,1.1,0.4,1.9,1.1,2.4s1.6,0.8,2.7,0.8s1.9-0.2,2.4-0.7C507,42.8,507.3,42.2,507.3,41.4z"/>
	<path class="st2" d="M516.5,46h-3V28.2h3V46z"/>
	<path class="st2" d="M534.4,38.7c0,2.2-0.7,4-2,5.4c-1.4,1.4-3.1,2.1-5.3,2.1c-2.1,0-3.9-0.7-5.2-2.1s-2-3.2-2-5.4v-3.2
		c0-2.2,0.7-4,2-5.4s3.1-2.1,5.2-2.1c2.2,0,3.9,0.7,5.3,2.1c1.4,1.4,2.1,3.2,2.1,5.4L534.4,38.7L534.4,38.7z M531.5,35.5
		c0-1.5-0.4-2.7-1.2-3.7s-1.9-1.4-3.2-1.4s-2.3,0.5-3.1,1.4c-0.8,1-1.1,2.2-1.1,3.7v3.2c0,1.5,0.4,2.7,1.1,3.7s1.8,1.4,3.1,1.4
		c1.4,0,2.4-0.5,3.2-1.4c0.8-1,1.2-2.2,1.2-3.7V35.5z M528.1,23h3.4v0.1l-3.3,3.2h-2.4L528.1,23z"/>
	<path class="st2" d="M551.5,46h-3l-7.9-12.8h-0.1V46h-3V28.2h3l7.9,12.8h0.1V28.2h3V46z"/>
</g>
</svg>
